<?xml version="1.0" standalone="no"?>
<!DOCTYPE svg PUBLIC "-//W3C//DTD SVG 1.1//EN" "http://www.w3.org/Graphics/SVG/1.1/DTD/svg11.dtd" >
<svg xmlns="http://www.w3.org/2000/svg" xmlns:xlink="http://www.w3.org/1999/xlink" version="1.1">
<metadata>
Created by FontForge 20161116 at Wed May  4 03:25:49 2016
 By Jimmy Wärting
Copyright (c) 2011 by Vincenzo Vuono. All rights reserved.
</metadata>
<defs>
<font id="Gravity-Regular" horiz-adv-x="590" >
  <font-face 
    font-family="Gravity"
    font-weight="400"
    font-stretch="normal"
    units-per-em="1000"
    panose-1="0 0 5 0 0 0 0 0 0 0"
    ascent="800"
    descent="-200"
    x-height="531"
    cap-height="727"
    bbox="-33 -263.788 1066 977"
    underline-thickness="70"
    underline-position="-220"
    stemh="86"
    stemv="102"
    unicode-range="U+0020-F8FF"
  />
<missing-glyph horiz-adv-x="680" 
d="M103 727h487c10 0 16 -6 16 -16v-695c0 -10 -6 -16 -16 -16h-487c-10 0 -16 6 -16 16v695c0 10 6 16 16 16zM534 661h-375v-595h375v595zM255 108h-33c-12 0 -17 8 -12 19l104 236l-104 236c-5 11 0 19 12 19h33c9 0 15 -4 18 -12l74 -168l73 168c3 8 9 12 18 12h33
c12 0 17 -8 12 -19l-103 -236l103 -236c5 -11 0 -19 -12 -19h-33c-9 0 -15 4 -18 12l-73 168l-74 -168c-3 -8 -9 -12 -18 -12z" />
    <glyph glyph-name=".notdef" horiz-adv-x="680" 
d="M103 727h487c10 0 16 -6 16 -16v-695c0 -10 -6 -16 -16 -16h-487c-10 0 -16 6 -16 16v695c0 10 6 16 16 16zM534 661h-375v-595h375v595zM255 108h-33c-12 0 -17 8 -12 19l104 236l-104 236c-5 11 0 19 12 19h33c9 0 15 -4 18 -12l74 -168l73 168c3 8 9 12 18 12h33
c12 0 17 -8 12 -19l-103 -236l103 -236c5 -11 0 -19 -12 -19h-33c-9 0 -15 4 -18 12l-73 168l-74 -168c-3 -8 -9 -12 -18 -12z" />
    <glyph glyph-name="A" unicode="A" horiz-adv-x="666" 
d="M478 225h-289l-76 -212c-4 -9 -9 -13 -19 -13h-58c-12 0 -17 7 -13 18l257 696c4 9 9 13 19 13h69c10 0 16 -4 19 -13l257 -696c4 -11 -1 -18 -13 -18h-58c-10 0 -15 4 -19 13zM449 305l-113 314h-5l-113 -314h231z" />
    <glyph glyph-name="Aacute" unicode="&#xc1;" horiz-adv-x="666" 
d="M453 937l-96 -118c-6 -6 -12 -9 -20 -9h-22c-13 0 -17 8 -11 19l70 117c4 8 10 11 19 11h51c13 0 18 -9 9 -20zM478 225h-289l-76 -212c-4 -9 -9 -13 -19 -13h-58c-12 0 -17 7 -13 18l257 696c4 9 9 13 19 13h69c10 0 16 -4 19 -13l257 -696c4 -11 -1 -18 -13 -18h-58
c-10 0 -15 4 -19 13zM449 305l-113 314h-5l-113 -314h231z" />
    <glyph glyph-name="Abreve" unicode="&#x102;" horiz-adv-x="666" 
d="M332 793c-75 0 -130 40 -130 127c0 10 6 15 16 15h32c10 0 16 -5 16 -15c0 -49 29 -70 66 -70c38 0 67 21 67 70c0 10 6 15 16 15h33c10 0 16 -5 16 -15c0 -87 -56 -127 -132 -127zM478 225h-289l-76 -212c-4 -9 -9 -13 -19 -13h-58c-12 0 -17 7 -13 18l257 696
c4 9 9 13 19 13h69c10 0 16 -4 19 -13l257 -696c4 -11 -1 -18 -13 -18h-58c-10 0 -15 4 -19 13zM449 305l-113 314h-5l-113 -314h231z" />
    <glyph glyph-name="Acaron" unicode="&#x1cd;" horiz-adv-x="666" 
d="M350 810h-36c-8 0 -14 3 -20 9l-98 116c-8 11 -4 20 10 20h43c8 0 14 -3 19 -10l61 -83h8l59 83c5 7 11 10 19 10h42c14 0 18 -9 10 -20l-97 -116c-6 -6 -12 -9 -20 -9zM478 225h-289l-76 -212c-4 -9 -9 -13 -19 -13h-58c-12 0 -17 7 -13 18l257 696c4 9 9 13 19 13h69
c10 0 16 -4 19 -13l257 -696c4 -11 -1 -18 -13 -18h-58c-10 0 -15 4 -19 13zM449 305l-113 314h-5l-113 -314h231z" />
    <glyph glyph-name="Acircumflex" unicode="&#xc2;" horiz-adv-x="666" 
d="M328 903l-59 -83c-5 -7 -11 -10 -19 -10h-42c-14 0 -18 9 -10 20l97 116c6 6 12 9 20 9h36c8 0 14 -3 20 -9l98 -116c8 -11 4 -20 -10 -20h-43c-8 0 -14 3 -19 10l-61 83h-8zM478 225h-289l-76 -212c-4 -9 -9 -13 -19 -13h-58c-12 0 -17 7 -13 18l257 696c4 9 9 13 19 13
h69c10 0 16 -4 19 -13l257 -696c4 -11 -1 -18 -13 -18h-58c-10 0 -15 4 -19 13zM449 305l-113 314h-5l-113 -314h231z" />
    <glyph glyph-name="Adieresis" unicode="&#xc4;" horiz-adv-x="666" 
d="M304 928v-68c0 -10 -6 -16 -16 -16h-46c-10 0 -16 6 -16 16v68c0 10 6 16 16 16h46c10 0 16 -6 16 -16zM449 928v-68c0 -10 -6 -16 -16 -16h-46c-10 0 -16 6 -16 16v68c0 10 6 16 16 16h46c10 0 16 -6 16 -16zM478 225h-289l-76 -212c-4 -9 -9 -13 -19 -13h-58
c-12 0 -17 7 -13 18l257 696c4 9 9 13 19 13h69c10 0 16 -4 19 -13l257 -696c4 -11 -1 -18 -13 -18h-58c-10 0 -15 4 -19 13zM449 305l-113 314h-5l-113 -314h231z" />
    <glyph glyph-name="Adotbelow" unicode="&#x1ea0;" horiz-adv-x="666" 
d="M631 0h-58c-10 0 -15 4 -19 13l-76 212h-289l-76 -212c-4 -9 -9 -13 -19 -13h-58c-12 0 -17 7 -13 18l257 696c4 9 9 13 19 13h69c10 0 16 -4 19 -13l257 -696c4 -11 -1 -18 -13 -18zM449 305l-113 314h-5l-113 -314h231zM289 -170v72c0 10 6 16 16 16h57
c10 0 16 -6 16 -16v-72c0 -10 -6 -16 -16 -16h-57c-10 0 -16 6 -16 16z" />
    <glyph glyph-name="Agrave" unicode="&#xc0;" horiz-adv-x="666" 
d="M359 810h-22c-8 0 -14 3 -20 9l-96 118c-9 11 -4 20 9 20h51c9 0 15 -3 19 -11l70 -117c6 -11 1 -19 -11 -19zM478 225h-289l-76 -212c-4 -9 -9 -13 -19 -13h-58c-12 0 -17 7 -13 18l257 696c4 9 9 13 19 13h69c10 0 16 -4 19 -13l257 -696c4 -11 -1 -18 -13 -18h-58
c-10 0 -15 4 -19 13zM449 305l-113 314h-5l-113 -314h231z" />
    <glyph glyph-name="Amacron" unicode="&#x100;" horiz-adv-x="666" 
d="M447 905v-34c0 -10 -6 -16 -16 -16h-196c-10 0 -16 6 -16 16v34c0 10 6 16 16 16h196c10 0 16 -6 16 -16zM478 225h-289l-76 -212c-4 -9 -9 -13 -19 -13h-58c-12 0 -17 7 -13 18l257 696c4 9 9 13 19 13h69c10 0 16 -4 19 -13l257 -696c4 -11 -1 -18 -13 -18h-58
c-10 0 -15 4 -19 13zM449 305l-113 314h-5l-113 -314h231z" />
    <glyph glyph-name="Aogonek" unicode="&#x104;" horiz-adv-x="666" 
d="M650 0c-2 0 -5 -1 -11 -5c-71 -41 -110 -81 -110 -116c0 -25 18 -40 56 -40c12 0 27 1 43 4c11 1 17 -4 17 -15v-30c0 -9 -4 -15 -14 -18c-16 -3 -34 -5 -50 -5c-73 0 -115 40 -115 101c0 51 31 97 87 140l-75 209h-289l-76 -212c-4 -9 -9 -13 -19 -13h-58
c-12 0 -17 7 -13 18l257 696c4 9 9 13 19 13h69c10 0 16 -4 19 -13l258 -697c4 -11 6 -17 5 -17zM449 305l-113 314h-5l-113 -314h231z" />
    <glyph glyph-name="Aring" unicode="&#xc5;" horiz-adv-x="666" 
d="M332 785c-50 0 -90 36 -90 90c0 55 40 91 90 91c51 0 91 -36 91 -91c0 -54 -40 -90 -91 -90zM332 920c-24 0 -44 -17 -44 -45c0 -26 20 -44 44 -44c25 0 45 18 45 44c0 28 -20 45 -45 45zM478 225h-289l-76 -212c-4 -9 -9 -13 -19 -13h-58c-12 0 -17 7 -13 18l257 696
c4 9 9 13 19 13h69c10 0 16 -4 19 -13l257 -696c4 -11 -1 -18 -13 -18h-58c-10 0 -15 4 -19 13zM449 305l-113 314h-5l-113 -314h231z" />
    <glyph glyph-name="Atilde" unicode="&#xc3;" horiz-adv-x="666" 
d="M284 877c-19 0 -27 -16 -29 -34c-1 -11 -6 -16 -17 -16h-22c-10 0 -16 6 -15 16c3 50 25 92 82 92c63 0 81 -66 115 -66c18 0 24 15 26 34c1 11 6 16 17 16h21c10 0 16 -6 15 -16c-3 -47 -24 -92 -79 -92c-59 0 -74 66 -114 66zM478 225h-289l-76 -212
c-4 -9 -9 -13 -19 -13h-58c-12 0 -17 7 -13 18l257 696c4 9 9 13 19 13h69c10 0 16 -4 19 -13l257 -696c4 -11 -1 -18 -13 -18h-58c-10 0 -15 4 -19 13zM449 305l-113 314h-5l-113 -314h231z" />
    <glyph glyph-name="AE" unicode="&#xc6;" horiz-adv-x="943" 
d="M567 80h314c10 0 16 -6 16 -16v-48c0 -10 -6 -16 -16 -16h-386c-10 0 -16 6 -16 16v209h-243l-122 -214c-4 -8 -10 -11 -19 -11h-60c-13 0 -17 8 -11 19l399 698c4 8 10 11 19 11h438c10 0 16 -6 16 -16v-48c0 -10 -6 -16 -16 -16h-313v-227h263c10 0 16 -6 16 -16v-49
c0 -10 -6 -16 -16 -16h-263v-260zM479 305v349l-198 -349h198z" />
    <glyph glyph-name="B" unicode="B" horiz-adv-x="671" 
d="M516 385c71 -34 109 -96 109 -172c0 -120 -90 -213 -230 -213h-307c-10 0 -16 6 -16 16l4 695c0 10 6 16 16 16h273c135 0 219 -81 219 -191c0 -60 -24 -114 -68 -151zM163 649l1 -235h205c80 0 127 44 127 116s-53 119 -141 119h-192zM166 78h223c95 0 148 50 148 127
c0 78 -58 130 -160 130h-212z" />
    <glyph glyph-name="Bdotbelow" unicode="&#x1e04;" horiz-adv-x="671" 
d="M516 385c71 -34 109 -96 109 -172c0 -120 -90 -213 -230 -213h-307c-10 0 -16 6 -16 16l4 695c0 10 6 16 16 16h273c135 0 219 -81 219 -191c0 -60 -24 -114 -68 -151zM163 649l1 -235h205c80 0 127 44 127 116s-53 119 -141 119h-192zM166 78h223c95 0 148 50 148 127
c0 78 -58 130 -160 130h-212zM285 -170v72c0 10 6 16 16 16h57c10 0 16 -6 16 -16v-72c0 -10 -6 -16 -16 -16h-57c-10 0 -16 6 -16 16z" />
    <glyph glyph-name="C" unicode="C" horiz-adv-x="742" 
d="M388 739c137 0 248 -74 296 -200c4 -11 -2 -18 -13 -18l-54 -1c-9 0 -15 4 -19 12c-46 82 -122 129 -215 129c-143 0 -249 -107 -249 -292s105 -303 258 -303c106 0 175 55 213 142c4 8 9 12 18 12l53 -1c12 0 17 -7 13 -18c-39 -111 -141 -214 -305 -214
c-202 0 -338 156 -338 375c0 224 146 377 342 377z" />
    <glyph glyph-name="Cacute" unicode="&#x106;" horiz-adv-x="742" 
d="M491 936l-96 -118c-6 -6 -12 -9 -20 -9h-22c-13 0 -17 8 -11 19l70 117c4 8 10 11 19 11h51c13 0 18 -9 9 -20zM388 739c137 0 248 -74 296 -200c4 -11 -2 -18 -13 -18l-54 -1c-9 0 -15 4 -19 12c-46 82 -122 129 -215 129c-143 0 -249 -107 -249 -292s105 -303 258 -303
c106 0 175 55 213 142c4 8 9 12 18 12l53 -1c12 0 17 -7 13 -18c-39 -111 -141 -214 -305 -214c-202 0 -338 156 -338 375c0 224 146 377 342 377z" />
    <glyph glyph-name="Cacute.loclPLK" horiz-adv-x="742" 
d="M448 954l-46 -124c-3 -9 -9 -13 -19 -13h-22c-11 0 -17 7 -14 18l28 123c2 9 8 14 17 14h43c12 0 17 -7 13 -18zM388 739c137 0 248 -74 296 -200c4 -11 -2 -18 -13 -18l-54 -1c-9 0 -15 4 -19 12c-46 82 -122 129 -215 129c-143 0 -249 -107 -249 -292
s105 -303 258 -303c106 0 175 55 213 142c4 8 9 12 18 12l53 -1c12 0 17 -7 13 -18c-39 -111 -141 -214 -305 -214c-202 0 -338 156 -338 375c0 224 146 377 342 377z" />
    <glyph glyph-name="Ccaron" unicode="&#x10c;" horiz-adv-x="742" 
d="M244 954h43c8 0 14 -3 19 -10l61 -83h8l59 83c5 7 11 10 19 10h42c14 0 18 -9 10 -20l-97 -116c-6 -6 -12 -9 -20 -9h-36c-8 0 -14 3 -20 9l-98 116c-8 11 -4 20 10 20zM388 739c137 0 248 -74 296 -200c4 -11 -2 -18 -13 -18l-54 -1c-9 0 -15 4 -19 12
c-46 82 -122 129 -215 129c-143 0 -249 -107 -249 -292s105 -303 258 -303c106 0 175 55 213 142c4 8 9 12 18 12l53 -1c12 0 17 -7 13 -18c-39 -111 -141 -214 -305 -214c-202 0 -338 156 -338 375c0 224 146 377 342 377z" />
    <glyph glyph-name="Ccedilla" unicode="&#xc7;" horiz-adv-x="742" 
d="M623 220l53 -1c12 0 17 -7 13 -18c-38 -109 -136 -209 -293 -214l-15 -48c44 -8 78 -36 78 -85c0 -50 -35 -90 -102 -90c-22 0 -42 4 -64 15c-9 4 -12 12 -9 21l5 16c3 10 10 13 21 9c17 -7 33 -11 47 -11c26 0 46 17 46 37c0 24 -19 44 -67 45h-3c-12 0 -17 7 -14 18
l23 75c-179 21 -296 170 -296 373c0 224 146 377 342 377c137 0 248 -74 296 -200c4 -11 -2 -18 -13 -18l-54 -1c-9 0 -15 4 -19 12c-46 82 -122 129 -215 129c-143 0 -249 -107 -249 -292s105 -303 258 -303c106 0 175 55 213 142c4 8 9 12 18 12z" />
    <glyph glyph-name="Cdotaccent" unicode="&#x10a;" horiz-adv-x="742" 
d="M414 926v-68c0 -10 -6 -16 -16 -16h-53c-10 0 -16 6 -16 16v68c0 10 6 16 16 16h53c10 0 16 -6 16 -16zM388 739c137 0 248 -74 296 -200c4 -11 -2 -18 -13 -18l-54 -1c-9 0 -15 4 -19 12c-46 82 -122 129 -215 129c-143 0 -249 -107 -249 -292s105 -303 258 -303
c106 0 175 55 213 142c4 8 9 12 18 12l53 -1c12 0 17 -7 13 -18c-39 -111 -141 -214 -305 -214c-202 0 -338 156 -338 375c0 224 146 377 342 377z" />
    <glyph glyph-name="D" unicode="D" horiz-adv-x="724" 
d="M92 727h241c224 0 345 -141 345 -353c0 -215 -123 -374 -347 -374h-243c-10 0 -16 6 -16 16l4 695c0 10 6 16 16 16zM166 79h159c165 0 265 110 265 285c0 181 -99 285 -264 285h-163z" />
    <glyph glyph-name="Eth" unicode="&#xd0;" horiz-adv-x="724" 
d="M92 727h241c224 0 345 -141 345 -353c0 -215 -123 -374 -347 -374h-243c-10 0 -16 6 -16 16l1 228h-54c-10 0 -16 6 -16 16v45c0 10 6 16 16 16h55l2 390c0 10 6 16 16 16zM166 79h159c165 0 265 110 265 285c0 181 -99 285 -264 285h-163l2 -328h171c10 0 16 -6 16 -16
v-45c0 -10 -6 -16 -16 -16h-171z" />
    <glyph glyph-name="Dcaron" unicode="&#x10e;" horiz-adv-x="724" 
d="M335 809h-36c-8 0 -14 3 -20 9l-98 116c-8 11 -4 20 10 20h43c8 0 14 -3 19 -10l61 -83h8l59 83c5 7 11 10 19 10h42c14 0 18 -9 10 -20l-97 -116c-6 -6 -12 -9 -20 -9zM92 727h241c224 0 345 -141 345 -353c0 -215 -123 -374 -347 -374h-243c-10 0 -16 6 -16 16l4 695
c0 10 6 16 16 16zM166 79h159c165 0 265 110 265 285c0 181 -99 285 -264 285h-163z" />
    <glyph glyph-name="Dcroat" unicode="&#x110;" horiz-adv-x="724" 
d="M92 727h241c224 0 345 -141 345 -353c0 -215 -123 -374 -347 -374h-243c-10 0 -16 6 -16 16l1 228h-54c-10 0 -16 6 -16 16v45c0 10 6 16 16 16h55l2 390c0 10 6 16 16 16zM166 79h159c165 0 265 110 265 285c0 181 -99 285 -264 285h-163l2 -328h171c10 0 16 -6 16 -16
v-45c0 -10 -6 -16 -16 -16h-171z" />
    <glyph glyph-name="Ddotbelow" unicode="&#x1e0c;" horiz-adv-x="724" 
d="M92 727h241c224 0 345 -141 345 -353c0 -215 -123 -374 -347 -374h-243c-10 0 -16 6 -16 16l4 695c0 10 6 16 16 16zM166 79h159c165 0 265 110 265 285c0 181 -99 285 -264 285h-163zM293 -170v72c0 10 6 16 16 16h57c10 0 16 -6 16 -16v-72c0 -10 -6 -16 -16 -16h-57
c-10 0 -16 6 -16 16z" />
    <glyph glyph-name="E" unicode="E" 
d="M167 80h361c10 0 16 -6 16 -16v-48c0 -10 -6 -16 -16 -16h-440c-10 0 -16 6 -16 16l4 695c0 10 6 16 16 16h435c10 0 16 -6 16 -16v-48c0 -10 -6 -16 -16 -16h-364l2 -226h311c10 0 16 -6 16 -16v-49c0 -10 -6 -16 -16 -16h-311z" />
    <glyph glyph-name="Eacute" unicode="&#xc9;" 
d="M420 937l-96 -118c-6 -6 -12 -9 -20 -9h-22c-13 0 -17 8 -11 19l70 117c4 8 10 11 19 11h51c13 0 18 -9 9 -20zM167 80h361c10 0 16 -6 16 -16v-48c0 -10 -6 -16 -16 -16h-440c-10 0 -16 6 -16 16l4 695c0 10 6 16 16 16h435c10 0 16 -6 16 -16v-48c0 -10 -6 -16 -16 -16
h-364l2 -226h311c10 0 16 -6 16 -16v-49c0 -10 -6 -16 -16 -16h-311z" />
    <glyph glyph-name="Ecaron" unicode="&#x11a;" 
d="M318 810h-36c-8 0 -14 3 -20 9l-98 116c-8 11 -4 20 10 20h43c8 0 14 -3 19 -10l61 -83h8l59 83c5 7 11 10 19 10h42c14 0 18 -9 10 -20l-97 -116c-6 -6 -12 -9 -20 -9zM167 80h361c10 0 16 -6 16 -16v-48c0 -10 -6 -16 -16 -16h-440c-10 0 -16 6 -16 16l4 695
c0 10 6 16 16 16h435c10 0 16 -6 16 -16v-48c0 -10 -6 -16 -16 -16h-364l2 -226h311c10 0 16 -6 16 -16v-49c0 -10 -6 -16 -16 -16h-311z" />
    <glyph glyph-name="Ecedilla" unicode="&#x228;" 
d="M325 0l-19 -61c44 -8 78 -36 78 -85c0 -50 -35 -90 -102 -90c-22 0 -42 4 -64 15c-9 4 -12 12 -9 21l5 16c3 10 10 13 21 9c17 -7 33 -11 47 -11c26 0 46 17 46 37c0 24 -19 44 -67 45h-3c-12 0 -17 7 -14 18l26 86h-182c-10 0 -16 6 -16 16l4 695c0 10 6 16 16 16h435
c10 0 16 -6 16 -16v-48c0 -10 -6 -16 -16 -16h-364l2 -226h311c10 0 16 -6 16 -16v-49c0 -10 -6 -16 -16 -16h-311l2 -260h361c10 0 16 -6 16 -16v-48c0 -10 -6 -16 -16 -16h-203z" />
    <glyph glyph-name="Ecircumflex" unicode="&#xca;" 
d="M295 903l-59 -83c-5 -7 -11 -10 -19 -10h-42c-14 0 -18 9 -10 20l97 116c6 6 12 9 20 9h36c8 0 14 -3 20 -9l98 -116c8 -11 4 -20 -10 -20h-43c-8 0 -14 3 -19 10l-61 83h-8zM167 80h361c10 0 16 -6 16 -16v-48c0 -10 -6 -16 -16 -16h-440c-10 0 -16 6 -16 16l4 695
c0 10 6 16 16 16h435c10 0 16 -6 16 -16v-48c0 -10 -6 -16 -16 -16h-364l2 -226h311c10 0 16 -6 16 -16v-49c0 -10 -6 -16 -16 -16h-311z" />
    <glyph glyph-name="Edieresis" unicode="&#xcb;" 
d="M272 928v-68c0 -10 -6 -16 -16 -16h-46c-10 0 -16 6 -16 16v68c0 10 6 16 16 16h46c10 0 16 -6 16 -16zM417 928v-68c0 -10 -6 -16 -16 -16h-46c-10 0 -16 6 -16 16v68c0 10 6 16 16 16h46c10 0 16 -6 16 -16zM167 80h361c10 0 16 -6 16 -16v-48c0 -10 -6 -16 -16 -16
h-440c-10 0 -16 6 -16 16l4 695c0 10 6 16 16 16h435c10 0 16 -6 16 -16v-48c0 -10 -6 -16 -16 -16h-364l2 -226h311c10 0 16 -6 16 -16v-49c0 -10 -6 -16 -16 -16h-311z" />
    <glyph glyph-name="Edotaccent" unicode="&#x116;" 
d="M343 927v-68c0 -10 -6 -16 -16 -16h-53c-10 0 -16 6 -16 16v68c0 10 6 16 16 16h53c10 0 16 -6 16 -16zM167 80h361c10 0 16 -6 16 -16v-48c0 -10 -6 -16 -16 -16h-440c-10 0 -16 6 -16 16l4 695c0 10 6 16 16 16h435c10 0 16 -6 16 -16v-48c0 -10 -6 -16 -16 -16h-364
l2 -226h311c10 0 16 -6 16 -16v-49c0 -10 -6 -16 -16 -16h-311z" />
    <glyph glyph-name="Edotbelow" unicode="&#x1eb8;" 
d="M167 80h361c10 0 16 -6 16 -16v-48c0 -10 -6 -16 -16 -16h-440c-10 0 -16 6 -16 16l4 695c0 10 6 16 16 16h435c10 0 16 -6 16 -16v-48c0 -10 -6 -16 -16 -16h-364l2 -226h311c10 0 16 -6 16 -16v-49c0 -10 -6 -16 -16 -16h-311zM252 -170v72c0 10 6 16 16 16h57
c10 0 16 -6 16 -16v-72c0 -10 -6 -16 -16 -16h-57c-10 0 -16 6 -16 16z" />
    <glyph glyph-name="Egrave" unicode="&#xc8;" 
d="M327 810h-22c-8 0 -14 3 -20 9l-96 118c-9 11 -4 20 9 20h51c9 0 15 -3 19 -11l70 -117c6 -11 1 -19 -11 -19zM167 80h361c10 0 16 -6 16 -16v-48c0 -10 -6 -16 -16 -16h-440c-10 0 -16 6 -16 16l4 695c0 10 6 16 16 16h435c10 0 16 -6 16 -16v-48c0 -10 -6 -16 -16 -16
h-364l2 -226h311c10 0 16 -6 16 -16v-49c0 -10 -6 -16 -16 -16h-311z" />
    <glyph glyph-name="Emacron" unicode="&#x112;" 
d="M415 905v-34c0 -10 -6 -16 -16 -16h-196c-10 0 -16 6 -16 16v34c0 10 6 16 16 16h196c10 0 16 -6 16 -16zM167 80h361c10 0 16 -6 16 -16v-48c0 -10 -6 -16 -16 -16h-440c-10 0 -16 6 -16 16l4 695c0 10 6 16 16 16h435c10 0 16 -6 16 -16v-48c0 -10 -6 -16 -16 -16h-364
l2 -226h311c10 0 16 -6 16 -16v-49c0 -10 -6 -16 -16 -16h-311z" />
    <glyph glyph-name="Eogonek" unicode="&#x118;" 
d="M167 80h361c10 0 16 -6 16 -16v-48c0 -3 0 -6 -1 -8c-1 -7 -6 -9 -13 -13c-70 -40 -110 -80 -110 -116c0 -25 18 -40 56 -40c12 0 27 1 43 4c11 1 17 -4 17 -15v-30c0 -9 -4 -15 -14 -18c-16 -3 -34 -5 -50 -5c-73 0 -115 40 -115 101c0 44 24 86 67 124h-336
c-10 0 -16 6 -16 16l4 695c0 10 6 16 16 16h435c10 0 16 -6 16 -16v-48c0 -10 -6 -16 -16 -16h-364l2 -226h311c10 0 16 -6 16 -16v-49c0 -10 -6 -16 -16 -16h-311z" />
    <glyph glyph-name="Etilde" unicode="&#x1ebc;" 
d="M251 877c-19 0 -27 -16 -29 -34c-1 -11 -6 -16 -17 -16h-22c-10 0 -16 6 -15 16c3 50 25 92 82 92c63 0 81 -66 115 -66c18 0 24 15 26 34c1 11 6 16 17 16h21c10 0 16 -6 15 -16c-3 -47 -24 -92 -79 -92c-59 0 -74 66 -114 66zM167 80h361c10 0 16 -6 16 -16v-48
c0 -10 -6 -16 -16 -16h-440c-10 0 -16 6 -16 16l4 695c0 10 6 16 16 16h435c10 0 16 -6 16 -16v-48c0 -10 -6 -16 -16 -16h-364l2 -226h311c10 0 16 -6 16 -16v-49c0 -10 -6 -16 -16 -16h-311z" />
    <glyph glyph-name="F" unicode="F" horiz-adv-x="588" 
d="M163 647l2 -223h310c10 0 16 -6 16 -16v-48c0 -10 -6 -16 -16 -16h-310l2 -328c0 -10 -6 -16 -16 -16h-63c-10 0 -16 6 -16 16l4 695c0 10 6 16 16 16h434c10 0 16 -6 16 -16v-48c0 -10 -6 -16 -16 -16h-363z" />
    <glyph glyph-name="G" unicode="G" horiz-adv-x="775" 
d="M448 352h256c10 0 17 -6 17 -19c-4 -202 -137 -346 -337 -346c-195 0 -333 156 -333 376c0 222 146 376 343 376c137 0 248 -75 293 -191c5 -11 -1 -18 -12 -18l-54 -1c-9 0 -15 3 -19 11c-45 76 -122 121 -214 121c-142 0 -249 -107 -249 -292s105 -303 258 -303
c114 0 211 74 234 206h-183c-10 0 -16 6 -16 16v48c0 10 6 16 16 16z" />
    <glyph glyph-name="Gbreve" unicode="&#x11e;" horiz-adv-x="775" 
d="M388 792c-75 0 -130 40 -130 127c0 10 6 15 16 15h32c10 0 16 -5 16 -15c0 -49 29 -70 66 -70c38 0 67 21 67 70c0 10 6 15 16 15h33c10 0 16 -5 16 -15c0 -87 -56 -127 -132 -127zM448 352h256c10 0 17 -6 17 -19c-4 -202 -137 -346 -337 -346c-195 0 -333 156 -333 376
c0 222 146 376 343 376c137 0 248 -75 293 -191c5 -11 -1 -18 -12 -18l-54 -1c-9 0 -15 3 -19 11c-45 76 -122 121 -214 121c-142 0 -249 -107 -249 -292s105 -303 258 -303c114 0 211 74 234 206h-183c-10 0 -16 6 -16 16v48c0 10 6 16 16 16z" />
    <glyph glyph-name="Gcaron" unicode="&#x1e6;" horiz-adv-x="775" 
d="M406 809h-36c-8 0 -14 3 -20 9l-98 116c-8 11 -4 20 10 20h43c8 0 14 -3 19 -10l61 -83h8l59 83c5 7 11 10 19 10h42c14 0 18 -9 10 -20l-97 -116c-6 -6 -12 -9 -20 -9zM448 352h256c10 0 17 -6 17 -19c-4 -202 -137 -346 -337 -346c-195 0 -333 156 -333 376
c0 222 146 376 343 376c137 0 248 -75 293 -191c5 -11 -1 -18 -12 -18l-54 -1c-9 0 -15 3 -19 11c-45 76 -122 121 -214 121c-142 0 -249 -107 -249 -292s105 -303 258 -303c114 0 211 74 234 206h-183c-10 0 -16 6 -16 16v48c0 10 6 16 16 16z" />
    <glyph glyph-name="Gcommaaccent" unicode="&#x122;" horiz-adv-x="775" 
d="M448 352h256c10 0 17 -6 17 -19c-4 -202 -137 -346 -337 -346c-195 0 -333 156 -333 376c0 222 146 376 343 376c137 0 248 -75 293 -191c5 -11 -1 -18 -12 -18l-54 -1c-9 0 -15 3 -19 11c-45 76 -122 121 -214 121c-142 0 -249 -107 -249 -292s105 -303 258 -303
c114 0 211 74 234 206h-183c-10 0 -16 6 -16 16v48c0 10 6 16 16 16zM349 -142v47c0 10 6 16 16 16h47c10 0 16 -6 16 -16v-36c0 -63 -19 -101 -52 -128c-7 -6 -14 -6 -22 -2c-9 6 -10 13 -2 22c23 28 28 59 7 78c-6 6 -10 11 -10 19z" />
    <glyph glyph-name="Gdotaccent" unicode="&#x120;" horiz-adv-x="775" 
d="M432 926v-68c0 -10 -6 -16 -16 -16h-53c-10 0 -16 6 -16 16v68c0 10 6 16 16 16h53c10 0 16 -6 16 -16zM448 352h256c10 0 17 -6 17 -19c-4 -202 -137 -346 -337 -346c-195 0 -333 156 -333 376c0 222 146 376 343 376c137 0 248 -75 293 -191c5 -11 -1 -18 -12 -18
l-54 -1c-9 0 -15 3 -19 11c-45 76 -122 121 -214 121c-142 0 -249 -107 -249 -292s105 -303 258 -303c114 0 211 74 234 206h-183c-10 0 -16 6 -16 16v48c0 10 6 16 16 16z" />
    <glyph glyph-name="H" unicode="H" horiz-adv-x="727" 
d="M638 0h-62c-10 0 -16 6 -16 16l1 324h-396l1 -324c0 -10 -6 -16 -16 -16h-62c-10 0 -16 6 -16 16l4 695c0 10 6 16 16 16h55c10 0 16 -6 16 -16l1 -290h398l1 290c0 10 6 16 16 16h56c10 0 16 -6 16 -16l3 -695c0 -10 -6 -16 -16 -16z" />
    <glyph glyph-name="Hbar" unicode="&#x126;" horiz-adv-x="727" 
d="M738 587v-29c0 -10 -6 -16 -16 -16h-70l2 -526c0 -10 -6 -16 -16 -16h-62c-10 0 -16 6 -16 16l1 324h-396l1 -324c0 -10 -6 -16 -16 -16h-62c-10 0 -16 6 -16 16l3 526h-69c-10 0 -16 6 -16 16v29c0 10 6 16 16 16h69l1 108c0 10 6 16 16 16h55c10 0 16 -6 16 -16l1 -108
h398l1 108c0 10 6 16 16 16h56c10 0 16 -6 16 -16l1 -108h70c10 0 16 -6 16 -16zM562 542h-398v-121h398v121z" />
    <glyph glyph-name="I" unicode="I" horiz-adv-x="359" 
d="M223 711l4 -695c0 -10 -6 -16 -16 -16h-62c-10 0 -16 6 -16 16l3 695c0 10 6 16 16 16h55c10 0 16 -6 16 -16z" />
    <glyph glyph-name="IJ" unicode="&#x132;" horiz-adv-x="747" 
d="M152 727h55c10 0 16 -6 16 -16l4 -695c0 -10 -6 -16 -16 -16h-62c-10 0 -16 6 -16 16l3 695c0 10 6 16 16 16zM613 541l2 -403c1 -248 -99 -324 -309 -324h-51c-10 0 -16 6 -16 16v47c0 10 6 16 16 16h50c161 0 218 61 219 238l1 410v170c0 10 6 16 16 16h56
c10 0 16 -6 16 -16v-170z" />
    <glyph glyph-name="Iacute" unicode="&#xcd;" horiz-adv-x="359" 
d="M299 937l-96 -118c-6 -6 -12 -9 -20 -9h-22c-13 0 -17 8 -11 19l70 117c4 8 10 11 19 11h51c13 0 18 -9 9 -20zM223 711l4 -695c0 -10 -6 -16 -16 -16h-62c-10 0 -16 6 -16 16l3 695c0 10 6 16 16 16h55c10 0 16 -6 16 -16z" />
    <glyph glyph-name="Iacute_J.loclNLD" horiz-adv-x="847" 
d="M223 711l4 -695c0 -10 -6 -16 -16 -16h-62c-10 0 -16 6 -16 16l3 695c0 10 6 16 16 16h55c10 0 16 -6 16 -16zM713 711l2 -386c1 -243 -94 -320 -294 -324c-10 0 -16 6 -16 16v47c0 10 6 16 16 16c149 4 202 67 203 238l1 393c0 10 6 16 16 16h56c10 0 16 -6 16 -16z" />
    <glyph glyph-name="Icaron" unicode="&#x1cf;" horiz-adv-x="359" 
d="M53 955h43c8 0 14 -3 19 -10l61 -83h8l59 83c5 7 11 10 19 10h42c14 0 18 -9 10 -20l-97 -116c-6 -6 -12 -9 -20 -9h-36c-8 0 -14 3 -20 9l-98 116c-8 11 -4 20 10 20zM223 711l4 -695c0 -10 -6 -16 -16 -16h-62c-10 0 -16 6 -16 16l3 695c0 10 6 16 16 16h55
c10 0 16 -6 16 -16z" />
    <glyph glyph-name="Icircumflex" unicode="&#xce;" horiz-adv-x="359" 
d="M306 810h-43c-8 0 -14 3 -19 10l-61 83h-8l-59 -83c-5 -7 -11 -10 -19 -10h-42c-14 0 -18 9 -10 20l97 116c6 6 12 9 20 9h36c8 0 14 -3 20 -9l98 -116c8 -11 4 -20 -10 -20zM223 711l4 -695c0 -10 -6 -16 -16 -16h-62c-10 0 -16 6 -16 16l3 695c0 10 6 16 16 16h55
c10 0 16 -6 16 -16z" />
    <glyph glyph-name="Idieresis" unicode="&#xcf;" horiz-adv-x="359" 
d="M151 928v-68c0 -10 -6 -16 -16 -16h-46c-10 0 -16 6 -16 16v68c0 10 6 16 16 16h46c10 0 16 -6 16 -16zM296 928v-68c0 -10 -6 -16 -16 -16h-46c-10 0 -16 6 -16 16v68c0 10 6 16 16 16h46c10 0 16 -6 16 -16zM223 711l4 -695c0 -10 -6 -16 -16 -16h-62
c-10 0 -16 6 -16 16l3 695c0 10 6 16 16 16h55c10 0 16 -6 16 -16z" />
    <glyph glyph-name="Idotaccent" unicode="&#x130;" horiz-adv-x="359" 
d="M223 927v-68c0 -10 -6 -16 -16 -16h-53c-10 0 -16 6 -16 16v68c0 10 6 16 16 16h53c10 0 16 -6 16 -16zM223 711l4 -695c0 -10 -6 -16 -16 -16h-62c-10 0 -16 6 -16 16l3 695c0 10 6 16 16 16h55c10 0 16 -6 16 -16z" />
    <glyph glyph-name="Idotbelow" unicode="&#x1eca;" horiz-adv-x="359" 
d="M223 711l4 -695c0 -10 -6 -16 -16 -16h-62c-10 0 -16 6 -16 16l3 695c0 10 6 16 16 16h55c10 0 16 -6 16 -16zM225 -98v-72c0 -10 -6 -16 -16 -16h-57c-10 0 -16 6 -16 16v72c0 10 6 16 16 16h57c10 0 16 -6 16 -16z" />
    <glyph glyph-name="Igrave" unicode="&#xcc;" horiz-adv-x="359" 
d="M77 957h51c9 0 15 -3 19 -11l70 -117c6 -11 1 -19 -11 -19h-22c-8 0 -14 3 -20 9l-96 118c-9 11 -4 20 9 20zM223 711l4 -695c0 -10 -6 -16 -16 -16h-62c-10 0 -16 6 -16 16l3 695c0 10 6 16 16 16h55c10 0 16 -6 16 -16z" />
    <glyph glyph-name="Imacron" unicode="&#x12a;" horiz-adv-x="359" 
d="M294 905v-34c0 -10 -6 -16 -16 -16h-196c-10 0 -16 6 -16 16v34c0 10 6 16 16 16h196c10 0 16 -6 16 -16zM223 711l4 -695c0 -10 -6 -16 -16 -16h-62c-10 0 -16 6 -16 16l3 695c0 10 6 16 16 16h55c10 0 16 -6 16 -16z" />
    <glyph glyph-name="Iogonek" unicode="&#x12e;" horiz-adv-x="359" 
d="M108 -121c0 -25 18 -40 56 -40c12 0 27 1 43 4c11 1 17 -4 17 -15v-30c0 -9 -4 -15 -14 -18c-16 -3 -34 -5 -50 -5c-73 0 -115 40 -115 101c0 51 31 98 88 141l3 694c0 10 6 16 16 16h55c10 0 16 -6 16 -16l4 -698c0 -9 -8 -17 -24 -27c-61 -37 -95 -74 -95 -107z" />
    <glyph glyph-name="Itilde" unicode="&#x128;" horiz-adv-x="359" 
d="M129 935c63 0 81 -66 115 -66c18 0 24 15 26 34c1 11 6 16 17 16h21c10 0 16 -6 15 -16c-3 -47 -24 -92 -79 -92c-59 0 -74 66 -114 66c-19 0 -27 -16 -29 -34c-1 -11 -6 -16 -17 -16h-22c-10 0 -16 6 -15 16c3 50 25 92 82 92zM223 711l4 -695c0 -10 -6 -16 -16 -16h-62
c-10 0 -16 6 -16 16l3 695c0 10 6 16 16 16h55c10 0 16 -6 16 -16z" />
    <glyph glyph-name="J" unicode="J" horiz-adv-x="488" 
d="M354 711l2 -386c1 -243 -94 -320 -294 -324c-10 0 -16 6 -16 16v47c0 10 6 16 16 16c149 4 202 67 203 238l1 393c0 10 6 16 16 16h56c10 0 16 -6 16 -16z" />
    <glyph glyph-name="K" unicode="K" horiz-adv-x="696" 
d="M286 366l-120 -115l1 -235c0 -10 -6 -16 -16 -16h-63c-10 0 -16 6 -16 16l4 695c0 10 6 16 16 16h55c10 0 16 -6 16 -16l2 -356l383 364c6 6 11 8 19 8h68c15 0 19 -10 8 -20l-298 -285l316 -402c8 -11 4 -20 -10 -20h-76c-8 0 -14 3 -19 10z" />
    <glyph glyph-name="Kcommaaccent" unicode="&#x136;" horiz-adv-x="696" 
d="M345 422l316 -402c8 -11 4 -20 -10 -20h-76c-8 0 -14 3 -19 10l-270 356l-120 -115l1 -235c0 -10 -6 -16 -16 -16h-63c-10 0 -16 6 -16 16l4 695c0 10 6 16 16 16h55c10 0 16 -6 16 -16l2 -356l383 364c6 6 11 8 19 8h68c15 0 19 -10 8 -20zM309 -142v47c0 10 6 16 16 16
h47c10 0 16 -6 16 -16v-36c0 -63 -19 -101 -52 -128c-7 -6 -14 -6 -22 -2c-9 6 -10 13 -2 22c23 28 28 59 7 78c-6 6 -10 11 -10 19z" />
    <glyph glyph-name="L" unicode="L" horiz-adv-x="577" 
d="M167 80h368c10 0 16 -6 16 -16v-48c0 -10 -6 -16 -16 -16h-447c-10 0 -16 6 -16 16l4 695c0 10 6 16 16 16h55c10 0 16 -6 16 -16z" />
    <glyph glyph-name="Lacute" unicode="&#x139;" horiz-adv-x="577" 
d="M241 941l-96 -118c-6 -6 -12 -9 -20 -9h-22c-13 0 -17 8 -11 19l70 117c4 8 10 11 19 11h51c13 0 18 -9 9 -20zM167 80h368c10 0 16 -6 16 -16v-48c0 -10 -6 -16 -16 -16h-447c-10 0 -16 6 -16 16l4 695c0 10 6 16 16 16h55c10 0 16 -6 16 -16z" />
    <glyph glyph-name="Lcaron" unicode="&#x13d;" horiz-adv-x="577" 
d="M167 80h368c10 0 16 -6 16 -16v-48c0 -10 -6 -16 -16 -16h-447c-10 0 -16 6 -16 16l4 695c0 10 6 16 16 16h55c10 0 16 -6 16 -16z" />
    <glyph glyph-name="Lcommaaccent" unicode="&#x13b;" horiz-adv-x="577" 
d="M167 80h368c10 0 16 -6 16 -16v-48c0 -10 -6 -16 -16 -16h-447c-10 0 -16 6 -16 16l4 695c0 10 6 16 16 16h55c10 0 16 -6 16 -16zM254 -142v47c0 10 6 16 16 16h47c10 0 16 -6 16 -16v-36c0 -63 -19 -101 -52 -128c-7 -6 -14 -6 -22 -2c-9 6 -10 13 -2 22
c23 28 28 59 7 78c-6 6 -10 11 -10 19z" />
    <glyph glyph-name="Ldot" unicode="&#x13f;" horiz-adv-x="577" 
d="M167 80h368c10 0 16 -6 16 -16v-48c0 -10 -6 -16 -16 -16h-447c-10 0 -16 6 -16 16l4 695c0 10 6 16 16 16h55c10 0 16 -6 16 -16zM412 431v-72c0 -10 -6 -16 -16 -16h-67c-10 0 -16 6 -16 16v72c0 10 6 16 16 16h67c10 0 16 -6 16 -16z" />
    <glyph glyph-name="Ldotbelow" unicode="&#x1e36;" horiz-adv-x="577" 
d="M167 80h368c10 0 16 -6 16 -16v-48c0 -10 -6 -16 -16 -16h-447c-10 0 -16 6 -16 16l4 695c0 10 6 16 16 16h55c10 0 16 -6 16 -16zM249 -170v72c0 10 6 16 16 16h57c10 0 16 -6 16 -16v-72c0 -10 -6 -16 -16 -16h-57c-10 0 -16 6 -16 16z" />
    <glyph glyph-name="Lslash" unicode="&#x141;" horiz-adv-x="577" 
d="M167 80h368c10 0 16 -6 16 -16v-48c0 -10 -6 -16 -16 -16h-447c-10 0 -16 6 -16 16l2 257l-57 -32c-11 -6 -19 -2 -19 11v47c0 9 3 15 11 19l65 37l2 356c0 10 6 16 16 16h55c10 0 16 -6 16 -16l2 -304l198 113c11 6 19 2 19 -11v-47c0 -9 -3 -15 -11 -19l-206 -118z" />
    <glyph glyph-name="M" unicode="M" horiz-adv-x="872" 
d="M783 0h-58c-10 0 -16 6 -16 16l-10 612l-214 -615c-4 -9 -9 -13 -19 -13h-58c-10 0 -15 4 -18 13l-218 628l-9 -625c0 -10 -6 -16 -16 -16h-59c-10 0 -16 6 -16 16l22 695c0 11 5 16 16 16h96c10 0 15 -4 19 -13l212 -604l212 604c4 9 9 13 19 13h94c11 0 16 -5 16 -16
l21 -695c0 -10 -6 -16 -16 -16z" />
    <glyph glyph-name="Macute" unicode="&#x1e3e;" horiz-adv-x="872" 
d="M556 936l-96 -118c-6 -6 -12 -9 -20 -9h-22c-13 0 -17 8 -11 19l70 117c4 8 10 11 19 11h51c13 0 18 -9 9 -20zM783 0h-58c-10 0 -16 6 -16 16l-10 612l-214 -615c-4 -9 -9 -13 -19 -13h-58c-10 0 -15 4 -18 13l-218 628l-9 -625c0 -10 -6 -16 -16 -16h-59
c-10 0 -16 6 -16 16l22 695c0 11 5 16 16 16h96c10 0 15 -4 19 -13l212 -604l212 604c4 9 9 13 19 13h94c11 0 16 -5 16 -16l21 -695c0 -10 -6 -16 -16 -16z" />
    <glyph glyph-name="N" unicode="N" horiz-adv-x="721" 
d="M646 711l3 -695c0 -10 -6 -16 -16 -16h-84c-9 0 -15 3 -19 11l-368 616l3 -611c0 -10 -6 -16 -16 -16h-61c-10 0 -16 6 -16 16l4 695c0 10 6 16 16 16h87c9 0 15 -3 19 -11l359 -598l3 593c0 10 6 16 16 16h54c10 0 16 -6 16 -16z" />
    <glyph glyph-name="Nacute" unicode="&#x143;" horiz-adv-x="721" 
d="M481 941l-96 -118c-6 -6 -12 -9 -20 -9h-22c-13 0 -17 8 -11 19l70 117c4 8 10 11 19 11h51c13 0 18 -9 9 -20zM646 711l3 -695c0 -10 -6 -16 -16 -16h-84c-9 0 -15 3 -19 11l-368 616l3 -611c0 -10 -6 -16 -16 -16h-61c-10 0 -16 6 -16 16l4 695c0 10 6 16 16 16h87
c9 0 15 -3 19 -11l359 -598l3 593c0 10 6 16 16 16h54c10 0 16 -6 16 -16z" />
    <glyph glyph-name="Nacute.loclPLK" horiz-adv-x="721" 
d="M438 959l-46 -124c-3 -9 -9 -13 -19 -13h-22c-11 0 -17 7 -14 18l28 123c2 9 8 14 17 14h43c12 0 17 -7 13 -18zM646 711l3 -695c0 -10 -6 -16 -16 -16h-84c-9 0 -15 3 -19 11l-368 616l3 -611c0 -10 -6 -16 -16 -16h-61c-10 0 -16 6 -16 16l4 695c0 10 6 16 16 16h87
c9 0 15 -3 19 -11l359 -598l3 593c0 10 6 16 16 16h54c10 0 16 -6 16 -16z" />
    <glyph glyph-name="Ncaron" unicode="&#x147;" horiz-adv-x="721" 
d="M378 814h-36c-8 0 -14 3 -20 9l-98 116c-8 11 -4 20 10 20h43c8 0 14 -3 19 -10l61 -83h8l59 83c5 7 11 10 19 10h42c14 0 18 -9 10 -20l-97 -116c-6 -6 -12 -9 -20 -9zM646 711l3 -695c0 -10 -6 -16 -16 -16h-84c-9 0 -15 3 -19 11l-368 616l3 -611
c0 -10 -6 -16 -16 -16h-61c-10 0 -16 6 -16 16l4 695c0 10 6 16 16 16h87c9 0 15 -3 19 -11l359 -598l3 593c0 10 6 16 16 16h54c10 0 16 -6 16 -16z" />
    <glyph glyph-name="Ncommaaccent" unicode="&#x145;" horiz-adv-x="721" 
d="M646 711l3 -695c0 -10 -6 -16 -16 -16h-84c-9 0 -15 3 -19 11l-368 616l3 -611c0 -10 -6 -16 -16 -16h-61c-10 0 -16 6 -16 16l4 695c0 10 6 16 16 16h87c9 0 15 -3 19 -11l359 -598l3 593c0 10 6 16 16 16h54c10 0 16 -6 16 -16zM321 -142v47c0 10 6 16 16 16h47
c10 0 16 -6 16 -16v-36c0 -63 -19 -101 -52 -128c-7 -6 -14 -6 -22 -2c-9 6 -10 13 -2 22c23 28 28 59 7 78c-6 6 -10 11 -10 19z" />
    <glyph glyph-name="Ndotaccent" unicode="&#x1e44;" horiz-adv-x="721" 
d="M404 931v-68c0 -10 -6 -16 -16 -16h-53c-10 0 -16 6 -16 16v68c0 10 6 16 16 16h53c10 0 16 -6 16 -16zM646 711l3 -695c0 -10 -6 -16 -16 -16h-84c-9 0 -15 3 -19 11l-368 616l3 -611c0 -10 -6 -16 -16 -16h-61c-10 0 -16 6 -16 16l4 695c0 10 6 16 16 16h87
c9 0 15 -3 19 -11l359 -598l3 593c0 10 6 16 16 16h54c10 0 16 -6 16 -16z" />
    <glyph glyph-name="Ndotbelow" unicode="&#x1e46;" horiz-adv-x="721" 
d="M646 711l3 -695c0 -10 -6 -16 -16 -16h-84c-9 0 -15 3 -19 11l-368 616l3 -611c0 -10 -6 -16 -16 -16h-61c-10 0 -16 6 -16 16l4 695c0 10 6 16 16 16h87c9 0 15 -3 19 -11l359 -598l3 593c0 10 6 16 16 16h54c10 0 16 -6 16 -16zM316 -170v72c0 10 6 16 16 16h57
c10 0 16 -6 16 -16v-72c0 -10 -6 -16 -16 -16h-57c-10 0 -16 6 -16 16z" />
    <glyph glyph-name="Eng" unicode="&#x14a;" horiz-adv-x="721" 
d="M646 711l3 -729c1 -135 -60 -197 -200 -202c-10 0 -16 6 -16 16v46c0 11 6 16 16 17c81 4 108 37 108 118v24l-395 631l3 -616c0 -10 -6 -16 -16 -16h-61c-10 0 -16 6 -16 16l4 695c0 10 6 16 16 16h87c9 0 15 -3 20 -11l359 -570l2 565c0 10 6 16 16 16h54
c10 0 16 -6 16 -16z" />
    <glyph glyph-name="Ntilde" unicode="&#xd1;" horiz-adv-x="721" 
d="M312 881c-19 0 -27 -16 -29 -34c-1 -11 -6 -16 -17 -16h-22c-10 0 -16 6 -15 16c3 50 25 92 82 92c63 0 81 -66 115 -66c18 0 24 15 26 34c1 11 6 16 17 16h21c10 0 16 -6 15 -16c-3 -47 -24 -92 -79 -92c-59 0 -74 66 -114 66zM646 711l3 -695c0 -10 -6 -16 -16 -16h-84
c-9 0 -15 3 -19 11l-368 616l3 -611c0 -10 -6 -16 -16 -16h-61c-10 0 -16 6 -16 16l4 695c0 10 6 16 16 16h87c9 0 15 -3 19 -11l359 -598l3 593c0 10 6 16 16 16h54c10 0 16 -6 16 -16z" />
    <glyph glyph-name="O" unicode="O" horiz-adv-x="774" 
d="M393 739c194 0 335 -146 335 -364c0 -224 -148 -388 -346 -388c-194 0 -336 156 -336 376c0 222 148 376 347 376zM387 661c-145 0 -253 -107 -253 -292s107 -303 254 -303c144 0 253 115 253 301c0 184 -108 294 -254 294z" />
    <glyph glyph-name="Oacute" unicode="&#xd3;" horiz-adv-x="774" 
d="M507 941l-96 -118c-6 -6 -12 -9 -20 -9h-22c-13 0 -17 8 -11 19l70 117c4 8 10 11 19 11h51c13 0 18 -9 9 -20zM393 739c194 0 335 -146 335 -364c0 -224 -148 -388 -346 -388c-194 0 -336 156 -336 376c0 222 148 376 347 376zM387 661c-145 0 -253 -107 -253 -292
s107 -303 254 -303c144 0 253 115 253 301c0 184 -108 294 -254 294z" />
    <glyph glyph-name="Oacute.loclPLK" horiz-adv-x="774" 
d="M465 959l-46 -124c-3 -9 -9 -13 -19 -13h-22c-11 0 -17 7 -14 18l28 123c2 9 8 14 17 14h43c12 0 17 -7 13 -18zM393 739c194 0 335 -146 335 -364c0 -224 -148 -388 -346 -388c-194 0 -336 156 -336 376c0 222 148 376 347 376zM387 661c-145 0 -253 -107 -253 -292
s107 -303 254 -303c144 0 253 115 253 301c0 184 -108 294 -254 294z" />
    <glyph glyph-name="Ocaron" unicode="&#x1d1;" horiz-adv-x="774" 
d="M260 959h43c8 0 14 -3 19 -10l61 -83h8l59 83c5 7 11 10 19 10h42c14 0 18 -9 10 -20l-97 -116c-6 -6 -12 -9 -20 -9h-36c-8 0 -14 3 -20 9l-98 116c-8 11 -4 20 10 20zM393 739c194 0 335 -146 335 -364c0 -224 -148 -388 -346 -388c-194 0 -336 156 -336 376
c0 222 148 376 347 376zM387 661c-145 0 -253 -107 -253 -292s107 -303 254 -303c144 0 253 115 253 301c0 184 -108 294 -254 294z" />
    <glyph glyph-name="Ocircumflex" unicode="&#xd4;" horiz-adv-x="774" 
d="M513 814h-43c-8 0 -14 3 -19 10l-61 83h-8l-59 -83c-5 -7 -11 -10 -19 -10h-42c-14 0 -18 9 -10 20l97 116c6 6 12 9 20 9h36c8 0 14 -3 20 -9l98 -116c8 -11 4 -20 -10 -20zM393 739c194 0 335 -146 335 -364c0 -224 -148 -388 -346 -388c-194 0 -336 156 -336 376
c0 222 148 376 347 376zM387 661c-145 0 -253 -107 -253 -292s107 -303 254 -303c144 0 253 115 253 301c0 184 -108 294 -254 294z" />
    <glyph glyph-name="Odieresis" unicode="&#xd6;" horiz-adv-x="774" 
d="M358 932v-68c0 -10 -6 -16 -16 -16h-46c-10 0 -16 6 -16 16v68c0 10 6 16 16 16h46c10 0 16 -6 16 -16zM503 932v-68c0 -10 -6 -16 -16 -16h-46c-10 0 -16 6 -16 16v68c0 10 6 16 16 16h46c10 0 16 -6 16 -16zM393 739c194 0 335 -146 335 -364
c0 -224 -148 -388 -346 -388c-194 0 -336 156 -336 376c0 222 148 376 347 376zM387 661c-145 0 -253 -107 -253 -292s107 -303 254 -303c144 0 253 115 253 301c0 184 -108 294 -254 294z" />
    <glyph glyph-name="Odotbelow" unicode="&#x1ecc;" horiz-adv-x="774" 
d="M393 739c194 0 335 -146 335 -364c0 -224 -148 -388 -346 -388c-194 0 -336 156 -336 376c0 222 148 376 347 376zM387 661c-145 0 -253 -107 -253 -292s107 -303 254 -303c144 0 253 115 253 301c0 184 -108 294 -254 294zM427 -98v-72c0 -10 -6 -16 -16 -16h-57
c-10 0 -16 6 -16 16v72c0 10 6 16 16 16h57c10 0 16 -6 16 -16z" />
    <glyph glyph-name="Ograve" unicode="&#xd2;" horiz-adv-x="774" 
d="M285 961h51c9 0 15 -3 19 -11l70 -117c6 -11 1 -19 -11 -19h-22c-8 0 -14 3 -20 9l-96 118c-9 11 -4 20 9 20zM393 739c194 0 335 -146 335 -364c0 -224 -148 -388 -346 -388c-194 0 -336 156 -336 376c0 222 148 376 347 376zM387 661c-145 0 -253 -107 -253 -292
s107 -303 254 -303c144 0 253 115 253 301c0 184 -108 294 -254 294z" />
    <glyph glyph-name="Ohungarumlaut" unicode="&#x150;" horiz-adv-x="774" 
d="M444 937l-96 -118c-6 -6 -12 -9 -20 -9h-22c-13 0 -17 8 -11 19l70 117c4 8 10 11 19 11h51c13 0 18 -9 9 -20zM593 937l-96 -118c-6 -6 -12 -9 -20 -9h-22c-13 0 -17 8 -11 19l70 117c4 8 10 11 19 11h51c13 0 18 -9 9 -20zM393 739c194 0 335 -146 335 -364
c0 -224 -148 -388 -346 -388c-194 0 -336 156 -336 376c0 222 148 376 347 376zM387 661c-145 0 -253 -107 -253 -292s107 -303 254 -303c144 0 253 115 253 301c0 184 -108 294 -254 294z" />
    <glyph glyph-name="Omacron" unicode="&#x14c;" horiz-adv-x="774" 
d="M502 909v-34c0 -10 -6 -16 -16 -16h-196c-10 0 -16 6 -16 16v34c0 10 6 16 16 16h196c10 0 16 -6 16 -16zM393 739c194 0 335 -146 335 -364c0 -224 -148 -388 -346 -388c-194 0 -336 156 -336 376c0 222 148 376 347 376zM387 661c-145 0 -253 -107 -253 -292
s107 -303 254 -303c144 0 253 115 253 301c0 184 -108 294 -254 294z" />
    <glyph glyph-name="Oslash" unicode="&#xd8;" horiz-adv-x="800" 
d="M733 711l-67 -81c55 -63 87 -151 87 -255c0 -224 -148 -388 -346 -388c-81 0 -154 28 -210 76l-44 -54c-6 -6 -12 -9 -20 -9h-61c-13 0 -18 9 -9 20l82 99c-47 64 -74 148 -74 244c0 222 148 376 347 376c73 0 139 -21 192 -58l34 41c6 6 12 9 20 9h60c13 0 18 -9 9 -20z
M159 369c0 -71 16 -132 44 -181l354 428c-41 29 -91 45 -146 45c-144 0 -252 -107 -252 -292zM413 66c144 0 252 115 252 301c0 80 -20 146 -55 195l-359 -434c43 -40 99 -62 162 -62z" />
    <glyph glyph-name="Otilde" unicode="&#xd5;" horiz-adv-x="774" 
d="M337 939c63 0 81 -66 115 -66c18 0 24 15 26 34c1 11 6 16 17 16h21c10 0 16 -6 15 -16c-3 -47 -24 -92 -79 -92c-59 0 -74 66 -114 66c-19 0 -27 -16 -29 -34c-1 -11 -6 -16 -17 -16h-22c-10 0 -16 6 -15 16c3 50 25 92 82 92zM393 739c194 0 335 -146 335 -364
c0 -224 -148 -388 -346 -388c-194 0 -336 156 -336 376c0 222 148 376 347 376zM387 661c-145 0 -253 -107 -253 -292s107 -303 254 -303c144 0 253 115 253 301c0 184 -108 294 -254 294z" />
    <glyph glyph-name="OE" unicode="&#x152;" horiz-adv-x="915" 
d="M542 80h311c10 0 16 -6 16 -16v-48c0 -10 -6 -16 -16 -16h-457c-214 0 -350 151 -350 363c0 215 150 364 360 364h446c10 0 16 -6 16 -16v-47c0 -10 -6 -16 -16 -16h-313l1 -227h262c10 0 16 -6 16 -16v-49c0 -10 -6 -16 -16 -16h-261zM448 78l3 570h-45
c-162 0 -272 -102 -272 -279c0 -178 109 -291 270 -291h44z" />
    <glyph glyph-name="P" unicode="P" horiz-adv-x="656" 
d="M92 727h276c145 0 242 -88 242 -217s-97 -226 -242 -226h-203l2 -268c0 -10 -6 -16 -16 -16h-63c-10 0 -16 6 -16 16l4 695c0 10 6 16 16 16zM165 361h196c103 0 161 55 161 140c0 90 -65 148 -161 148h-198z" />
    <glyph glyph-name="Thorn" unicode="&#xde;" horiz-adv-x="656" 
d="M164 602h204c145 0 242 -88 242 -216c0 -130 -97 -227 -242 -227h-202l1 -143c0 -10 -6 -16 -16 -16h-63c-10 0 -16 6 -16 16l4 695c0 10 6 16 16 16h55c10 0 16 -6 16 -16zM166 237h195c103 0 161 55 161 140c0 90 -65 147 -161 147h-197z" />
    <glyph glyph-name="Q" unicode="Q" horiz-adv-x="774" 
d="M728 375c0 -127 -48 -235 -125 -305l53 -63c6 -8 6 -16 -2 -22l-35 -29c-8 -6 -16 -6 -22 2l-57 68c-47 -25 -100 -39 -158 -39c-194 0 -336 156 -336 376c0 222 148 376 347 376c194 0 335 -146 335 -364zM388 66c36 0 70 7 100 21l-52 62c-6 8 -6 16 2 22l35 30
c8 6 16 6 22 -2l58 -69c54 52 88 134 88 237c0 184 -108 294 -254 294c-145 0 -253 -107 -253 -292s107 -303 254 -303z" />
    <glyph glyph-name="R" unicode="R" horiz-adv-x="657" 
d="M312 321h-147l2 -305c0 -10 -6 -16 -16 -16h-63c-10 0 -16 6 -16 16l4 695c0 10 6 16 16 16h277c143 0 233 -84 233 -199c0 -103 -71 -186 -190 -204l215 -305c8 -10 3 -19 -10 -19h-76c-8 0 -14 3 -19 10zM164 399h195c103 0 155 48 155 122c0 78 -58 128 -155 128h-196
z" />
    <glyph glyph-name="Racute" unicode="&#x154;" horiz-adv-x="657" 
d="M456 936l-96 -118c-6 -6 -12 -9 -20 -9h-22c-13 0 -17 8 -11 19l70 117c4 8 10 11 19 11h51c13 0 18 -9 9 -20zM312 321h-147l2 -305c0 -10 -6 -16 -16 -16h-63c-10 0 -16 6 -16 16l4 695c0 10 6 16 16 16h277c143 0 233 -84 233 -199c0 -103 -71 -186 -190 -204
l215 -305c8 -10 3 -19 -10 -19h-76c-8 0 -14 3 -19 10zM164 399h195c103 0 155 48 155 122c0 78 -58 128 -155 128h-196z" />
    <glyph glyph-name="Rcaron" unicode="&#x158;" horiz-adv-x="657" 
d="M354 809h-36c-8 0 -14 3 -20 9l-98 116c-8 11 -4 20 10 20h43c8 0 14 -3 19 -10l61 -83h8l59 83c5 7 11 10 19 10h42c14 0 18 -9 10 -20l-97 -116c-6 -6 -12 -9 -20 -9zM312 321h-147l2 -305c0 -10 -6 -16 -16 -16h-63c-10 0 -16 6 -16 16l4 695c0 10 6 16 16 16h277
c143 0 233 -84 233 -199c0 -103 -71 -186 -190 -204l215 -305c8 -10 3 -19 -10 -19h-76c-8 0 -14 3 -19 10zM164 399h195c103 0 155 48 155 122c0 78 -58 128 -155 128h-196z" />
    <glyph glyph-name="Rcommaaccent" unicode="&#x156;" horiz-adv-x="657" 
d="M412 324l215 -305c8 -10 3 -19 -10 -19h-76c-8 0 -14 3 -19 10l-210 311h-147l2 -305c0 -10 -6 -16 -16 -16h-63c-10 0 -16 6 -16 16l4 695c0 10 6 16 16 16h277c143 0 233 -84 233 -199c0 -103 -71 -186 -190 -204zM164 399h195c103 0 155 48 155 122
c0 78 -58 128 -155 128h-196zM297 -142v47c0 10 6 16 16 16h47c10 0 16 -6 16 -16v-36c0 -63 -19 -101 -52 -128c-7 -6 -14 -6 -22 -2c-9 6 -10 13 -2 22c23 28 28 59 7 78c-6 6 -10 11 -10 19z" />
    <glyph glyph-name="S" unicode="S" horiz-adv-x="655" 
d="M329 739c143 0 230 -83 262 -172c4 -11 -1 -18 -13 -18h-54c-9 0 -15 3 -19 11c-31 54 -90 100 -183 100c-101 0 -154 -44 -154 -105c0 -66 54 -96 176 -133l39 -12c162 -50 226 -122 226 -221c0 -127 -103 -202 -261 -202c-187 0 -276 108 -298 196c-3 10 3 17 14 17h57
c9 0 14 -4 18 -12c29 -65 91 -121 212 -121c107 0 167 39 167 110c0 67 -54 110 -181 152l-41 13c-136 44 -215 97 -218 200c-3 123 109 197 251 197z" />
    <glyph glyph-name="Sacute" unicode="&#x15a;" horiz-adv-x="655" 
d="M448 936l-96 -118c-6 -6 -12 -9 -20 -9h-22c-13 0 -17 8 -11 19l70 117c4 8 10 11 19 11h51c13 0 18 -9 9 -20zM329 739c143 0 230 -83 262 -172c4 -11 -1 -18 -13 -18h-54c-9 0 -15 3 -19 11c-31 54 -90 100 -183 100c-101 0 -154 -44 -154 -105c0 -66 54 -96 176 -133
l39 -12c162 -50 226 -122 226 -221c0 -127 -103 -202 -261 -202c-187 0 -276 108 -298 196c-3 10 3 17 14 17h57c9 0 14 -4 18 -12c29 -65 91 -121 212 -121c107 0 167 39 167 110c0 67 -54 110 -181 152l-41 13c-136 44 -215 97 -218 200c-3 123 109 197 251 197z" />
    <glyph glyph-name="Sacute.loclPLK" horiz-adv-x="655" 
d="M406 954l-46 -124c-3 -9 -9 -13 -19 -13h-22c-11 0 -17 7 -14 18l28 123c2 9 8 14 17 14h43c12 0 17 -7 13 -18zM329 739c143 0 230 -83 262 -172c4 -11 -1 -18 -13 -18h-54c-9 0 -15 3 -19 11c-31 54 -90 100 -183 100c-101 0 -154 -44 -154 -105c0 -66 54 -96 176 -133
l39 -12c162 -50 226 -122 226 -221c0 -127 -103 -202 -261 -202c-187 0 -276 108 -298 196c-3 10 3 17 14 17h57c9 0 14 -4 18 -12c29 -65 91 -121 212 -121c107 0 167 39 167 110c0 67 -54 110 -181 152l-41 13c-136 44 -215 97 -218 200c-3 123 109 197 251 197z" />
    <glyph glyph-name="Scaron" unicode="&#x160;" horiz-adv-x="655" 
d="M201 954h43c8 0 14 -3 19 -10l61 -83h8l59 83c5 7 11 10 19 10h42c14 0 18 -9 10 -20l-97 -116c-6 -6 -12 -9 -20 -9h-36c-8 0 -14 3 -20 9l-98 116c-8 11 -4 20 10 20zM329 739c143 0 230 -83 262 -172c4 -11 -1 -18 -13 -18h-54c-9 0 -15 3 -19 11
c-31 54 -90 100 -183 100c-101 0 -154 -44 -154 -105c0 -66 54 -96 176 -133l39 -12c162 -50 226 -122 226 -221c0 -127 -103 -202 -261 -202c-187 0 -276 108 -298 196c-3 10 3 17 14 17h57c9 0 14 -4 18 -12c29 -65 91 -121 212 -121c107 0 167 39 167 110
c0 67 -54 110 -181 152l-41 13c-136 44 -215 97 -218 200c-3 123 109 197 251 197z" />
    <glyph glyph-name="Scedilla" unicode="&#x15e;" horiz-adv-x="655" 
d="M609 189c0 -126 -101 -200 -256 -202l-15 -48c44 -8 78 -36 78 -85c0 -50 -35 -90 -102 -90c-22 0 -42 4 -64 15c-9 4 -12 12 -9 21l5 16c3 10 10 13 21 9c17 -7 33 -11 47 -11c26 0 46 17 46 37c0 24 -19 44 -67 45h-3c-12 0 -17 7 -14 18l23 76
c-154 17 -229 113 -249 193c-3 10 3 17 14 17h57c9 0 14 -4 18 -12c29 -65 91 -121 212 -121c107 0 167 39 167 110c0 67 -54 110 -181 152l-41 13c-136 44 -215 97 -218 200c-3 123 109 197 251 197c143 0 230 -83 262 -172c4 -11 -1 -18 -13 -18h-54c-9 0 -15 3 -19 11
c-31 54 -90 100 -183 100c-101 0 -154 -44 -154 -105c0 -66 54 -96 176 -133l39 -12c162 -50 226 -122 226 -221z" />
    <glyph glyph-name="Scommaaccent" unicode="&#x218;" horiz-adv-x="655" 
d="M329 739c143 0 230 -83 262 -172c4 -11 -1 -18 -13 -18h-54c-9 0 -15 3 -19 11c-31 54 -90 100 -183 100c-101 0 -154 -44 -154 -105c0 -66 54 -96 176 -133l39 -12c162 -50 226 -122 226 -221c0 -127 -103 -202 -261 -202c-187 0 -276 108 -298 196c-3 10 3 17 14 17h57
c9 0 14 -4 18 -12c29 -65 91 -121 212 -121c107 0 167 39 167 110c0 67 -54 110 -181 152l-41 13c-136 44 -215 97 -218 200c-3 123 109 197 251 197zM368 -95v-36c0 -63 -19 -101 -52 -128c-7 -6 -14 -6 -22 -2c-9 6 -10 13 -2 22c23 28 28 59 7 78c-6 6 -10 11 -10 19v47
c0 10 6 16 16 16h47c10 0 16 -6 16 -16z" />
    <glyph glyph-name="Sdotbelow" unicode="&#x1e62;" horiz-adv-x="655" 
d="M329 739c143 0 230 -83 262 -172c4 -11 -1 -18 -13 -18h-54c-9 0 -15 3 -19 11c-31 54 -90 100 -183 100c-101 0 -154 -44 -154 -105c0 -66 54 -96 176 -133l39 -12c162 -50 226 -122 226 -221c0 -127 -103 -202 -261 -202c-187 0 -276 108 -298 196c-3 10 3 17 14 17h57
c9 0 14 -4 18 -12c29 -65 91 -121 212 -121c107 0 167 39 167 110c0 67 -54 110 -181 152l-41 13c-136 44 -215 97 -218 200c-3 123 109 197 251 197zM372 -98v-72c0 -10 -6 -16 -16 -16h-57c-10 0 -16 6 -16 16v72c0 10 6 16 16 16h57c10 0 16 -6 16 -16z" />
    <glyph glyph-name="T" unicode="T" horiz-adv-x="585" 
d="M571 711v-48c0 -10 -6 -16 -16 -16h-218l3 -631c0 -10 -6 -16 -16 -16h-62c-10 0 -16 6 -16 16l3 631h-219c-10 0 -16 6 -16 16v48c0 10 6 16 16 16h525c10 0 16 -6 16 -16z" />
    <glyph glyph-name="Tbar" unicode="&#x166;" horiz-adv-x="585" 
d="M407 904v-34c0 -10 -6 -16 -16 -16h-196c-10 0 -16 6 -16 16v34c0 10 6 16 16 16h196c10 0 16 -6 16 -16zM571 711v-48c0 -10 -6 -16 -16 -16h-218l3 -631c0 -10 -6 -16 -16 -16h-62c-10 0 -16 6 -16 16l3 631h-219c-10 0 -16 6 -16 16v48c0 10 6 16 16 16h525
c10 0 16 -6 16 -16z" />
    <glyph glyph-name="Tcaron" unicode="&#x164;" horiz-adv-x="585" 
d="M310 809h-36c-8 0 -14 3 -20 9l-98 116c-8 11 -4 20 10 20h43c8 0 14 -3 19 -10l61 -83h8l59 83c5 7 11 10 19 10h42c14 0 18 -9 10 -20l-97 -116c-6 -6 -12 -9 -20 -9zM571 711v-48c0 -10 -6 -16 -16 -16h-218l3 -631c0 -10 -6 -16 -16 -16h-62c-10 0 -16 6 -16 16
l3 631h-219c-10 0 -16 6 -16 16v48c0 10 6 16 16 16h525c10 0 16 -6 16 -16z" />
    <glyph glyph-name="Tcedilla" unicode="&#x162;" horiz-adv-x="585" 
d="M571 711v-48c0 -10 -6 -16 -16 -16h-218l3 -631c0 -10 -6 -16 -16 -16h-2l-19 -61c44 -8 78 -36 78 -85c0 -50 -35 -90 -102 -90c-22 0 -42 4 -64 15c-9 4 -12 12 -9 21l5 16c3 10 10 13 21 9c17 -7 33 -11 47 -11c26 0 46 17 46 37c0 24 -19 44 -67 45h-3
c-12 0 -17 7 -14 18l26 86h-5c-10 0 -16 6 -16 16l3 631h-219c-10 0 -16 6 -16 16v48c0 10 6 16 16 16h525c10 0 16 -6 16 -16z" />
    <glyph glyph-name="Tcommaaccent" unicode="&#x21a;" horiz-adv-x="585" 
d="M571 711v-48c0 -10 -6 -16 -16 -16h-218l3 -631c0 -10 -6 -16 -16 -16h-62c-10 0 -16 6 -16 16l3 631h-219c-10 0 -16 6 -16 16v48c0 10 6 16 16 16h525c10 0 16 -6 16 -16zM254 -142v47c0 10 6 16 16 16h47c10 0 16 -6 16 -16v-36c0 -63 -19 -101 -52 -128
c-7 -6 -14 -6 -22 -2c-9 6 -10 13 -2 22c23 28 28 59 7 78c-6 6 -10 11 -10 19z" />
    <glyph glyph-name="Tdotbelow" unicode="&#x1e6c;" horiz-adv-x="585" 
d="M571 711v-48c0 -10 -6 -16 -16 -16h-218l3 -631c0 -10 -6 -16 -16 -16h-62c-10 0 -16 6 -16 16l3 631h-219c-10 0 -16 6 -16 16v48c0 10 6 16 16 16h525c10 0 16 -6 16 -16zM248 -170v72c0 10 6 16 16 16h57c10 0 16 -6 16 -16v-72c0 -10 -6 -16 -16 -16h-57
c-10 0 -16 6 -16 16z" />
    <glyph glyph-name="U" unicode="U" horiz-adv-x="738" 
d="M664 711l1 -398c1 -213 -125 -326 -297 -326s-297 113 -296 326l2 398c0 10 6 16 16 16h56c10 0 16 -6 16 -16l1 -388c1 -175 82 -257 207 -257c127 0 204 83 204 257l2 388c0 10 6 16 16 16h56c10 0 16 -6 16 -16z" />
    <glyph glyph-name="Uacute" unicode="&#xda;" horiz-adv-x="738" 
d="M487 941l-96 -118c-6 -6 -12 -9 -20 -9h-22c-13 0 -17 8 -11 19l70 117c4 8 10 11 19 11h51c13 0 18 -9 9 -20zM664 711l1 -398c1 -213 -125 -326 -297 -326s-297 113 -296 326l2 398c0 10 6 16 16 16h56c10 0 16 -6 16 -16l1 -388c1 -175 82 -257 207 -257
c127 0 204 83 204 257l2 388c0 10 6 16 16 16h56c10 0 16 -6 16 -16z" />
    <glyph glyph-name="Ucaron" unicode="&#x1d3;" horiz-adv-x="738" 
d="M241 959h43c8 0 14 -3 19 -10l61 -83h8l59 83c5 7 11 10 19 10h42c14 0 18 -9 10 -20l-97 -116c-6 -6 -12 -9 -20 -9h-36c-8 0 -14 3 -20 9l-98 116c-8 11 -4 20 10 20zM664 711l1 -398c1 -213 -125 -326 -297 -326s-297 113 -296 326l2 398c0 10 6 16 16 16h56
c10 0 16 -6 16 -16l1 -388c1 -175 82 -257 207 -257c127 0 204 83 204 257l2 388c0 10 6 16 16 16h56c10 0 16 -6 16 -16z" />
    <glyph glyph-name="Ucircumflex" unicode="&#xdb;" horiz-adv-x="738" 
d="M494 814h-43c-8 0 -14 3 -19 10l-61 83h-8l-59 -83c-5 -7 -11 -10 -19 -10h-42c-14 0 -18 9 -10 20l97 116c6 6 12 9 20 9h36c8 0 14 -3 20 -9l98 -116c8 -11 4 -20 -10 -20zM664 711l1 -398c1 -213 -125 -326 -297 -326s-297 113 -296 326l2 398c0 10 6 16 16 16h56
c10 0 16 -6 16 -16l1 -388c1 -175 82 -257 207 -257c127 0 204 83 204 257l2 388c0 10 6 16 16 16h56c10 0 16 -6 16 -16z" />
    <glyph glyph-name="Udieresis" unicode="&#xdc;" horiz-adv-x="738" 
d="M339 932v-68c0 -10 -6 -16 -16 -16h-46c-10 0 -16 6 -16 16v68c0 10 6 16 16 16h46c10 0 16 -6 16 -16zM484 932v-68c0 -10 -6 -16 -16 -16h-46c-10 0 -16 6 -16 16v68c0 10 6 16 16 16h46c10 0 16 -6 16 -16zM664 711l1 -398c1 -213 -125 -326 -297 -326
s-297 113 -296 326l2 398c0 10 6 16 16 16h56c10 0 16 -6 16 -16l1 -388c1 -175 82 -257 207 -257c127 0 204 83 204 257l2 388c0 10 6 16 16 16h56c10 0 16 -6 16 -16z" />
    <glyph glyph-name="Udotbelow" unicode="&#x1ee4;" horiz-adv-x="738" 
d="M664 711l1 -398c1 -213 -125 -326 -297 -326s-297 113 -296 326l2 398c0 10 6 16 16 16h56c10 0 16 -6 16 -16l1 -388c1 -175 82 -257 207 -257c127 0 204 83 204 257l2 388c0 10 6 16 16 16h56c10 0 16 -6 16 -16zM412 -98v-72c0 -10 -6 -16 -16 -16h-57
c-10 0 -16 6 -16 16v72c0 10 6 16 16 16h57c10 0 16 -6 16 -16z" />
    <glyph glyph-name="Ugrave" unicode="&#xd9;" horiz-adv-x="738" 
d="M265 961h51c9 0 15 -3 19 -11l70 -117c6 -11 1 -19 -11 -19h-22c-8 0 -14 3 -20 9l-96 118c-9 11 -4 20 9 20zM664 711l1 -398c1 -213 -125 -326 -297 -326s-297 113 -296 326l2 398c0 10 6 16 16 16h56c10 0 16 -6 16 -16l1 -388c1 -175 82 -257 207 -257
c127 0 204 83 204 257l2 388c0 10 6 16 16 16h56c10 0 16 -6 16 -16z" />
    <glyph glyph-name="Uhungarumlaut" unicode="&#x170;" horiz-adv-x="738" 
d="M424 937l-96 -118c-6 -6 -12 -9 -20 -9h-22c-13 0 -17 8 -11 19l70 117c4 8 10 11 19 11h51c13 0 18 -9 9 -20zM573 937l-96 -118c-6 -6 -12 -9 -20 -9h-22c-13 0 -17 8 -11 19l70 117c4 8 10 11 19 11h51c13 0 18 -9 9 -20zM664 711l1 -398c1 -213 -125 -326 -297 -326
s-297 113 -296 326l2 398c0 10 6 16 16 16h56c10 0 16 -6 16 -16l1 -388c1 -175 82 -257 207 -257c127 0 204 83 204 257l2 388c0 10 6 16 16 16h56c10 0 16 -6 16 -16z" />
    <glyph glyph-name="Umacron" unicode="&#x16a;" horiz-adv-x="738" 
d="M482 909v-34c0 -10 -6 -16 -16 -16h-196c-10 0 -16 6 -16 16v34c0 10 6 16 16 16h196c10 0 16 -6 16 -16zM664 711l1 -398c1 -213 -125 -326 -297 -326s-297 113 -296 326l2 398c0 10 6 16 16 16h56c10 0 16 -6 16 -16l1 -388c1 -175 82 -257 207 -257
c127 0 204 83 204 257l2 388c0 10 6 16 16 16h56c10 0 16 -6 16 -16z" />
    <glyph glyph-name="Uogonek" unicode="&#x172;" horiz-adv-x="738" 
d="M483 6c-64 -38 -99 -75 -99 -109c0 -25 18 -40 56 -40c12 0 27 1 43 4c11 1 17 -4 17 -15v-30c0 -9 -4 -15 -14 -18c-16 -3 -34 -5 -50 -5c-73 0 -115 40 -115 101c0 33 13 64 37 93c-167 4 -287 117 -286 326l2 398c0 10 6 16 16 16h56c10 0 16 -6 16 -16l1 -388
c1 -175 82 -257 207 -257c127 0 204 83 204 257l2 388c0 10 6 16 16 16h56c10 0 16 -6 16 -16l1 -398c1 -162 -72 -266 -182 -307z" />
    <glyph glyph-name="Uring" unicode="&#x16e;" horiz-adv-x="738" 
d="M367 970c51 0 91 -36 91 -91c0 -54 -40 -90 -91 -90c-50 0 -90 36 -90 90c0 55 40 91 90 91zM367 924c-24 0 -44 -17 -44 -45c0 -26 20 -44 44 -44c25 0 45 18 45 44c0 28 -20 45 -45 45zM664 711l1 -398c1 -213 -125 -326 -297 -326s-297 113 -296 326l2 398
c0 10 6 16 16 16h56c10 0 16 -6 16 -16l1 -388c1 -175 82 -257 207 -257c127 0 204 83 204 257l2 388c0 10 6 16 16 16h56c10 0 16 -6 16 -16z" />
    <glyph glyph-name="Utilde" unicode="&#x168;" horiz-adv-x="738" 
d="M317 939c63 0 81 -66 115 -66c18 0 24 15 26 34c1 11 6 16 17 16h21c10 0 16 -6 15 -16c-3 -47 -24 -92 -79 -92c-59 0 -74 66 -114 66c-19 0 -27 -16 -29 -34c-1 -11 -6 -16 -17 -16h-22c-10 0 -16 6 -15 16c3 50 25 92 82 92zM664 711l1 -398
c1 -213 -125 -326 -297 -326s-297 113 -296 326l2 398c0 10 6 16 16 16h56c10 0 16 -6 16 -16l1 -388c1 -175 82 -257 207 -257c127 0 204 83 204 257l2 388c0 10 6 16 16 16h56c10 0 16 -6 16 -16z" />
    <glyph glyph-name="V" unicode="V" horiz-adv-x="659" 
d="M566 727h56c12 0 17 -7 13 -18l-250 -696c-4 -9 -9 -13 -19 -13h-75c-10 0 -15 4 -19 13l-249 696c-4 11 1 18 13 18h56c10 0 15 -4 19 -13l215 -594h6l215 594c4 9 9 13 19 13z" />
    <glyph glyph-name="W" unicode="W" horiz-adv-x="988" 
d="M896 727h57c12 0 17 -7 14 -18l-197 -695c-3 -10 -9 -14 -18 -14h-74c-9 0 -15 4 -18 14l-162 585h-8l-161 -585c-3 -10 -9 -14 -18 -14h-74c-9 0 -15 4 -18 14l-198 695c-3 11 2 18 14 18h57c9 0 15 -4 18 -14l162 -567h8l159 567c3 10 9 14 18 14h74c9 0 15 -4 18 -14
l159 -567h9l161 567c3 10 9 14 18 14z" />
    <glyph glyph-name="Wacute" unicode="&#x1e82;" horiz-adv-x="988" 
d="M615 941l-96 -118c-6 -6 -12 -9 -20 -9h-22c-13 0 -17 8 -11 19l70 117c4 8 10 11 19 11h51c13 0 18 -9 9 -20zM896 727h57c12 0 17 -7 14 -18l-197 -695c-3 -10 -9 -14 -18 -14h-74c-9 0 -15 4 -18 14l-162 585h-8l-161 -585c-3 -10 -9 -14 -18 -14h-74
c-9 0 -15 4 -18 14l-198 695c-3 11 2 18 14 18h57c9 0 15 -4 18 -14l162 -567h8l159 567c3 10 9 14 18 14h74c9 0 15 -4 18 -14l159 -567h9l161 567c3 10 9 14 18 14z" />
    <glyph glyph-name="Wcircumflex" unicode="&#x174;" horiz-adv-x="988" 
d="M490 907l-59 -83c-5 -7 -11 -10 -19 -10h-42c-14 0 -18 9 -10 20l97 116c6 6 12 9 20 9h36c8 0 14 -3 20 -9l98 -116c8 -11 4 -20 -10 -20h-43c-8 0 -14 3 -19 10l-61 83h-8zM896 727h57c12 0 17 -7 14 -18l-197 -695c-3 -10 -9 -14 -18 -14h-74c-9 0 -15 4 -18 14
l-162 585h-8l-161 -585c-3 -10 -9 -14 -18 -14h-74c-9 0 -15 4 -18 14l-198 695c-3 11 2 18 14 18h57c9 0 15 -4 18 -14l162 -567h8l159 567c3 10 9 14 18 14h74c9 0 15 -4 18 -14l159 -567h9l161 567c3 10 9 14 18 14z" />
    <glyph glyph-name="Wdieresis" unicode="&#x1e84;" horiz-adv-x="988" 
d="M466 932v-68c0 -10 -6 -16 -16 -16h-46c-10 0 -16 6 -16 16v68c0 10 6 16 16 16h46c10 0 16 -6 16 -16zM611 932v-68c0 -10 -6 -16 -16 -16h-46c-10 0 -16 6 -16 16v68c0 10 6 16 16 16h46c10 0 16 -6 16 -16zM896 727h57c12 0 17 -7 14 -18l-197 -695
c-3 -10 -9 -14 -18 -14h-74c-9 0 -15 4 -18 14l-162 585h-8l-161 -585c-3 -10 -9 -14 -18 -14h-74c-9 0 -15 4 -18 14l-198 695c-3 11 2 18 14 18h57c9 0 15 -4 18 -14l162 -567h8l159 567c3 10 9 14 18 14h74c9 0 15 -4 18 -14l159 -567h9l161 567c3 10 9 14 18 14z" />
    <glyph glyph-name="Wgrave" unicode="&#x1e80;" horiz-adv-x="988" 
d="M521 814h-22c-8 0 -14 3 -20 9l-96 118c-9 11 -4 20 9 20h51c9 0 15 -3 19 -11l70 -117c6 -11 1 -19 -11 -19zM896 727h57c12 0 17 -7 14 -18l-197 -695c-3 -10 -9 -14 -18 -14h-74c-9 0 -15 4 -18 14l-162 585h-8l-161 -585c-3 -10 -9 -14 -18 -14h-74
c-9 0 -15 4 -18 14l-198 695c-3 11 2 18 14 18h57c9 0 15 -4 18 -14l162 -567h8l159 567c3 10 9 14 18 14h74c9 0 15 -4 18 -14l159 -567h9l161 567c3 10 9 14 18 14z" />
    <glyph glyph-name="X" unicode="X" horiz-adv-x="714" 
d="M643 0h-71c-8 0 -14 3 -19 10l-198 297l-198 -297c-5 -7 -11 -10 -19 -10h-68c-14 0 -18 9 -11 19l248 358l-221 331c-7 11 -3 19 10 19h61c8 0 14 -3 19 -10l191 -279l191 279c5 7 11 10 19 10h57c13 0 17 -9 10 -19l-230 -338l240 -351c7 -10 3 -19 -11 -19z" />
    <glyph glyph-name="Y" unicode="Y" horiz-adv-x="598" 
d="M345 306l2 -290c0 -10 -6 -16 -16 -16h-61c-10 0 -16 6 -16 16l2 290l-232 402c-6 11 -2 19 11 19h62c9 0 15 -3 19 -11l182 -316h6l183 316c4 8 10 11 19 11h57c13 0 17 -8 11 -19z" />
    <glyph glyph-name="Yacute" unicode="&#xdd;" horiz-adv-x="598" 
d="M419 941l-96 -118c-6 -6 -12 -9 -20 -9h-22c-13 0 -17 8 -11 19l70 117c4 8 10 11 19 11h51c13 0 18 -9 9 -20zM345 306l2 -290c0 -10 -6 -16 -16 -16h-61c-10 0 -16 6 -16 16l2 290l-232 402c-6 11 -2 19 11 19h62c9 0 15 -3 19 -11l182 -316h6l183 316c4 8 10 11 19 11
h57c13 0 17 -8 11 -19z" />
    <glyph glyph-name="Ycircumflex" unicode="&#x176;" horiz-adv-x="598" 
d="M294 907l-59 -83c-5 -7 -11 -10 -19 -10h-42c-14 0 -18 9 -10 20l97 116c6 6 12 9 20 9h36c8 0 14 -3 20 -9l98 -116c8 -11 4 -20 -10 -20h-43c-8 0 -14 3 -19 10l-61 83h-8zM345 306l2 -290c0 -10 -6 -16 -16 -16h-61c-10 0 -16 6 -16 16l2 290l-232 402
c-6 11 -2 19 11 19h62c9 0 15 -3 19 -11l182 -316h6l183 316c4 8 10 11 19 11h57c13 0 17 -8 11 -19z" />
    <glyph glyph-name="Ydieresis" unicode="&#x178;" horiz-adv-x="598" 
d="M270 932v-68c0 -10 -6 -16 -16 -16h-46c-10 0 -16 6 -16 16v68c0 10 6 16 16 16h46c10 0 16 -6 16 -16zM415 932v-68c0 -10 -6 -16 -16 -16h-46c-10 0 -16 6 -16 16v68c0 10 6 16 16 16h46c10 0 16 -6 16 -16zM345 306l2 -290c0 -10 -6 -16 -16 -16h-61
c-10 0 -16 6 -16 16l2 290l-232 402c-6 11 -2 19 11 19h62c9 0 15 -3 19 -11l182 -316h6l183 316c4 8 10 11 19 11h57c13 0 17 -8 11 -19z" />
    <glyph glyph-name="Ydotbelow" unicode="&#x1ef4;" horiz-adv-x="598" 
d="M345 306l2 -290c0 -10 -6 -16 -16 -16h-61c-10 0 -16 6 -16 16l2 290l-232 402c-6 11 -2 19 11 19h62c9 0 15 -3 19 -11l182 -316h6l183 316c4 8 10 11 19 11h57c13 0 17 -8 11 -19zM256 -170v72c0 10 6 16 16 16h57c10 0 16 -6 16 -16v-72c0 -10 -6 -16 -16 -16h-57
c-10 0 -16 6 -16 16z" />
    <glyph glyph-name="Ygrave" unicode="&#x1ef2;" horiz-adv-x="598" 
d="M325 814h-22c-8 0 -14 3 -20 9l-96 118c-9 11 -4 20 9 20h51c9 0 15 -3 19 -11l70 -117c6 -11 1 -19 -11 -19zM345 306l2 -290c0 -10 -6 -16 -16 -16h-61c-10 0 -16 6 -16 16l2 290l-232 402c-6 11 -2 19 11 19h62c9 0 15 -3 19 -11l182 -316h6l183 316c4 8 10 11 19 11
h57c13 0 17 -8 11 -19z" />
    <glyph glyph-name="Ytilde" unicode="&#x1ef8;" horiz-adv-x="598" 
d="M250 881c-19 0 -27 -16 -29 -34c-1 -11 -6 -16 -17 -16h-22c-10 0 -16 6 -15 16c3 50 25 92 82 92c63 0 81 -66 115 -66c18 0 24 15 26 34c1 11 6 16 17 16h21c10 0 16 -6 15 -16c-3 -47 -24 -92 -79 -92c-59 0 -74 66 -114 66zM345 306l2 -290c0 -10 -6 -16 -16 -16h-61
c-10 0 -16 6 -16 16l2 290l-232 402c-6 11 -2 19 11 19h62c9 0 15 -3 19 -11l182 -316h6l183 316c4 8 10 11 19 11h57c13 0 17 -8 11 -19z" />
    <glyph glyph-name="Z" unicode="Z" horiz-adv-x="655" 
d="M167 81h411c10 0 16 -6 16 -16v-49c0 -10 -6 -16 -16 -16h-512c-10 0 -16 6 -16 16v40c0 8 2 15 10 25l409 559v7h-384c-10 0 -16 6 -16 16v48c0 10 6 16 16 16h484c10 0 16 -6 16 -16v-38c0 -9 -1 -16 -9 -26l-409 -561v-5z" />
    <glyph glyph-name="Zacute" unicode="&#x179;" horiz-adv-x="655" 
d="M440 936l-96 -118c-6 -6 -12 -9 -20 -9h-22c-13 0 -17 8 -11 19l70 117c4 8 10 11 19 11h51c13 0 18 -9 9 -20zM167 81h411c10 0 16 -6 16 -16v-49c0 -10 -6 -16 -16 -16h-512c-10 0 -16 6 -16 16v40c0 8 2 15 10 25l409 559v7h-384c-10 0 -16 6 -16 16v48
c0 10 6 16 16 16h484c10 0 16 -6 16 -16v-38c0 -9 -1 -16 -9 -26l-409 -561v-5z" />
    <glyph glyph-name="Zacute.loclPLK" horiz-adv-x="655" 
d="M397 954l-46 -124c-3 -9 -9 -13 -19 -13h-22c-11 0 -17 7 -14 18l28 123c2 9 8 14 17 14h43c12 0 17 -7 13 -18zM167 81h411c10 0 16 -6 16 -16v-49c0 -10 -6 -16 -16 -16h-512c-10 0 -16 6 -16 16v40c0 8 2 15 10 25l409 559v7h-384c-10 0 -16 6 -16 16v48
c0 10 6 16 16 16h484c10 0 16 -6 16 -16v-38c0 -9 -1 -16 -9 -26l-409 -561v-5z" />
    <glyph glyph-name="Zcaron" unicode="&#x17d;" horiz-adv-x="655" 
d="M337 809h-36c-8 0 -14 3 -20 9l-98 116c-8 11 -4 20 10 20h43c8 0 14 -3 19 -10l61 -83h8l59 83c5 7 11 10 19 10h42c14 0 18 -9 10 -20l-97 -116c-6 -6 -12 -9 -20 -9zM167 81h411c10 0 16 -6 16 -16v-49c0 -10 -6 -16 -16 -16h-512c-10 0 -16 6 -16 16v40
c0 8 2 15 10 25l409 559v7h-384c-10 0 -16 6 -16 16v48c0 10 6 16 16 16h484c10 0 16 -6 16 -16v-38c0 -9 -1 -16 -9 -26l-409 -561v-5z" />
    <glyph glyph-name="Zdotaccent" unicode="&#x17b;" horiz-adv-x="655" 
d="M363 926v-68c0 -10 -6 -16 -16 -16h-53c-10 0 -16 6 -16 16v68c0 10 6 16 16 16h53c10 0 16 -6 16 -16zM167 81h411c10 0 16 -6 16 -16v-49c0 -10 -6 -16 -16 -16h-512c-10 0 -16 6 -16 16v40c0 8 2 15 10 25l409 559v7h-384c-10 0 -16 6 -16 16v48c0 10 6 16 16 16h484
c10 0 16 -6 16 -16v-38c0 -9 -1 -16 -9 -26l-409 -561v-5z" />
    <glyph glyph-name="Zdotbelow" unicode="&#x1e92;" horiz-adv-x="655" 
d="M167 81h411c10 0 16 -6 16 -16v-49c0 -10 -6 -16 -16 -16h-512c-10 0 -16 6 -16 16v40c0 8 2 15 10 25l409 559v7h-384c-10 0 -16 6 -16 16v48c0 10 6 16 16 16h484c10 0 16 -6 16 -16v-38c0 -9 -1 -16 -9 -26l-409 -561v-5zM278 -170v72c0 10 6 16 16 16h57
c10 0 16 -6 16 -16v-72c0 -10 -6 -16 -16 -16h-57c-10 0 -16 6 -16 16z" />
    <glyph glyph-name="a" unicode="a" horiz-adv-x="561" 
d="M283 543c125 0 200 -68 200 -181l3 -346c0 -10 -6 -16 -16 -16h-57c-10 0 -16 6 -16 16l1 68h-7c-36 -55 -101 -93 -184 -93c-95 0 -162 51 -162 147c0 109 83 159 279 178c50 5 74 20 74 59c0 54 -43 93 -121 93c-63 0 -105 -28 -121 -75c-3 -9 -9 -13 -18 -13h-52
c-11 0 -17 6 -15 15c23 89 96 148 212 148zM397 265l-4 2c-17 -8 -42 -15 -77 -18c-123 -14 -185 -43 -185 -105c0 -50 36 -77 95 -77c99 0 166 70 172 128z" />
    <glyph glyph-name="aacute" unicode="&#xe1;" horiz-adv-x="561" 
d="M397 740l-96 -118c-6 -6 -12 -9 -20 -9h-22c-13 0 -17 8 -11 19l70 117c4 8 10 11 19 11h51c13 0 18 -9 9 -20zM283 543c125 0 200 -68 200 -181l3 -346c0 -10 -6 -16 -16 -16h-57c-10 0 -16 6 -16 16l1 68h-7c-36 -55 -101 -93 -184 -93c-95 0 -162 51 -162 147
c0 109 83 159 279 178c50 5 74 20 74 59c0 54 -43 93 -121 93c-63 0 -105 -28 -121 -75c-3 -9 -9 -13 -18 -13h-52c-11 0 -17 6 -15 15c23 89 96 148 212 148zM397 265l-4 2c-17 -8 -42 -15 -77 -18c-123 -14 -185 -43 -185 -105c0 -50 36 -77 95 -77c99 0 166 70 172 128z
" />
    <glyph glyph-name="abreve" unicode="&#x103;" horiz-adv-x="561" 
d="M408 723c0 -87 -56 -127 -132 -127c-75 0 -130 40 -130 127c0 10 6 15 16 15h32c10 0 16 -5 16 -15c0 -49 29 -70 66 -70c38 0 67 21 67 70c0 10 6 15 16 15h33c10 0 16 -5 16 -15zM283 543c125 0 200 -68 200 -181l3 -346c0 -10 -6 -16 -16 -16h-57c-10 0 -16 6 -16 16
l1 68h-7c-36 -55 -101 -93 -184 -93c-95 0 -162 51 -162 147c0 109 83 159 279 178c50 5 74 20 74 59c0 54 -43 93 -121 93c-63 0 -105 -28 -121 -75c-3 -9 -9 -13 -18 -13h-52c-11 0 -17 6 -15 15c23 89 96 148 212 148zM397 265l-4 2c-17 -8 -42 -15 -77 -18
c-123 -14 -185 -43 -185 -105c0 -50 36 -77 95 -77c99 0 166 70 172 128z" />
    <glyph glyph-name="acaron" unicode="&#x1ce;" horiz-adv-x="561" 
d="M151 758h43c8 0 14 -3 19 -10l61 -83h8l59 83c5 7 11 10 19 10h42c14 0 18 -9 10 -20l-97 -116c-6 -6 -12 -9 -20 -9h-36c-8 0 -14 3 -20 9l-98 116c-8 11 -4 20 10 20zM283 543c125 0 200 -68 200 -181l3 -346c0 -10 -6 -16 -16 -16h-57c-10 0 -16 6 -16 16l1 68h-7
c-36 -55 -101 -93 -184 -93c-95 0 -162 51 -162 147c0 109 83 159 279 178c50 5 74 20 74 59c0 54 -43 93 -121 93c-63 0 -105 -28 -121 -75c-3 -9 -9 -13 -18 -13h-52c-11 0 -17 6 -15 15c23 89 96 148 212 148zM397 265l-4 2c-17 -8 -42 -15 -77 -18
c-123 -14 -185 -43 -185 -105c0 -50 36 -77 95 -77c99 0 166 70 172 128z" />
    <glyph glyph-name="acircumflex" unicode="&#xe2;" horiz-adv-x="561" 
d="M404 613h-43c-8 0 -14 3 -19 10l-61 83h-8l-59 -83c-5 -7 -11 -10 -19 -10h-42c-14 0 -18 9 -10 20l97 116c6 6 12 9 20 9h36c8 0 14 -3 20 -9l98 -116c8 -11 4 -20 -10 -20zM283 543c125 0 200 -68 200 -181l3 -346c0 -10 -6 -16 -16 -16h-57c-10 0 -16 6 -16 16l1 68
h-7c-36 -55 -101 -93 -184 -93c-95 0 -162 51 -162 147c0 109 83 159 279 178c50 5 74 20 74 59c0 54 -43 93 -121 93c-63 0 -105 -28 -121 -75c-3 -9 -9 -13 -18 -13h-52c-11 0 -17 6 -15 15c23 89 96 148 212 148zM397 265l-4 2c-17 -8 -42 -15 -77 -18
c-123 -14 -185 -43 -185 -105c0 -50 36 -77 95 -77c99 0 166 70 172 128z" />
    <glyph glyph-name="adieresis" unicode="&#xe4;" horiz-adv-x="561" 
d="M249 731v-68c0 -10 -6 -16 -16 -16h-46c-10 0 -16 6 -16 16v68c0 10 6 16 16 16h46c10 0 16 -6 16 -16zM394 731v-68c0 -10 -6 -16 -16 -16h-46c-10 0 -16 6 -16 16v68c0 10 6 16 16 16h46c10 0 16 -6 16 -16zM283 543c125 0 200 -68 200 -181l3 -346
c0 -10 -6 -16 -16 -16h-57c-10 0 -16 6 -16 16l1 68h-7c-36 -55 -101 -93 -184 -93c-95 0 -162 51 -162 147c0 109 83 159 279 178c50 5 74 20 74 59c0 54 -43 93 -121 93c-63 0 -105 -28 -121 -75c-3 -9 -9 -13 -18 -13h-52c-11 0 -17 6 -15 15c23 89 96 148 212 148z
M397 265l-4 2c-17 -8 -42 -15 -77 -18c-123 -14 -185 -43 -185 -105c0 -50 36 -77 95 -77c99 0 166 70 172 128z" />
    <glyph glyph-name="adotbelow" unicode="&#x1ea1;" horiz-adv-x="561" 
d="M283 543c125 0 200 -68 200 -181l3 -346c0 -10 -6 -16 -16 -16h-57c-10 0 -16 6 -16 16l1 68h-7c-36 -55 -101 -93 -184 -93c-95 0 -162 51 -162 147c0 109 83 159 279 178c50 5 74 20 74 59c0 54 -43 93 -121 93c-63 0 -105 -28 -121 -75c-3 -9 -9 -13 -18 -13h-52
c-11 0 -17 6 -15 15c23 89 96 148 212 148zM397 265l-4 2c-17 -8 -42 -15 -77 -18c-123 -14 -185 -43 -185 -105c0 -50 36 -77 95 -77c99 0 166 70 172 128zM331 -98v-72c0 -10 -6 -16 -16 -16h-57c-10 0 -16 6 -16 16v72c0 10 6 16 16 16h57c10 0 16 -6 16 -16z" />
    <glyph glyph-name="agrave" unicode="&#xe0;" horiz-adv-x="561" 
d="M175 760h51c9 0 15 -3 19 -11l70 -117c6 -11 1 -19 -11 -19h-22c-8 0 -14 3 -20 9l-96 118c-9 11 -4 20 9 20zM283 543c125 0 200 -68 200 -181l3 -346c0 -10 -6 -16 -16 -16h-57c-10 0 -16 6 -16 16l1 68h-7c-36 -55 -101 -93 -184 -93c-95 0 -162 51 -162 147
c0 109 83 159 279 178c50 5 74 20 74 59c0 54 -43 93 -121 93c-63 0 -105 -28 -121 -75c-3 -9 -9 -13 -18 -13h-52c-11 0 -17 6 -15 15c23 89 96 148 212 148zM397 265l-4 2c-17 -8 -42 -15 -77 -18c-123 -14 -185 -43 -185 -105c0 -50 36 -77 95 -77c99 0 166 70 172 128z
" />
    <glyph glyph-name="amacron" unicode="&#x101;" horiz-adv-x="561" 
d="M392 708v-34c0 -10 -6 -16 -16 -16h-196c-10 0 -16 6 -16 16v34c0 10 6 16 16 16h196c10 0 16 -6 16 -16zM283 543c125 0 200 -68 200 -181l3 -346c0 -10 -6 -16 -16 -16h-57c-10 0 -16 6 -16 16l1 68h-7c-36 -55 -101 -93 -184 -93c-95 0 -162 51 -162 147
c0 109 83 159 279 178c50 5 74 20 74 59c0 54 -43 93 -121 93c-63 0 -105 -28 -121 -75c-3 -9 -9 -13 -18 -13h-52c-11 0 -17 6 -15 15c23 89 96 148 212 148zM397 265l-4 2c-17 -8 -42 -15 -77 -18c-123 -14 -185 -43 -185 -105c0 -50 36 -77 95 -77c99 0 166 70 172 128z
" />
    <glyph glyph-name="aogonek" unicode="&#x105;" horiz-adv-x="561" 
d="M481 0c-76 -42 -119 -84 -119 -121c0 -25 18 -40 56 -40c12 0 27 1 43 4c11 1 17 -4 17 -15v-30c0 -9 -4 -15 -14 -18c-16 -3 -34 -5 -50 -5c-73 0 -115 40 -115 101c0 54 35 103 98 148l1 60h-7c-36 -55 -101 -93 -184 -93c-95 0 -162 51 -162 147c0 109 83 159 279 178
c50 5 74 20 74 59c0 54 -43 93 -121 93c-63 0 -105 -28 -121 -75c-3 -9 -9 -13 -18 -13h-52c-11 0 -17 7 -14 18c23 87 97 145 211 145c125 0 200 -68 200 -181l3 -346c0 -10 -2 -16 -5 -16zM226 67c99 0 166 70 172 128l-1 70l-4 2c-17 -8 -42 -15 -77 -18
c-123 -14 -185 -43 -185 -105c0 -50 36 -77 95 -77z" />
    <glyph glyph-name="aring" unicode="&#xe5;" horiz-adv-x="561" 
d="M277 769c51 0 91 -36 91 -91c0 -54 -40 -90 -91 -90c-50 0 -90 36 -90 90c0 55 40 91 90 91zM277 723c-24 0 -44 -17 -44 -45c0 -26 20 -44 44 -44c25 0 45 18 45 44c0 28 -20 45 -45 45zM283 543c125 0 200 -68 200 -181l3 -346c0 -10 -6 -16 -16 -16h-57
c-10 0 -16 6 -16 16l1 68h-7c-36 -55 -101 -93 -184 -93c-95 0 -162 51 -162 147c0 109 83 159 279 178c50 5 74 20 74 59c0 54 -43 93 -121 93c-63 0 -105 -28 -121 -75c-3 -9 -9 -13 -18 -13h-52c-11 0 -17 6 -15 15c23 89 96 148 212 148zM397 265l-4 2
c-17 -8 -42 -15 -77 -18c-123 -14 -185 -43 -185 -105c0 -50 36 -77 95 -77c99 0 166 70 172 128z" />
    <glyph glyph-name="atilde" unicode="&#xe3;" horiz-adv-x="561" 
d="M227 738c63 0 81 -66 115 -66c18 0 24 15 26 34c1 11 6 16 17 16h21c10 0 16 -6 15 -16c-3 -47 -24 -92 -79 -92c-59 0 -74 66 -114 66c-19 0 -27 -16 -29 -34c-1 -11 -6 -16 -17 -16h-22c-10 0 -16 6 -15 16c3 50 25 92 82 92zM283 543c125 0 200 -68 200 -181l3 -346
c0 -10 -6 -16 -16 -16h-57c-10 0 -16 6 -16 16l1 68h-7c-36 -55 -101 -93 -184 -93c-95 0 -162 51 -162 147c0 109 83 159 279 178c50 5 74 20 74 59c0 54 -43 93 -121 93c-63 0 -105 -28 -121 -75c-3 -9 -9 -13 -18 -13h-52c-11 0 -17 6 -15 15c23 89 96 148 212 148z
M397 265l-4 2c-17 -8 -42 -15 -77 -18c-123 -14 -185 -43 -185 -105c0 -50 36 -77 95 -77c99 0 166 70 172 128z" />
    <glyph glyph-name="ae" unicode="&#xe6;" horiz-adv-x="917" 
d="M641 542c141 0 222 -110 221 -253c0 -7 0 -14 -1 -21c0 -10 -6 -15 -16 -15h-359c1 -117 66 -188 157 -188c59 0 93 23 122 71c4 8 10 11 19 11h51c12 0 17 -8 13 -19c-40 -91 -114 -141 -212 -141c-90 0 -164 48 -204 128h-5c-37 -75 -121 -123 -220 -123
c-95 0 -162 50 -163 146c0 125 114 171 327 184l26 2v51c0 54 -42 93 -120 93c-63 0 -105 -28 -122 -75c-3 -9 -9 -13 -18 -13h-51c-11 0 -17 7 -14 18c23 87 96 145 210 145c85 0 148 -32 179 -87c43 54 106 86 180 86zM491 322h281c0 78 -53 143 -138 143
c-80 0 -129 -63 -143 -143zM398 258l-24 -2c-169 -10 -243 -42 -243 -112c0 -49 35 -76 95 -76c98 0 171 81 171 169z" />
    <glyph glyph-name="b" unicode="b" horiz-adv-x="608" 
d="M162 478h6c37 44 87 65 149 65c147 0 247 -113 247 -283c0 -159 -90 -273 -223 -273c-67 0 -132 29 -171 88h-6v-59c0 -10 -6 -16 -16 -16h-58c-10 0 -16 6 -16 16l4 714c0 10 6 16 16 16h51c10 0 16 -6 16 -16zM318 466c-82 0 -149 -60 -159 -168v-67
c9 -112 78 -166 160 -166c100 0 157 77 157 196c0 131 -65 205 -158 205z" />
    <glyph glyph-name="bdotbelow" unicode="&#x1e05;" horiz-adv-x="608" 
d="M162 478h6c37 44 87 65 149 65c147 0 247 -113 247 -283c0 -159 -90 -273 -223 -273c-67 0 -132 29 -171 88h-6v-59c0 -10 -6 -16 -16 -16h-58c-10 0 -16 6 -16 16l4 714c0 10 6 16 16 16h51c10 0 16 -6 16 -16zM318 466c-82 0 -149 -60 -159 -168v-67
c9 -112 78 -166 160 -166c100 0 157 77 157 196c0 131 -65 205 -158 205zM362 -98v-72c0 -10 -6 -16 -16 -16h-57c-10 0 -16 6 -16 16v72c0 10 6 16 16 16h57c10 0 16 -6 16 -16z" />
    <glyph glyph-name="c" unicode="c" horiz-adv-x="532" 
d="M288 543c117 0 194 -73 218 -153c3 -11 -3 -18 -14 -18h-52c-9 0 -14 4 -19 12c-25 52 -67 81 -132 81c-98 0 -158 -68 -158 -203c0 -130 60 -196 161 -196c68 0 105 29 126 72c5 8 10 12 19 12h52c11 0 17 -7 13 -18c-28 -75 -101 -145 -217 -145
c-147 0 -241 110 -241 272c0 173 98 284 244 284z" />
    <glyph glyph-name="cacute" unicode="&#x107;" horiz-adv-x="532" 
d="M399 740l-96 -118c-6 -6 -12 -9 -20 -9h-22c-13 0 -17 8 -11 19l70 117c4 8 10 11 19 11h51c13 0 18 -9 9 -20zM288 543c117 0 194 -73 218 -153c3 -11 -3 -18 -14 -18h-52c-9 0 -14 4 -19 12c-25 52 -67 81 -132 81c-98 0 -158 -68 -158 -203c0 -130 60 -196 161 -196
c68 0 105 29 126 72c5 8 10 12 19 12h52c11 0 17 -7 13 -18c-28 -75 -101 -145 -217 -145c-147 0 -241 110 -241 272c0 173 98 284 244 284z" />
    <glyph glyph-name="cacute.loclPLK" horiz-adv-x="532" 
d="M357 758l-46 -124c-3 -9 -9 -13 -19 -13h-22c-11 0 -17 7 -14 18l28 123c2 9 8 14 17 14h43c12 0 17 -7 13 -18zM288 543c117 0 194 -73 218 -153c3 -11 -3 -18 -14 -18h-52c-9 0 -14 4 -19 12c-25 52 -67 81 -132 81c-98 0 -158 -68 -158 -203c0 -130 60 -196 161 -196
c68 0 105 29 126 72c5 8 10 12 19 12h52c11 0 17 -7 13 -18c-28 -75 -101 -145 -217 -145c-147 0 -241 110 -241 272c0 173 98 284 244 284z" />
    <glyph glyph-name="ccaron" unicode="&#x10d;" horiz-adv-x="532" 
d="M153 758h43c8 0 14 -3 19 -10l61 -83h8l59 83c5 7 11 10 19 10h42c14 0 18 -9 10 -20l-97 -116c-6 -6 -12 -9 -20 -9h-36c-8 0 -14 3 -20 9l-98 116c-8 11 -4 20 10 20zM288 543c117 0 194 -73 218 -153c3 -11 -3 -18 -14 -18h-52c-9 0 -14 4 -19 12
c-25 52 -67 81 -132 81c-98 0 -158 -68 -158 -203c0 -130 60 -196 161 -196c68 0 105 29 126 72c5 8 10 12 19 12h52c11 0 17 -7 13 -18c-28 -75 -101 -145 -217 -145c-147 0 -241 110 -241 272c0 173 98 284 244 284z" />
    <glyph glyph-name="ccedilla" unicode="&#xe7;" horiz-adv-x="532" 
d="M292 66c68 0 105 29 126 72c5 8 10 12 19 12h52c11 0 17 -7 13 -18c-27 -71 -94 -138 -200 -144l-15 -49c44 -8 78 -36 78 -85c0 -50 -35 -90 -102 -90c-22 0 -42 4 -64 15c-9 4 -12 12 -9 21l5 16c3 10 10 13 21 9c17 -7 33 -11 47 -11c26 0 46 17 46 37
c0 24 -19 44 -67 45h-3c-12 0 -17 7 -14 18l23 75c-126 18 -204 122 -204 270c0 173 98 284 244 284c117 0 194 -73 218 -153c3 -11 -3 -18 -14 -18h-52c-9 0 -14 4 -19 12c-25 52 -67 81 -132 81c-98 0 -158 -68 -158 -203c0 -130 60 -196 161 -196z" />
    <glyph glyph-name="cdotaccent" unicode="&#x10b;" horiz-adv-x="532" 
d="M323 730v-68c0 -10 -6 -16 -16 -16h-53c-10 0 -16 6 -16 16v68c0 10 6 16 16 16h53c10 0 16 -6 16 -16zM288 543c117 0 194 -73 218 -153c3 -11 -3 -18 -14 -18h-52c-9 0 -14 4 -19 12c-25 52 -67 81 -132 81c-98 0 -158 -68 -158 -203c0 -130 60 -196 161 -196
c68 0 105 29 126 72c5 8 10 12 19 12h52c11 0 17 -7 13 -18c-28 -75 -101 -145 -217 -145c-147 0 -241 110 -241 272c0 173 98 284 244 284z" />
    <glyph glyph-name="d" unicode="d" horiz-adv-x="607" 
d="M530 730l3 -714c0 -10 -6 -16 -16 -16h-60c-10 0 -16 6 -16 16v59h-6c-36 -59 -101 -88 -168 -88c-133 0 -223 114 -223 273c0 170 101 283 247 283c62 0 111 -23 148 -65h5v252c0 10 6 16 16 16h54c10 0 16 -6 16 -16zM289 466c-99 0 -158 -77 -158 -199
c0 -127 65 -201 159 -201c81 0 150 59 158 168v67c-10 111 -77 165 -159 165z" />
    <glyph glyph-name="eth" unicode="&#xf0;" horiz-adv-x="600" 
d="M433 694l-53 -28c99 -91 151 -222 151 -379c0 -193 -97 -300 -244 -300c-152 0 -243 114 -243 273c0 170 102 283 233 283c61 0 106 -26 133 -60l5 3c-24 58 -57 105 -105 143l-83 -44c-9 -4 -17 -2 -22 7l-8 16c-5 9 -3 17 6 22l61 32c-17 10 -35 19 -54 28
c-10 5 -13 12 -7 22l22 34c5 8 13 10 22 6c33 -14 63 -31 91 -51l71 38c9 4 17 2 22 -7l9 -17c4 -9 2 -17 -7 -21zM289 66c90 0 158 73 158 201c0 129 -70 199 -158 199c-91 0 -158 -71 -158 -199c0 -127 67 -201 158 -201z" />
    <glyph glyph-name="dcaron" unicode="&#x10f;" horiz-adv-x="607" 
d="M530 730l3 -714c0 -10 -6 -16 -16 -16h-60c-10 0 -16 6 -16 16v59h-6c-36 -59 -101 -88 -168 -88c-133 0 -223 114 -223 273c0 170 101 283 247 283c62 0 111 -23 148 -65h5v252c0 10 6 16 16 16h54c10 0 16 -6 16 -16zM673 729l-23 -139c-1 -10 -7 -15 -17 -15h-24
c-11 0 -16 6 -15 17l14 139c0 10 6 15 16 15h35c11 0 16 -6 14 -17zM289 466c-99 0 -158 -77 -158 -199c0 -127 65 -201 159 -201c81 0 150 59 158 168v67c-10 111 -77 165 -159 165z" />
    <glyph glyph-name="dcroat" unicode="&#x111;" horiz-adv-x="607" 
d="M622 683v-29c0 -10 -6 -16 -16 -16h-76l3 -622c0 -10 -6 -16 -16 -16h-60c-10 0 -16 6 -16 16v59h-6c-36 -59 -101 -88 -168 -88c-133 0 -223 114 -223 273c0 170 101 283 247 283c62 0 111 -23 148 -65h5v160h-146c-10 0 -16 6 -16 16v29c0 10 6 16 16 16h146v31
c0 10 6 16 16 16h54c10 0 16 -6 16 -16v-31h76c10 0 16 -6 16 -16zM448 234v67c-10 111 -77 165 -159 165c-99 0 -158 -77 -158 -199c0 -127 65 -201 159 -201c81 0 150 59 158 168z" />
    <glyph glyph-name="ddotbelow" unicode="&#x1e0d;" horiz-adv-x="607" 
d="M530 730l3 -714c0 -10 -6 -16 -16 -16h-60c-10 0 -16 6 -16 16v59h-6c-36 -59 -101 -88 -168 -88c-133 0 -223 114 -223 273c0 170 101 283 247 283c62 0 111 -23 148 -65h5v252c0 10 6 16 16 16h54c10 0 16 -6 16 -16zM289 466c-99 0 -158 -77 -158 -199
c0 -127 65 -201 159 -201c81 0 150 59 158 168v67c-10 111 -77 165 -159 165zM338 -98v-72c0 -10 -6 -16 -16 -16h-57c-10 0 -16 6 -16 16v72c0 10 6 16 16 16h57c10 0 16 -6 16 -16z" />
    <glyph glyph-name="e" unicode="e" horiz-adv-x="568" 
d="M296 542c154 0 232 -121 227 -273c-1 -11 -6 -16 -17 -16h-374c1 -117 65 -188 165 -188c59 0 99 23 128 71c4 8 10 11 19 11h51c12 0 17 -8 13 -19c-40 -91 -119 -141 -218 -141c-145 0 -246 111 -246 275c0 167 103 280 252 280zM289 465c-89 0 -138 -63 -152 -143h297
c-3 78 -54 143 -145 143z" />
    <glyph glyph-name="eacute" unicode="&#xe9;" horiz-adv-x="568" 
d="M405 740l-96 -118c-6 -6 -12 -9 -20 -9h-22c-13 0 -17 8 -11 19l70 117c4 8 10 11 19 11h51c13 0 18 -9 9 -20zM296 542c154 0 232 -121 227 -273c-1 -11 -6 -16 -17 -16h-374c1 -117 65 -188 165 -188c59 0 99 23 128 71c4 8 10 11 19 11h51c12 0 17 -8 13 -19
c-40 -91 -119 -141 -218 -141c-145 0 -246 111 -246 275c0 167 103 280 252 280zM289 465c-89 0 -138 -63 -152 -143h297c-3 78 -54 143 -145 143z" />
    <glyph glyph-name="ecaron" unicode="&#x11b;" horiz-adv-x="568" 
d="M158 758h43c8 0 14 -3 19 -10l61 -83h8l59 83c5 7 11 10 19 10h42c14 0 18 -9 10 -20l-97 -116c-6 -6 -12 -9 -20 -9h-36c-8 0 -14 3 -20 9l-98 116c-8 11 -4 20 10 20zM296 542c154 0 232 -121 227 -273c-1 -11 -6 -16 -17 -16h-374c1 -117 65 -188 165 -188
c59 0 99 23 128 71c4 8 10 11 19 11h51c12 0 17 -8 13 -19c-40 -91 -119 -141 -218 -141c-145 0 -246 111 -246 275c0 167 103 280 252 280zM289 465c-89 0 -138 -63 -152 -143h297c-3 78 -54 143 -145 143z" />
    <glyph glyph-name="ecedilla" unicode="&#x229;" horiz-adv-x="568" 
d="M296 542c154 0 232 -121 227 -273c-1 -11 -6 -16 -17 -16h-374c1 -117 65 -188 165 -188c59 0 99 23 128 71c4 8 10 11 19 11h51c12 0 17 -8 13 -19c-38 -85 -109 -134 -199 -140l-15 -49c44 -8 78 -36 78 -85c0 -50 -35 -90 -102 -90c-22 0 -42 4 -64 15
c-9 4 -12 12 -9 21l5 16c3 10 10 13 21 9c17 -7 33 -11 47 -11c26 0 46 17 46 37c0 24 -19 44 -67 45h-3c-12 0 -17 7 -14 18l23 75c-126 17 -211 123 -211 273c0 167 103 280 252 280zM137 322h297c-3 78 -54 143 -145 143c-89 0 -138 -63 -152 -143z" />
    <glyph glyph-name="ecircumflex" unicode="&#xea;" horiz-adv-x="568" 
d="M411 613h-43c-8 0 -14 3 -19 10l-61 83h-8l-59 -83c-5 -7 -11 -10 -19 -10h-42c-14 0 -18 9 -10 20l97 116c6 6 12 9 20 9h36c8 0 14 -3 20 -9l98 -116c8 -11 4 -20 -10 -20zM296 542c154 0 232 -121 227 -273c-1 -11 -6 -16 -17 -16h-374c1 -117 65 -188 165 -188
c59 0 99 23 128 71c4 8 10 11 19 11h51c12 0 17 -8 13 -19c-40 -91 -119 -141 -218 -141c-145 0 -246 111 -246 275c0 167 103 280 252 280zM289 465c-89 0 -138 -63 -152 -143h297c-3 78 -54 143 -145 143z" />
    <glyph glyph-name="edieresis" unicode="&#xeb;" horiz-adv-x="568" 
d="M256 731v-68c0 -10 -6 -16 -16 -16h-46c-10 0 -16 6 -16 16v68c0 10 6 16 16 16h46c10 0 16 -6 16 -16zM401 731v-68c0 -10 -6 -16 -16 -16h-46c-10 0 -16 6 -16 16v68c0 10 6 16 16 16h46c10 0 16 -6 16 -16zM296 542c154 0 232 -121 227 -273c-1 -11 -6 -16 -17 -16
h-374c1 -117 65 -188 165 -188c59 0 99 23 128 71c4 8 10 11 19 11h51c12 0 17 -8 13 -19c-40 -91 -119 -141 -218 -141c-145 0 -246 111 -246 275c0 167 103 280 252 280zM289 465c-89 0 -138 -63 -152 -143h297c-3 78 -54 143 -145 143z" />
    <glyph glyph-name="edotaccent" unicode="&#x117;" horiz-adv-x="568" 
d="M328 730v-68c0 -10 -6 -16 -16 -16h-53c-10 0 -16 6 -16 16v68c0 10 6 16 16 16h53c10 0 16 -6 16 -16zM296 542c154 0 232 -121 227 -273c-1 -11 -6 -16 -17 -16h-374c1 -117 65 -188 165 -188c59 0 99 23 128 71c4 8 10 11 19 11h51c12 0 17 -8 13 -19
c-40 -91 -119 -141 -218 -141c-145 0 -246 111 -246 275c0 167 103 280 252 280zM289 465c-89 0 -138 -63 -152 -143h297c-3 78 -54 143 -145 143z" />
    <glyph glyph-name="edotbelow" unicode="&#x1eb9;" horiz-adv-x="568" 
d="M296 542c154 0 232 -121 227 -273c-1 -11 -6 -16 -17 -16h-374c1 -117 65 -188 165 -188c59 0 99 23 128 71c4 8 10 11 19 11h51c12 0 17 -8 13 -19c-40 -91 -119 -141 -218 -141c-145 0 -246 111 -246 275c0 167 103 280 252 280zM289 465c-89 0 -138 -63 -152 -143h297
c-3 78 -54 143 -145 143zM328 -98v-72c0 -10 -6 -16 -16 -16h-57c-10 0 -16 6 -16 16v72c0 10 6 16 16 16h57c10 0 16 -6 16 -16z" />
    <glyph glyph-name="egrave" unicode="&#xe8;" horiz-adv-x="568" 
d="M182 760h51c9 0 15 -3 19 -11l70 -117c6 -11 1 -19 -11 -19h-22c-8 0 -14 3 -20 9l-96 118c-9 11 -4 20 9 20zM296 542c154 0 232 -121 227 -273c-1 -11 -6 -16 -17 -16h-374c1 -117 65 -188 165 -188c59 0 99 23 128 71c4 8 10 11 19 11h51c12 0 17 -8 13 -19
c-40 -91 -119 -141 -218 -141c-145 0 -246 111 -246 275c0 167 103 280 252 280zM289 465c-89 0 -138 -63 -152 -143h297c-3 78 -54 143 -145 143z" />
    <glyph glyph-name="emacron" unicode="&#x113;" horiz-adv-x="568" 
d="M399 708v-34c0 -10 -6 -16 -16 -16h-196c-10 0 -16 6 -16 16v34c0 10 6 16 16 16h196c10 0 16 -6 16 -16zM296 542c154 0 232 -121 227 -273c-1 -11 -6 -16 -17 -16h-374c1 -117 65 -188 165 -188c59 0 99 23 128 71c4 8 10 11 19 11h51c12 0 17 -8 13 -19
c-40 -91 -119 -141 -218 -141c-145 0 -246 111 -246 275c0 167 103 280 252 280zM289 465c-89 0 -138 -63 -152 -143h297c-3 78 -54 143 -145 143z" />
    <glyph glyph-name="eogonek" unicode="&#x119;" horiz-adv-x="568" 
d="M296 542c154 0 232 -121 227 -273c-1 -11 -6 -16 -17 -16h-374c1 -117 65 -188 165 -188c59 0 99 23 128 71c4 8 10 11 19 11h51c12 0 17 -8 13 -19c-30 -68 -81 -113 -146 -131c-69 -40 -108 -80 -108 -115c0 -25 18 -40 56 -40c12 0 27 1 43 4c11 1 17 -4 17 -15v-30
c0 -9 -4 -15 -14 -18c-16 -3 -34 -5 -50 -5c-73 0 -115 40 -115 101c0 40 19 77 54 112c-120 20 -201 124 -201 271c0 167 103 280 252 280zM137 322h297c-3 78 -54 143 -145 143c-89 0 -138 -63 -152 -143z" />
    <glyph glyph-name="etilde" unicode="&#x1ebd;" horiz-adv-x="568" 
d="M235 738c63 0 81 -66 115 -66c18 0 24 15 26 34c1 11 6 16 17 16h21c10 0 16 -6 15 -16c-3 -47 -24 -92 -79 -92c-59 0 -74 66 -114 66c-19 0 -27 -16 -29 -34c-1 -11 -6 -16 -17 -16h-22c-10 0 -16 6 -15 16c3 50 25 92 82 92zM296 542c154 0 232 -121 227 -273
c-1 -11 -6 -16 -17 -16h-374c1 -117 65 -188 165 -188c59 0 99 23 128 71c4 8 10 11 19 11h51c12 0 17 -8 13 -19c-40 -91 -119 -141 -218 -141c-145 0 -246 111 -246 275c0 167 103 280 252 280zM289 465c-89 0 -138 -63 -152 -143h297c-3 78 -54 143 -145 143z" />
    <glyph glyph-name="f" unicode="f" horiz-adv-x="371" 
d="M348 730v-46c0 -10 -6 -16 -16 -16c-91 -2 -133 -15 -132 -120v-17h127c10 0 16 -6 16 -16v-42c0 -10 -6 -16 -16 -16h-127l3 -441c0 -10 -6 -16 -16 -16h-60c-10 0 -16 6 -16 16l3 441h-68c-10 0 -16 6 -16 16v42c0 10 6 16 16 16h69v11c0 166 92 208 217 205
c11 -1 16 -6 16 -17z" />
    <glyph glyph-name="g" unicode="g" horiz-adv-x="609" 
d="M267 543c69 0 132 -31 170 -90l6 1l1 61c0 10 6 16 16 16h54c10 0 16 -6 16 -16l5 -449c2 -200 -95 -299 -243 -299c-103 0 -175 49 -213 131c-5 11 0 19 12 19h53c9 0 15 -3 20 -11c26 -39 68 -61 128 -61c93 0 151 54 149 194v27h-5c-38 -45 -83 -66 -146 -66
c-145 0 -246 107 -246 272c0 155 90 271 223 271zM290 466c-94 0 -159 -78 -159 -202c0 -118 59 -186 158 -186c82 0 149 48 159 149v67c-8 110 -77 172 -158 172z" />
    <glyph glyph-name="gbreve" unicode="&#x11f;" horiz-adv-x="609" 
d="M432 723c0 -87 -56 -127 -132 -127c-75 0 -130 40 -130 127c0 10 6 15 16 15h32c10 0 16 -5 16 -15c0 -49 29 -70 66 -70c38 0 67 21 67 70c0 10 6 15 16 15h33c10 0 16 -5 16 -15zM267 543c69 0 132 -31 170 -90l6 1l1 61c0 10 6 16 16 16h54c10 0 16 -6 16 -16l5 -449
c2 -200 -95 -299 -243 -299c-103 0 -175 49 -213 131c-5 11 0 19 12 19h53c9 0 15 -3 20 -11c26 -39 68 -61 128 -61c93 0 151 54 149 194v27h-5c-38 -45 -83 -66 -146 -66c-145 0 -246 107 -246 272c0 155 90 271 223 271zM290 466c-94 0 -159 -78 -159 -202
c0 -118 59 -186 158 -186c82 0 149 48 159 149v67c-8 110 -77 172 -158 172z" />
    <glyph glyph-name="gcaron" unicode="&#x1e7;" horiz-adv-x="609" 
d="M174 758h43c8 0 14 -3 19 -10l61 -83h8l59 83c5 7 11 10 19 10h42c14 0 18 -9 10 -20l-97 -116c-6 -6 -12 -9 -20 -9h-36c-8 0 -14 3 -20 9l-98 116c-8 11 -4 20 10 20zM267 543c69 0 132 -31 170 -90l6 1l1 61c0 10 6 16 16 16h54c10 0 16 -6 16 -16l5 -449
c2 -200 -95 -299 -243 -299c-103 0 -175 49 -213 131c-5 11 0 19 12 19h53c9 0 15 -3 20 -11c26 -39 68 -61 128 -61c93 0 151 54 149 194v27h-5c-38 -45 -83 -66 -146 -66c-145 0 -246 107 -246 272c0 155 90 271 223 271zM290 466c-94 0 -159 -78 -159 -202
c0 -118 59 -186 158 -186c82 0 149 48 159 149v67c-8 110 -77 172 -158 172z" />
    <glyph glyph-name="gcommaaccent" unicode="&#x123;" horiz-adv-x="609" 
d="M261 626v36c0 63 19 101 52 128c7 6 14 6 22 2c9 -6 10 -13 2 -22c-23 -28 -28 -59 -7 -78c6 -6 10 -11 10 -19v-47c0 -10 -6 -16 -16 -16h-47c-10 0 -16 6 -16 16zM267 543c69 0 132 -31 170 -90l6 1l1 61c0 10 6 16 16 16h54c10 0 16 -6 16 -16l5 -449
c2 -200 -95 -299 -243 -299c-103 0 -175 49 -213 131c-5 11 0 19 12 19h53c9 0 15 -3 20 -11c26 -39 68 -61 128 -61c93 0 151 54 149 194v27h-5c-38 -45 -83 -66 -146 -66c-145 0 -246 107 -246 272c0 155 90 271 223 271zM290 466c-94 0 -159 -78 -159 -202
c0 -118 59 -186 158 -186c82 0 149 48 159 149v67c-8 110 -77 172 -158 172z" />
    <glyph glyph-name="gdotaccent" unicode="&#x121;" horiz-adv-x="609" 
d="M344 730v-68c0 -10 -6 -16 -16 -16h-53c-10 0 -16 6 -16 16v68c0 10 6 16 16 16h53c10 0 16 -6 16 -16zM267 543c69 0 132 -31 170 -90l6 1l1 61c0 10 6 16 16 16h54c10 0 16 -6 16 -16l5 -449c2 -200 -95 -299 -243 -299c-103 0 -175 49 -213 131c-5 11 0 19 12 19h53
c9 0 15 -3 20 -11c26 -39 68 -61 128 -61c93 0 151 54 149 194v27h-5c-38 -45 -83 -66 -146 -66c-145 0 -246 107 -246 272c0 155 90 271 223 271zM290 466c-94 0 -159 -78 -159 -202c0 -118 59 -186 158 -186c82 0 149 48 159 149v67c-8 110 -77 172 -158 172z" />
    <glyph glyph-name="h" unicode="h" horiz-adv-x="578" 
d="M165 452l7 -1c39 54 93 88 164 88c100 0 165 -68 166 -189l2 -334c0 -10 -6 -16 -16 -16h-60c-10 0 -16 6 -16 16l2 312c0 85 -40 127 -107 127c-74 0 -131 -53 -142 -157l1 -282c0 -10 -6 -16 -16 -16h-60c-10 0 -16 6 -16 16l4 714c0 10 6 16 16 16h53
c10 0 16 -6 16 -16z" />
    <glyph glyph-name="hbar" unicode="&#x127;" horiz-adv-x="578" 
d="M488 0h-60c-10 0 -16 6 -16 16l2 312c0 85 -40 127 -107 127c-74 0 -131 -53 -142 -157l1 -282c0 -10 -6 -16 -16 -16h-60c-10 0 -16 6 -16 16l3 579h-76c-10 0 -16 6 -16 16v24c0 10 6 16 16 16h76l1 79c0 10 6 16 16 16h53c10 0 16 -6 16 -16l1 -79h145
c10 0 16 -6 16 -16v-24c0 -10 -6 -16 -16 -16h-145l1 -143l7 -1c39 54 93 88 164 88c100 0 165 -68 166 -189l2 -334c0 -10 -6 -16 -16 -16z" />
    <glyph glyph-name="i" unicode="i" horiz-adv-x="261" 
d="M174 730v-68c0 -10 -6 -16 -16 -16h-53c-10 0 -16 6 -16 16v68c0 10 6 16 16 16h53c10 0 16 -6 16 -16zM173 515l3 -499c0 -10 -6 -16 -16 -16h-60c-10 0 -16 6 -16 16l4 499c0 10 6 16 16 16h53c10 0 16 -6 16 -16z" />
    <glyph glyph-name="dotlessi" unicode="&#x131;" horiz-adv-x="261" 
d="M173 515l3 -499c0 -10 -6 -16 -16 -16h-60c-10 0 -16 6 -16 16l4 499c0 10 6 16 16 16h53c10 0 16 -6 16 -16z" />
    <glyph glyph-name="iacute" unicode="&#xed;" horiz-adv-x="261" 
d="M251 740l-96 -118c-6 -6 -12 -9 -20 -9h-22c-13 0 -17 8 -11 19l70 117c4 8 10 11 19 11h51c13 0 18 -9 9 -20zM173 515l3 -499c0 -10 -6 -16 -16 -16h-60c-10 0 -16 6 -16 16l4 499c0 10 6 16 16 16h53c10 0 16 -6 16 -16z" />
    <glyph glyph-name="iacute_j.loclNLD" horiz-adv-x="552" 
d="M251 740l-96 -118c-6 -6 -12 -9 -20 -9h-22c-13 0 -17 8 -11 19l70 117c4 8 10 11 19 11h51c13 0 18 -9 9 -20zM529 740l-96 -118c-6 -6 -12 -9 -20 -9h-22c-13 0 -17 8 -11 19l70 117c4 8 10 11 19 11h51c13 0 18 -9 9 -20zM173 515l3 -499c0 -10 -6 -16 -16 -16h-60
c-10 0 -16 6 -16 16l4 499c0 10 6 16 16 16h53c10 0 16 -6 16 -16zM452 515l4 -533c0 -135 -60 -197 -201 -202c-10 0 -16 6 -16 16v46c0 11 6 16 16 17c81 4 108 37 109 118l3 538c0 10 6 16 16 16h53c10 0 16 -6 16 -16z" />
    <glyph glyph-name="icaron" unicode="&#x1d0;" horiz-adv-x="261" 
d="M4 758h43c8 0 14 -3 19 -10l61 -83h8l59 83c5 7 11 10 19 10h42c14 0 18 -9 10 -20l-97 -116c-6 -6 -12 -9 -20 -9h-36c-8 0 -14 3 -20 9l-98 116c-8 11 -4 20 10 20zM173 515l3 -499c0 -10 -6 -16 -16 -16h-60c-10 0 -16 6 -16 16l4 499c0 10 6 16 16 16h53
c10 0 16 -6 16 -16z" />
    <glyph glyph-name="icircumflex" unicode="&#xee;" horiz-adv-x="261" 
d="M257 613h-43c-8 0 -14 3 -19 10l-61 83h-8l-59 -83c-5 -7 -11 -10 -19 -10h-42c-14 0 -18 9 -10 20l97 116c6 6 12 9 20 9h36c8 0 14 -3 20 -9l98 -116c8 -11 4 -20 -10 -20zM173 515l3 -499c0 -10 -6 -16 -16 -16h-60c-10 0 -16 6 -16 16l4 499c0 10 6 16 16 16h53
c10 0 16 -6 16 -16z" />
    <glyph glyph-name="idieresis" unicode="&#xef;" horiz-adv-x="261" 
d="M102 731v-68c0 -10 -6 -16 -16 -16h-46c-10 0 -16 6 -16 16v68c0 10 6 16 16 16h46c10 0 16 -6 16 -16zM247 731v-68c0 -10 -6 -16 -16 -16h-46c-10 0 -16 6 -16 16v68c0 10 6 16 16 16h46c10 0 16 -6 16 -16zM173 515l3 -499c0 -10 -6 -16 -16 -16h-60
c-10 0 -16 6 -16 16l4 499c0 10 6 16 16 16h53c10 0 16 -6 16 -16z" />
    <glyph glyph-name="idotaccent" horiz-adv-x="261" 
d="M174 730v-68c0 -10 -6 -16 -16 -16h-53c-10 0 -16 6 -16 16v68c0 10 6 16 16 16h53c10 0 16 -6 16 -16zM173 515l3 -499c0 -10 -6 -16 -16 -16h-60c-10 0 -16 6 -16 16l4 499c0 10 6 16 16 16h53c10 0 16 -6 16 -16z" />
    <glyph glyph-name="idotbelow" unicode="&#x1ecb;" horiz-adv-x="261" 
d="M174 730v-68c0 -10 -6 -16 -16 -16h-53c-10 0 -16 6 -16 16v68c0 10 6 16 16 16h53c10 0 16 -6 16 -16zM173 515l3 -499c0 -10 -6 -16 -16 -16h-60c-10 0 -16 6 -16 16l4 499c0 10 6 16 16 16h53c10 0 16 -6 16 -16zM175 -98v-72c0 -10 -6 -16 -16 -16h-57
c-10 0 -16 6 -16 16v72c0 10 6 16 16 16h57c10 0 16 -6 16 -16z" />
    <glyph glyph-name="igrave" unicode="&#xec;" horiz-adv-x="261" 
d="M28 760h51c9 0 15 -3 19 -11l70 -117c6 -11 1 -19 -11 -19h-22c-8 0 -14 3 -20 9l-96 118c-9 11 -4 20 9 20zM173 515l3 -499c0 -10 -6 -16 -16 -16h-60c-10 0 -16 6 -16 16l4 499c0 10 6 16 16 16h53c10 0 16 -6 16 -16z" />
    <glyph glyph-name="ij" unicode="&#x133;" horiz-adv-x="552" 
d="M174 730v-68c0 -10 -6 -16 -16 -16h-53c-10 0 -16 6 -16 16v68c0 10 6 16 16 16h53c10 0 16 -6 16 -16zM452 730v-68c0 -10 -6 -16 -16 -16h-53c-10 0 -16 6 -16 16v68c0 10 6 16 16 16h53c10 0 16 -6 16 -16zM173 515l3 -499c0 -10 -6 -16 -16 -16h-60
c-10 0 -16 6 -16 16l4 499c0 10 6 16 16 16h53c10 0 16 -6 16 -16zM452 515l4 -533c0 -135 -60 -197 -201 -202c-10 0 -16 6 -16 16v46c0 11 6 16 16 17c81 4 108 37 109 118l3 538c0 10 6 16 16 16h53c10 0 16 -6 16 -16z" />
    <glyph glyph-name="imacron" unicode="&#x12b;" horiz-adv-x="261" 
d="M245 708v-34c0 -10 -6 -16 -16 -16h-196c-10 0 -16 6 -16 16v34c0 10 6 16 16 16h196c10 0 16 -6 16 -16zM173 515l3 -499c0 -10 -6 -16 -16 -16h-60c-10 0 -16 6 -16 16l4 499c0 10 6 16 16 16h53c10 0 16 -6 16 -16z" />
    <glyph glyph-name="iogonek" unicode="&#x12f;" horiz-adv-x="261" 
d="M174 730v-68c0 -10 -6 -16 -16 -16h-53c-10 0 -16 6 -16 16v68c0 10 6 16 16 16h53c10 0 16 -6 16 -16zM58 -121c0 -25 18 -40 56 -40c12 0 27 1 43 4c11 1 17 -4 17 -15v-30c0 -9 -4 -15 -14 -18c-16 -3 -34 -5 -50 -5c-73 0 -115 40 -115 101c0 51 31 98 89 142l4 497
c0 10 6 16 16 16h53c10 0 16 -6 16 -16l3 -513c1 -1 -10 -7 -28 -19c-58 -36 -90 -72 -90 -104z" />
    <glyph glyph-name="itilde" unicode="&#x129;" horiz-adv-x="261" 
d="M81 738c63 0 81 -66 115 -66c18 0 24 15 26 34c1 11 6 16 17 16h21c10 0 16 -6 15 -16c-3 -47 -24 -92 -79 -92c-59 0 -74 66 -114 66c-19 0 -27 -16 -29 -34c-1 -11 -6 -16 -17 -16h-22c-10 0 -16 6 -15 16c3 50 25 92 82 92zM173 515l3 -499c0 -10 -6 -16 -16 -16h-60
c-10 0 -16 6 -16 16l4 499c0 10 6 16 16 16h53c10 0 16 -6 16 -16z" />
    <glyph glyph-name="j" unicode="j" horiz-adv-x="291" 
d="M191 730v-68c0 -10 -6 -16 -16 -16h-53c-10 0 -16 6 -16 16v68c0 10 6 16 16 16h53c10 0 16 -6 16 -16zM191 515l4 -533c0 -135 -60 -197 -201 -202c-10 0 -16 6 -16 16v46c0 11 6 16 16 17c81 4 108 37 109 118l3 538c0 10 6 16 16 16h53c10 0 16 -6 16 -16z" />
    <glyph glyph-name="dotlessj" unicode="&#x237;" horiz-adv-x="291" 
d="M191 515l4 -533c0 -135 -60 -197 -201 -202c-10 0 -16 6 -16 16v46c0 11 6 16 16 17c81 4 108 37 109 118l3 538c0 10 6 16 16 16h53c10 0 16 -6 16 -16z" />
    <glyph glyph-name="k" unicode="k" horiz-adv-x="566" 
d="M233 262l-68 -64l1 -182c0 -10 -6 -16 -16 -16h-60c-10 0 -16 6 -16 16l4 714c0 10 6 16 16 16h53c10 0 16 -6 16 -16l2 -438l241 231c6 6 11 8 19 8h62c15 0 19 -10 8 -20l-207 -197l219 -294c8 -11 4 -20 -9 -20h-66c-8 0 -14 3 -19 10z" />
    <glyph glyph-name="kcommaaccent" unicode="&#x137;" horiz-adv-x="566" 
d="M288 314l219 -294c8 -11 4 -20 -9 -20h-66c-8 0 -14 3 -19 10l-180 252l-68 -64l1 -182c0 -10 -6 -16 -16 -16h-60c-10 0 -16 6 -16 16l4 714c0 10 6 16 16 16h53c10 0 16 -6 16 -16l2 -438l241 231c6 6 11 8 19 8h62c15 0 19 -10 8 -20zM244 -142v47c0 10 6 16 16 16h47
c10 0 16 -6 16 -16v-36c0 -63 -19 -101 -52 -128c-7 -6 -14 -6 -22 -2c-9 6 -10 13 -2 22c23 28 28 59 7 78c-6 6 -10 11 -10 19z" />
    <glyph glyph-name="l" unicode="l" horiz-adv-x="285" 
d="M185 730l4 -714c0 -10 -6 -16 -16 -16h-60c-10 0 -16 6 -16 16l3 714c0 10 6 16 16 16h53c10 0 16 -6 16 -16z" />
    <glyph glyph-name="lacute" unicode="&#x13a;" horiz-adv-x="285" 
d="M263 944l-96 -118c-6 -6 -12 -9 -20 -9h-22c-13 0 -17 8 -11 19l70 117c4 8 10 11 19 11h51c13 0 18 -9 9 -20zM185 730l4 -714c0 -10 -6 -16 -16 -16h-60c-10 0 -16 6 -16 16l3 714c0 10 6 16 16 16h53c10 0 16 -6 16 -16z" />
    <glyph glyph-name="lcaron" unicode="&#x13e;" horiz-adv-x="285" 
d="M185 730l4 -714c0 -10 -6 -16 -16 -16h-60c-10 0 -16 6 -16 16l3 714c0 10 6 16 16 16h53c10 0 16 -6 16 -16zM318 613l-23 -139c-1 -10 -7 -15 -17 -15h-24c-11 0 -16 6 -15 17l14 139c0 10 6 15 16 15h35c11 0 16 -6 14 -17z" />
    <glyph glyph-name="lcommaaccent" unicode="&#x13c;" horiz-adv-x="285" 
d="M185 730l4 -714c0 -10 -6 -16 -16 -16h-60c-10 0 -16 6 -16 16l3 714c0 10 6 16 16 16h53c10 0 16 -6 16 -16zM183 -95v-36c0 -63 -19 -101 -52 -128c-7 -6 -14 -6 -22 -2c-9 6 -10 13 -2 22c23 28 28 59 7 78c-6 6 -10 11 -10 19v47c0 10 6 16 16 16h47
c10 0 16 -6 16 -16z" />
    <glyph glyph-name="ldot" unicode="&#x140;" horiz-adv-x="285" 
d="M185 730l4 -714c0 -10 -6 -16 -16 -16h-60c-10 0 -16 6 -16 16l3 714c0 10 6 16 16 16h53c10 0 16 -6 16 -16zM329 451v-72c0 -10 -6 -16 -16 -16h-52c-10 0 -16 6 -16 16v72c0 10 6 16 16 16h52c10 0 16 -6 16 -16z" />
    <glyph glyph-name="ldotbelow" unicode="&#x1e37;" horiz-adv-x="285" 
d="M185 730l4 -714c0 -10 -6 -16 -16 -16h-60c-10 0 -16 6 -16 16l3 714c0 10 6 16 16 16h53c10 0 16 -6 16 -16zM187 -98v-72c0 -10 -6 -16 -16 -16h-57c-10 0 -16 6 -16 16v72c0 10 6 16 16 16h57c10 0 16 -6 16 -16z" />
    <glyph glyph-name="lslash" unicode="&#x142;" horiz-adv-x="285" 
d="M291 509v-47c0 -9 -3 -15 -11 -19l-93 -54l2 -373c0 -10 -6 -16 -16 -16h-60c-10 0 -16 6 -16 16l1 322l-83 -48c-11 -6 -19 -2 -19 11v47c0 9 3 15 11 19l92 53l1 310c0 10 6 16 16 16h53c10 0 16 -6 16 -16l1 -259l86 49c11 6 19 2 19 -11z" />
    <glyph glyph-name="m" unicode="m" horiz-adv-x="864" 
d="M635 543c99 0 160 -67 160 -193l2 -334c0 -10 -6 -16 -16 -16h-60c-10 0 -16 6 -16 16l2 312c1 90 -35 131 -97 131c-69 0 -124 -52 -134 -162l1 -281c0 -10 -6 -16 -16 -16h-59c-10 0 -16 6 -16 16l1 312c1 90 -35 131 -97 131c-66 0 -126 -46 -137 -161l2 -282
c0 -10 -6 -16 -16 -16h-60c-10 0 -16 6 -16 16l3 499c0 10 6 16 16 16h54c10 0 16 -6 16 -16v-63h5c40 52 94 91 162 91c66 0 116 -31 139 -100h7c43 61 96 100 170 100z" />
    <glyph glyph-name="macute" unicode="&#x1e3f;" horiz-adv-x="864" 
d="M567 740l-96 -118c-6 -6 -12 -9 -20 -9h-22c-13 0 -17 8 -11 19l70 117c4 8 10 11 19 11h51c13 0 18 -9 9 -20zM635 543c99 0 160 -67 160 -193l2 -334c0 -10 -6 -16 -16 -16h-60c-10 0 -16 6 -16 16l2 312c1 90 -35 131 -97 131c-69 0 -124 -52 -134 -162l1 -281
c0 -10 -6 -16 -16 -16h-59c-10 0 -16 6 -16 16l1 312c1 90 -35 131 -97 131c-66 0 -126 -46 -137 -161l2 -282c0 -10 -6 -16 -16 -16h-60c-10 0 -16 6 -16 16l3 499c0 10 6 16 16 16h54c10 0 16 -6 16 -16v-63h5c40 52 94 91 162 91c66 0 116 -31 139 -100h7
c43 61 96 100 170 100z" />
    <glyph glyph-name="n" unicode="n" horiz-adv-x="581" 
d="M337 543c102 0 170 -69 170 -193v-334c0 -10 -6 -16 -16 -16h-60c-10 0 -16 6 -16 16v312c0 88 -41 131 -108 131c-74 0 -131 -53 -142 -161l1 -282c0 -10 -6 -16 -16 -16h-60c-10 0 -16 6 -16 16l4 499c0 10 6 16 16 16h53c10 0 16 -6 16 -16l1 -63l7 -1
c40 57 94 92 166 92z" />
    <glyph glyph-name="nacute" unicode="&#x144;" horiz-adv-x="581" 
d="M409 740l-96 -118c-6 -6 -12 -9 -20 -9h-22c-13 0 -17 8 -11 19l70 117c4 8 10 11 19 11h51c13 0 18 -9 9 -20zM337 543c102 0 170 -69 170 -193v-334c0 -10 -6 -16 -16 -16h-60c-10 0 -16 6 -16 16v312c0 88 -41 131 -108 131c-74 0 -131 -53 -142 -161l1 -282
c0 -10 -6 -16 -16 -16h-60c-10 0 -16 6 -16 16l4 499c0 10 6 16 16 16h53c10 0 16 -6 16 -16l1 -63l7 -1c40 57 94 92 166 92z" />
    <glyph glyph-name="nacute.loclPLK" horiz-adv-x="581" 
d="M367 758l-46 -124c-3 -9 -9 -13 -19 -13h-22c-11 0 -17 7 -14 18l28 123c2 9 8 14 17 14h43c12 0 17 -7 13 -18zM337 543c102 0 170 -69 170 -193v-334c0 -10 -6 -16 -16 -16h-60c-10 0 -16 6 -16 16v312c0 88 -41 131 -108 131c-74 0 -131 -53 -142 -161l1 -282
c0 -10 -6 -16 -16 -16h-60c-10 0 -16 6 -16 16l4 499c0 10 6 16 16 16h53c10 0 16 -6 16 -16l1 -63l7 -1c40 57 94 92 166 92z" />
    <glyph glyph-name="ncaron" unicode="&#x148;" horiz-adv-x="581" 
d="M162 758h43c8 0 14 -3 19 -10l61 -83h8l59 83c5 7 11 10 19 10h42c14 0 18 -9 10 -20l-97 -116c-6 -6 -12 -9 -20 -9h-36c-8 0 -14 3 -20 9l-98 116c-8 11 -4 20 10 20zM337 543c102 0 170 -69 170 -193v-334c0 -10 -6 -16 -16 -16h-60c-10 0 -16 6 -16 16v312
c0 88 -41 131 -108 131c-74 0 -131 -53 -142 -161l1 -282c0 -10 -6 -16 -16 -16h-60c-10 0 -16 6 -16 16l4 499c0 10 6 16 16 16h53c10 0 16 -6 16 -16l1 -63l7 -1c40 57 94 92 166 92z" />
    <glyph glyph-name="ncommaaccent" unicode="&#x146;" horiz-adv-x="581" 
d="M337 543c102 0 170 -69 170 -193v-334c0 -10 -6 -16 -16 -16h-60c-10 0 -16 6 -16 16v312c0 88 -41 131 -108 131c-74 0 -131 -53 -142 -161l1 -282c0 -10 -6 -16 -16 -16h-60c-10 0 -16 6 -16 16l4 499c0 10 6 16 16 16h53c10 0 16 -6 16 -16l1 -63l7 -1
c40 57 94 92 166 92zM329 -95v-36c0 -63 -19 -101 -52 -128c-7 -6 -14 -6 -22 -2c-9 6 -10 13 -2 22c23 28 28 59 7 78c-6 6 -10 11 -10 19v47c0 10 6 16 16 16h47c10 0 16 -6 16 -16z" />
    <glyph glyph-name="ndotaccent" unicode="&#x1e45;" horiz-adv-x="581" 
d="M332 730v-68c0 -10 -6 -16 -16 -16h-53c-10 0 -16 6 -16 16v68c0 10 6 16 16 16h53c10 0 16 -6 16 -16zM337 543c102 0 170 -69 170 -193v-334c0 -10 -6 -16 -16 -16h-60c-10 0 -16 6 -16 16v312c0 88 -41 131 -108 131c-74 0 -131 -53 -142 -161l1 -282
c0 -10 -6 -16 -16 -16h-60c-10 0 -16 6 -16 16l4 499c0 10 6 16 16 16h53c10 0 16 -6 16 -16l1 -63l7 -1c40 57 94 92 166 92z" />
    <glyph glyph-name="ndotbelow" unicode="&#x1e47;" horiz-adv-x="581" 
d="M337 543c102 0 170 -69 170 -193v-334c0 -10 -6 -16 -16 -16h-60c-10 0 -16 6 -16 16v312c0 88 -41 131 -108 131c-74 0 -131 -53 -142 -161l1 -282c0 -10 -6 -16 -16 -16h-60c-10 0 -16 6 -16 16l4 499c0 10 6 16 16 16h53c10 0 16 -6 16 -16l1 -63l7 -1
c40 57 94 92 166 92zM333 -98v-72c0 -10 -6 -16 -16 -16h-57c-10 0 -16 6 -16 16v72c0 10 6 16 16 16h57c10 0 16 -6 16 -16z" />
    <glyph glyph-name="eng" unicode="&#x14b;" horiz-adv-x="581" 
d="M337 543c102 0 170 -69 170 -193v-370c0 -136 -60 -196 -200 -200c-10 0 -16 6 -16 16v46c0 11 6 16 16 16c81 5 108 36 108 123v347c0 88 -41 131 -108 131c-74 0 -131 -53 -142 -161l1 -282c0 -10 -6 -16 -16 -16h-60c-10 0 -16 6 -16 16l4 499c0 10 6 16 16 16h53
c10 0 16 -6 16 -16l1 -63l7 -1c40 57 94 92 166 92z" />
    <glyph glyph-name="ntilde" unicode="&#xf1;" horiz-adv-x="581" 
d="M239 738c63 0 81 -66 115 -66c18 0 24 15 26 34c1 11 6 16 17 16h21c10 0 16 -6 15 -16c-3 -47 -24 -92 -79 -92c-59 0 -74 66 -114 66c-19 0 -27 -16 -29 -34c-1 -11 -6 -16 -17 -16h-22c-10 0 -16 6 -15 16c3 50 25 92 82 92zM337 543c102 0 170 -69 170 -193v-334
c0 -10 -6 -16 -16 -16h-60c-10 0 -16 6 -16 16v312c0 88 -41 131 -108 131c-74 0 -131 -53 -142 -161l1 -282c0 -10 -6 -16 -16 -16h-60c-10 0 -16 6 -16 16l4 499c0 10 6 16 16 16h53c10 0 16 -6 16 -16l1 -63l7 -1c40 57 94 92 166 92z" />
    <glyph glyph-name="o" unicode="o" 
d="M299 543c142 0 246 -109 246 -271c0 -165 -108 -285 -254 -285c-142 0 -247 115 -247 276c0 166 108 280 255 280zM290 466c-93 0 -159 -75 -159 -195c0 -124 74 -205 168 -205c93 0 159 78 159 196c0 126 -73 204 -168 204z" />
    <glyph glyph-name="oacute" unicode="&#xf3;" 
d="M415 740l-96 -118c-6 -6 -12 -9 -20 -9h-22c-13 0 -17 8 -11 19l70 117c4 8 10 11 19 11h51c13 0 18 -9 9 -20zM299 543c142 0 246 -109 246 -271c0 -165 -108 -285 -254 -285c-142 0 -247 115 -247 276c0 166 108 280 255 280zM290 466c-93 0 -159 -75 -159 -195
c0 -124 74 -205 168 -205c93 0 159 78 159 196c0 126 -73 204 -168 204z" />
    <glyph glyph-name="oacute.loclPLK" 
d="M373 758l-46 -124c-3 -9 -9 -13 -19 -13h-22c-11 0 -17 7 -14 18l28 123c2 9 8 14 17 14h43c12 0 17 -7 13 -18zM299 543c142 0 246 -109 246 -271c0 -165 -108 -285 -254 -285c-142 0 -247 115 -247 276c0 166 108 280 255 280zM290 466c-93 0 -159 -75 -159 -195
c0 -124 74 -205 168 -205c93 0 159 78 159 196c0 126 -73 204 -168 204z" />
    <glyph glyph-name="ocaron" unicode="&#x1d2;" 
d="M168 758h43c8 0 14 -3 19 -10l61 -83h8l59 83c5 7 11 10 19 10h42c14 0 18 -9 10 -20l-97 -116c-6 -6 -12 -9 -20 -9h-36c-8 0 -14 3 -20 9l-98 116c-8 11 -4 20 10 20zM299 543c142 0 246 -109 246 -271c0 -165 -108 -285 -254 -285c-142 0 -247 115 -247 276
c0 166 108 280 255 280zM290 466c-93 0 -159 -75 -159 -195c0 -124 74 -205 168 -205c93 0 159 78 159 196c0 126 -73 204 -168 204z" />
    <glyph glyph-name="ocircumflex" unicode="&#xf4;" 
d="M421 613h-43c-8 0 -14 3 -19 10l-61 83h-8l-59 -83c-5 -7 -11 -10 -19 -10h-42c-14 0 -18 9 -10 20l97 116c6 6 12 9 20 9h36c8 0 14 -3 20 -9l98 -116c8 -11 4 -20 -10 -20zM299 543c142 0 246 -109 246 -271c0 -165 -108 -285 -254 -285c-142 0 -247 115 -247 276
c0 166 108 280 255 280zM290 466c-93 0 -159 -75 -159 -195c0 -124 74 -205 168 -205c93 0 159 78 159 196c0 126 -73 204 -168 204z" />
    <glyph glyph-name="odieresis" unicode="&#xf6;" 
d="M266 731v-68c0 -10 -6 -16 -16 -16h-46c-10 0 -16 6 -16 16v68c0 10 6 16 16 16h46c10 0 16 -6 16 -16zM411 731v-68c0 -10 -6 -16 -16 -16h-46c-10 0 -16 6 -16 16v68c0 10 6 16 16 16h46c10 0 16 -6 16 -16zM299 543c142 0 246 -109 246 -271
c0 -165 -108 -285 -254 -285c-142 0 -247 115 -247 276c0 166 108 280 255 280zM290 466c-93 0 -159 -75 -159 -195c0 -124 74 -205 168 -205c93 0 159 78 159 196c0 126 -73 204 -168 204z" />
    <glyph glyph-name="odotbelow" unicode="&#x1ecd;" 
d="M299 543c142 0 246 -109 246 -271c0 -165 -108 -285 -254 -285c-142 0 -247 115 -247 276c0 166 108 280 255 280zM290 466c-93 0 -159 -75 -159 -195c0 -124 74 -205 168 -205c93 0 159 78 159 196c0 126 -73 204 -168 204zM189 -98v-72c0 -10 -6 -16 -16 -16h-57
c-10 0 -16 6 -16 16v72c0 10 6 16 16 16h57c10 0 16 -6 16 -16z" />
    <glyph glyph-name="ograve" unicode="&#xf2;" 
d="M192 760h51c9 0 15 -3 19 -11l70 -117c6 -11 1 -19 -11 -19h-22c-8 0 -14 3 -20 9l-96 118c-9 11 -4 20 9 20zM299 543c142 0 246 -109 246 -271c0 -165 -108 -285 -254 -285c-142 0 -247 115 -247 276c0 166 108 280 255 280zM290 466c-93 0 -159 -75 -159 -195
c0 -124 74 -205 168 -205c93 0 159 78 159 196c0 126 -73 204 -168 204z" />
    <glyph glyph-name="ohungarumlaut" unicode="&#x151;" 
d="M351 736l-96 -118c-6 -6 -12 -9 -20 -9h-22c-13 0 -17 8 -11 19l70 117c4 8 10 11 19 11h51c13 0 18 -9 9 -20zM500 736l-96 -118c-6 -6 -12 -9 -20 -9h-22c-13 0 -17 8 -11 19l70 117c4 8 10 11 19 11h51c13 0 18 -9 9 -20zM299 543c142 0 246 -109 246 -271
c0 -165 -108 -285 -254 -285c-142 0 -247 115 -247 276c0 166 108 280 255 280zM290 466c-93 0 -159 -75 -159 -195c0 -124 74 -205 168 -205c93 0 159 78 159 196c0 126 -73 204 -168 204z" />
    <glyph glyph-name="omacron" unicode="&#x14d;" 
d="M409 708v-34c0 -10 -6 -16 -16 -16h-196c-10 0 -16 6 -16 16v34c0 10 6 16 16 16h196c10 0 16 -6 16 -16zM299 543c142 0 246 -109 246 -271c0 -165 -108 -285 -254 -285c-142 0 -247 115 -247 276c0 166 108 280 255 280zM290 466c-93 0 -159 -75 -159 -195
c0 -124 74 -205 168 -205c93 0 159 78 159 196c0 126 -73 204 -168 204z" />
    <glyph glyph-name="oslash" unicode="&#xf8;" horiz-adv-x="642" 
d="M579 511l-60 -69c31 -45 49 -103 49 -170c0 -165 -109 -285 -254 -285c-55 0 -105 18 -145 49l-23 -27c-6 -6 -11 -9 -20 -9h-56c-14 0 -18 9 -9 20l58 67c-33 47 -52 107 -52 176c0 166 108 280 255 280c57 0 108 -18 149 -49l24 28c6 6 11 9 20 9h55c14 0 18 -9 9 -20z
M154 271c0 -44 9 -83 25 -114l236 272c-28 24 -63 37 -102 37c-93 0 -159 -75 -159 -195zM480 262c0 42 -8 79 -23 109l-233 -271c27 -22 61 -34 98 -34c92 0 158 78 158 196z" />
    <glyph glyph-name="otilde" unicode="&#xf5;" 
d="M245 738c63 0 81 -66 115 -66c18 0 24 15 26 34c1 11 6 16 17 16h21c10 0 16 -6 15 -16c-3 -47 -24 -92 -79 -92c-59 0 -74 66 -114 66c-19 0 -27 -16 -29 -34c-1 -11 -6 -16 -17 -16h-22c-10 0 -16 6 -15 16c3 50 25 92 82 92zM299 543c142 0 246 -109 246 -271
c0 -165 -108 -285 -254 -285c-142 0 -247 115 -247 276c0 166 108 280 255 280zM290 466c-93 0 -159 -75 -159 -195c0 -124 74 -205 168 -205c93 0 159 78 159 196c0 126 -73 204 -168 204z" />
    <glyph glyph-name="oe" unicode="&#x153;" horiz-adv-x="981" 
d="M710 542c153 0 232 -121 226 -273c-1 -11 -6 -16 -17 -16h-374c1 -117 65 -188 166 -188c59 0 98 23 127 71c4 8 10 11 19 11h51c12 0 17 -8 13 -19c-40 -91 -119 -141 -217 -141c-91 0 -163 43 -206 114c-45 -70 -119 -114 -207 -114c-142 0 -247 115 -247 276
c0 166 108 280 255 280c88 0 161 -42 204 -111c44 69 117 110 207 110zM299 66c93 0 159 78 159 196c0 126 -73 204 -168 204c-93 0 -159 -75 -159 -195c0 -124 74 -205 168 -205zM550 322h297c-3 78 -54 143 -144 143s-139 -63 -153 -143z" />
    <glyph glyph-name="p" unicode="p" horiz-adv-x="608" 
d="M341 543c133 0 223 -114 223 -273c0 -168 -100 -283 -239 -283c-66 0 -114 22 -155 64h-5l1 -255c0 -10 -6 -16 -16 -16h-60c-10 0 -16 6 -16 16l4 719c0 10 6 16 16 16h53c10 0 16 -6 16 -16l1 -61h6c39 60 104 89 171 89zM318 466c-82 0 -150 -61 -159 -171v-67
c10 -109 77 -163 160 -163c99 0 157 76 157 198c0 126 -64 203 -158 203z" />
    <glyph glyph-name="thorn" unicode="&#xfe;" horiz-adv-x="608" 
d="M341 543c133 0 223 -114 223 -273c0 -168 -100 -283 -239 -283c-66 0 -114 22 -155 64h-5l1 -255c0 -10 -6 -16 -16 -16h-60c-10 0 -16 6 -16 16l4 735v199c0 10 6 16 16 16h54c10 0 16 -6 16 -16v-276h6c39 60 104 89 171 89zM319 65c99 0 157 76 157 198
c0 126 -64 203 -158 203c-82 0 -150 -61 -159 -171v-67c10 -109 77 -163 160 -163z" />
    <glyph glyph-name="q" unicode="q" horiz-adv-x="607" 
d="M267 543c67 0 132 -29 170 -89h7v61c0 10 6 16 16 16h54c10 0 16 -6 16 -16l3 -719c0 -10 -6 -16 -16 -16h-60c-10 0 -16 6 -16 16l2 255h-6c-39 -42 -87 -64 -148 -64c-147 0 -245 115 -245 282c0 162 90 274 223 274zM290 466c-94 0 -159 -75 -159 -203
c0 -122 59 -198 158 -198c82 0 149 54 159 159v67c-8 115 -77 175 -158 175z" />
    <glyph glyph-name="r" unicode="r" horiz-adv-x="366" 
d="M343 527v-61c0 -10 -6 -16 -16 -16c-87 -3 -154 -35 -162 -158l1 -276c0 -10 -6 -16 -16 -16h-60c-10 0 -16 6 -16 16l4 499c0 10 6 16 16 16h53c10 0 16 -6 16 -16l1 -67l7 -1c36 53 91 90 156 95c10 1 16 -5 16 -15z" />
    <glyph glyph-name="racute" unicode="&#x155;" horiz-adv-x="366" 
d="M308 740l-96 -118c-6 -6 -12 -9 -20 -9h-22c-13 0 -17 8 -11 19l70 117c4 8 10 11 19 11h51c13 0 18 -9 9 -20zM343 527v-61c0 -10 -6 -16 -16 -16c-87 -3 -154 -35 -162 -158l1 -276c0 -10 -6 -16 -16 -16h-60c-10 0 -16 6 -16 16l4 499c0 10 6 16 16 16h53
c10 0 16 -6 16 -16l1 -67l7 -1c36 53 91 90 156 95c10 1 16 -5 16 -15z" />
    <glyph glyph-name="rcaron" unicode="&#x159;" horiz-adv-x="366" 
d="M62 758h43c8 0 14 -3 19 -10l61 -83h8l59 83c5 7 11 10 19 10h42c14 0 18 -9 10 -20l-97 -116c-6 -6 -12 -9 -20 -9h-36c-8 0 -14 3 -20 9l-98 116c-8 11 -4 20 10 20zM343 527v-61c0 -10 -6 -16 -16 -16c-87 -3 -154 -35 -162 -158l1 -276c0 -10 -6 -16 -16 -16h-60
c-10 0 -16 6 -16 16l4 499c0 10 6 16 16 16h53c10 0 16 -6 16 -16l1 -67l7 -1c36 53 91 90 156 95c10 1 16 -5 16 -15z" />
    <glyph glyph-name="rcommaaccent" unicode="&#x157;" horiz-adv-x="366" 
d="M343 527v-61c0 -10 -6 -16 -16 -16c-87 -3 -154 -35 -162 -158l1 -276c0 -10 -6 -16 -16 -16h-60c-10 0 -16 6 -16 16l4 499c0 10 6 16 16 16h53c10 0 16 -6 16 -16l1 -67l7 -1c36 53 91 90 156 95c10 1 16 -5 16 -15zM158 -95v-36c0 -63 -19 -101 -52 -128
c-7 -6 -14 -6 -22 -2c-9 6 -10 13 -2 22c23 28 28 59 7 78c-6 6 -10 11 -10 19v47c0 10 6 16 16 16h47c10 0 16 -6 16 -16z" />
    <glyph glyph-name="s" unicode="s" horiz-adv-x="519" 
d="M260 543c120 0 184 -69 204 -132c4 -11 -2 -18 -13 -18h-52c-9 0 -15 3 -20 11c-25 39 -63 62 -124 62c-62 0 -104 -29 -104 -72c0 -41 40 -58 116 -80l41 -12c120 -35 168 -82 168 -155c0 -98 -80 -160 -204 -160c-123 0 -196 63 -224 145c-4 11 1 18 13 18h59
c9 0 14 -4 19 -12c26 -51 74 -73 138 -73c65 0 110 22 110 74c0 43 -36 67 -121 92l-40 12c-95 27 -161 64 -161 145c0 92 84 155 195 155z" />
    <glyph glyph-name="sacute" unicode="&#x15b;" horiz-adv-x="519" 
d="M380 740l-96 -118c-6 -6 -12 -9 -20 -9h-22c-13 0 -17 8 -11 19l70 117c4 8 10 11 19 11h51c13 0 18 -9 9 -20zM260 543c120 0 184 -69 204 -132c4 -11 -2 -18 -13 -18h-52c-9 0 -15 3 -20 11c-25 39 -63 62 -124 62c-62 0 -104 -29 -104 -72c0 -41 40 -58 116 -80
l41 -12c120 -35 168 -82 168 -155c0 -98 -80 -160 -204 -160c-123 0 -196 63 -224 145c-4 11 1 18 13 18h59c9 0 14 -4 19 -12c26 -51 74 -73 138 -73c65 0 110 22 110 74c0 43 -36 67 -121 92l-40 12c-95 27 -161 64 -161 145c0 92 84 155 195 155z" />
    <glyph glyph-name="sacute.loclPLK" horiz-adv-x="519" 
d="M337 758l-46 -124c-3 -9 -9 -13 -19 -13h-22c-11 0 -17 7 -14 18l28 123c2 9 8 14 17 14h43c12 0 17 -7 13 -18zM260 543c120 0 184 -69 204 -132c4 -11 -2 -18 -13 -18h-52c-9 0 -15 3 -20 11c-25 39 -63 62 -124 62c-62 0 -104 -29 -104 -72c0 -41 40 -58 116 -80
l41 -12c120 -35 168 -82 168 -155c0 -98 -80 -160 -204 -160c-123 0 -196 63 -224 145c-4 11 1 18 13 18h59c9 0 14 -4 19 -12c26 -51 74 -73 138 -73c65 0 110 22 110 74c0 43 -36 67 -121 92l-40 12c-95 27 -161 64 -161 145c0 92 84 155 195 155z" />
    <glyph glyph-name="scaron" unicode="&#x161;" horiz-adv-x="519" 
d="M133 758h43c8 0 14 -3 19 -10l61 -83h8l59 83c5 7 11 10 19 10h42c14 0 18 -9 10 -20l-97 -116c-6 -6 -12 -9 -20 -9h-36c-8 0 -14 3 -20 9l-98 116c-8 11 -4 20 10 20zM260 543c120 0 184 -69 204 -132c4 -11 -2 -18 -13 -18h-52c-9 0 -15 3 -20 11
c-25 39 -63 62 -124 62c-62 0 -104 -29 -104 -72c0 -41 40 -58 116 -80l41 -12c120 -35 168 -82 168 -155c0 -98 -80 -160 -204 -160c-123 0 -196 63 -224 145c-4 11 1 18 13 18h59c9 0 14 -4 19 -12c26 -51 74 -73 138 -73c65 0 110 22 110 74c0 43 -36 67 -121 92l-40 12
c-95 27 -161 64 -161 145c0 92 84 155 195 155z" />
    <glyph glyph-name="scedilla" unicode="&#x15f;" horiz-adv-x="519" 
d="M476 147c0 -95 -75 -156 -192 -160l-15 -48c44 -8 78 -36 78 -85c0 -50 -35 -90 -102 -90c-22 0 -42 4 -64 15c-9 4 -12 12 -9 21l5 16c3 10 10 13 21 9c17 -7 33 -11 47 -11c26 0 46 17 46 37c0 24 -19 44 -67 45h-3c-12 0 -17 7 -14 18l23 76c-98 13 -157 70 -182 142
c-4 11 1 18 13 18h59c9 0 14 -4 19 -12c26 -51 74 -73 138 -73c65 0 110 22 110 74c0 43 -36 67 -121 92l-40 12c-95 27 -161 64 -161 145c0 92 84 155 195 155c120 0 184 -69 204 -132c4 -11 -2 -18 -13 -18h-52c-9 0 -15 3 -20 11c-25 39 -63 62 -124 62
c-62 0 -104 -29 -104 -72c0 -41 40 -58 116 -80l41 -12c120 -35 168 -82 168 -155z" />
    <glyph glyph-name="scommaaccent" unicode="&#x219;" horiz-adv-x="519" 
d="M260 543c120 0 184 -69 204 -132c4 -11 -2 -18 -13 -18h-52c-9 0 -15 3 -20 11c-25 39 -63 62 -124 62c-62 0 -104 -29 -104 -72c0 -41 40 -58 116 -80l41 -12c120 -35 168 -82 168 -155c0 -98 -80 -160 -204 -160c-123 0 -196 63 -224 145c-4 11 1 18 13 18h59
c9 0 14 -4 19 -12c26 -51 74 -73 138 -73c65 0 110 22 110 74c0 43 -36 67 -121 92l-40 12c-95 27 -161 64 -161 145c0 92 84 155 195 155zM299 -95v-36c0 -63 -19 -101 -52 -128c-7 -6 -14 -6 -22 -2c-9 6 -10 13 -2 22c23 28 28 59 7 78c-6 6 -10 11 -10 19v47
c0 10 6 16 16 16h47c10 0 16 -6 16 -16z" />
    <glyph glyph-name="sdotbelow" unicode="&#x1e63;" horiz-adv-x="519" 
d="M260 543c120 0 184 -69 204 -132c4 -11 -2 -18 -13 -18h-52c-9 0 -15 3 -20 11c-25 39 -63 62 -124 62c-62 0 -104 -29 -104 -72c0 -41 40 -58 116 -80l41 -12c120 -35 168 -82 168 -155c0 -98 -80 -160 -204 -160c-123 0 -196 63 -224 145c-4 11 1 18 13 18h59
c9 0 14 -4 19 -12c26 -51 74 -73 138 -73c65 0 110 22 110 74c0 43 -36 67 -121 92l-40 12c-95 27 -161 64 -161 145c0 92 84 155 195 155zM304 -98v-72c0 -10 -6 -16 -16 -16h-57c-10 0 -16 6 -16 16v72c0 10 6 16 16 16h57c10 0 16 -6 16 -16z" />
    <glyph glyph-name="germandbls" unicode="&#xdf;" horiz-adv-x="613" 
d="M424 379c97 -29 143 -95 143 -180c0 -114 -79 -204 -271 -209c-11 0 -17 6 -17 16v49c0 10 6 16 16 16c130 4 187 52 187 132c0 79 -56 130 -176 134c-10 0 -16 6 -16 16v42c0 11 6 16 16 16c101 6 146 59 146 127c0 74 -54 124 -134 124c-85 0 -155 -56 -154 -204
l3 -442c0 -10 -6 -16 -16 -16h-63c-10 0 -16 6 -16 16l4 442c1 174 93 282 244 282c138 0 215 -90 215 -194c0 -70 -35 -134 -111 -167z" />
    <glyph glyph-name="t" unicode="t" horiz-adv-x="350" 
d="M327 515v-42c0 -10 -6 -16 -16 -16h-97l2 -441c0 -10 -6 -16 -16 -16h-60c-10 0 -16 6 -16 16l2 441h-80c-10 0 -16 6 -16 16v42c0 10 6 16 16 16h80l1 191c0 10 6 16 16 16h53c10 0 16 -6 16 -16l1 -191h98c10 0 16 -6 16 -16z" />
    <glyph glyph-name="tbar" unicode="&#x167;" horiz-adv-x="350" 
d="M214 457v-98h71c10 0 16 -6 16 -16v-45c0 -10 -6 -16 -16 -16h-71l2 -266c0 -10 -6 -16 -16 -16h-60c-10 0 -16 6 -16 16l1 266h-60c-10 0 -16 6 -16 16v45c0 10 6 16 16 16h60l1 98h-80c-10 0 -16 6 -16 16v42c0 10 6 16 16 16h80l1 191c0 10 6 16 16 16h53
c10 0 16 -6 16 -16l1 -191h98c10 0 16 -6 16 -16v-42c0 -10 -6 -16 -16 -16h-97z" />
    <glyph glyph-name="tcaron" unicode="&#x165;" horiz-adv-x="350" 
d="M350 746h35c11 0 16 -6 14 -17l-23 -139c-1 -10 -7 -15 -17 -15h-24c-11 0 -16 6 -15 17l14 139c0 10 6 15 16 15zM213 531h98c10 0 16 -6 16 -16v-42c0 -10 -6 -16 -16 -16h-97l2 -441c0 -10 -6 -16 -16 -16h-60c-10 0 -16 6 -16 16l2 441h-80c-10 0 -16 6 -16 16v42
c0 10 6 16 16 16h80l1 191c0 10 6 16 16 16h53c10 0 16 -6 16 -16z" />
    <glyph glyph-name="tcedilla" unicode="&#x163;" horiz-adv-x="350" 
d="M327 515v-42c0 -10 -6 -16 -16 -16h-97l2 -441c0 -10 -6 -16 -16 -16h-6l-19 -61c44 -8 78 -36 78 -85c0 -50 -35 -90 -102 -90c-22 0 -42 4 -64 15c-9 4 -12 12 -9 21l5 16c3 10 10 13 21 9c17 -7 33 -11 47 -11c26 0 46 17 46 37c0 24 -19 44 -67 45h-3
c-12 0 -17 7 -14 18l26 86c-10 0 -15 6 -15 16l2 441h-80c-10 0 -16 6 -16 16v42c0 10 6 16 16 16h80l1 191c0 10 6 16 16 16h53c10 0 16 -6 16 -16l1 -191h98c10 0 16 -6 16 -16z" />
    <glyph glyph-name="tcommaaccent" unicode="&#x21b;" horiz-adv-x="350" 
d="M327 515v-42c0 -10 -6 -16 -16 -16h-97l2 -441c0 -10 -6 -16 -16 -16h-60c-10 0 -16 6 -16 16l2 441h-80c-10 0 -16 6 -16 16v42c0 10 6 16 16 16h80l1 191c0 10 6 16 16 16h53c10 0 16 -6 16 -16l1 -191h98c10 0 16 -6 16 -16zM126 -142v47c0 10 6 16 16 16h47
c10 0 16 -6 16 -16v-36c0 -63 -19 -101 -52 -128c-7 -6 -14 -6 -22 -2c-9 6 -10 13 -2 22c23 28 28 59 7 78c-6 6 -10 11 -10 19z" />
    <glyph glyph-name="tdotbelow" unicode="&#x1e6d;" horiz-adv-x="350" 
d="M327 515v-42c0 -10 -6 -16 -16 -16h-97l2 -441c0 -10 -6 -16 -16 -16h-60c-10 0 -16 6 -16 16l2 441h-80c-10 0 -16 6 -16 16v42c0 10 6 16 16 16h80l1 191c0 10 6 16 16 16h53c10 0 16 -6 16 -16l1 -191h98c10 0 16 -6 16 -16zM120 -170v72c0 10 6 16 16 16h57
c10 0 16 -6 16 -16v-72c0 -10 -6 -16 -16 -16h-57c-10 0 -16 6 -16 16z" />
    <glyph glyph-name="u" unicode="u" horiz-adv-x="577" 
d="M499 515l3 -499c0 -10 -6 -16 -16 -16h-59c-10 0 -16 6 -16 16l1 63h-7c-39 -57 -94 -92 -164 -92c-101 0 -167 69 -167 202l2 326c0 10 6 16 16 16h53c10 0 16 -6 16 -16l2 -305c1 -97 40 -139 106 -139c75 0 130 53 143 162l2 282c0 10 6 16 16 16h53
c10 0 16 -6 16 -16z" />
    <glyph glyph-name="uacute" unicode="&#xfa;" horiz-adv-x="577" 
d="M407 740l-96 -118c-6 -6 -12 -9 -20 -9h-22c-13 0 -17 8 -11 19l70 117c4 8 10 11 19 11h51c13 0 18 -9 9 -20zM499 515l3 -499c0 -10 -6 -16 -16 -16h-59c-10 0 -16 6 -16 16l1 63h-7c-39 -57 -94 -92 -164 -92c-101 0 -167 69 -167 202l2 326c0 10 6 16 16 16h53
c10 0 16 -6 16 -16l2 -305c1 -97 40 -139 106 -139c75 0 130 53 143 162l2 282c0 10 6 16 16 16h53c10 0 16 -6 16 -16z" />
    <glyph glyph-name="ucaron" unicode="&#x1d4;" horiz-adv-x="577" 
d="M161 758h43c8 0 14 -3 19 -10l61 -83h8l59 83c5 7 11 10 19 10h42c14 0 18 -9 10 -20l-97 -116c-6 -6 -12 -9 -20 -9h-36c-8 0 -14 3 -20 9l-98 116c-8 11 -4 20 10 20zM499 515l3 -499c0 -10 -6 -16 -16 -16h-59c-10 0 -16 6 -16 16l1 63h-7c-39 -57 -94 -92 -164 -92
c-101 0 -167 69 -167 202l2 326c0 10 6 16 16 16h53c10 0 16 -6 16 -16l2 -305c1 -97 40 -139 106 -139c75 0 130 53 143 162l2 282c0 10 6 16 16 16h53c10 0 16 -6 16 -16z" />
    <glyph glyph-name="ucircumflex" unicode="&#xfb;" horiz-adv-x="577" 
d="M414 613h-43c-8 0 -14 3 -19 10l-61 83h-8l-59 -83c-5 -7 -11 -10 -19 -10h-42c-14 0 -18 9 -10 20l97 116c6 6 12 9 20 9h36c8 0 14 -3 20 -9l98 -116c8 -11 4 -20 -10 -20zM499 515l3 -499c0 -10 -6 -16 -16 -16h-59c-10 0 -16 6 -16 16l1 63h-7
c-39 -57 -94 -92 -164 -92c-101 0 -167 69 -167 202l2 326c0 10 6 16 16 16h53c10 0 16 -6 16 -16l2 -305c1 -97 40 -139 106 -139c75 0 130 53 143 162l2 282c0 10 6 16 16 16h53c10 0 16 -6 16 -16z" />
    <glyph glyph-name="udieresis" unicode="&#xfc;" horiz-adv-x="577" 
d="M259 731v-68c0 -10 -6 -16 -16 -16h-46c-10 0 -16 6 -16 16v68c0 10 6 16 16 16h46c10 0 16 -6 16 -16zM404 731v-68c0 -10 -6 -16 -16 -16h-46c-10 0 -16 6 -16 16v68c0 10 6 16 16 16h46c10 0 16 -6 16 -16zM499 515l3 -499c0 -10 -6 -16 -16 -16h-59
c-10 0 -16 6 -16 16l1 63h-7c-39 -57 -94 -92 -164 -92c-101 0 -167 69 -167 202l2 326c0 10 6 16 16 16h53c10 0 16 -6 16 -16l2 -305c1 -97 40 -139 106 -139c75 0 130 53 143 162l2 282c0 10 6 16 16 16h53c10 0 16 -6 16 -16z" />
    <glyph glyph-name="udotbelow" unicode="&#x1ee5;" horiz-adv-x="577" 
d="M499 515l3 -499c0 -10 -6 -16 -16 -16h-59c-10 0 -16 6 -16 16l1 63h-7c-39 -57 -94 -92 -164 -92c-101 0 -167 69 -167 202l2 326c0 10 6 16 16 16h53c10 0 16 -6 16 -16l2 -305c1 -97 40 -139 106 -139c75 0 130 53 143 162l2 282c0 10 6 16 16 16h53
c10 0 16 -6 16 -16zM339 -98v-72c0 -10 -6 -16 -16 -16h-57c-10 0 -16 6 -16 16v72c0 10 6 16 16 16h57c10 0 16 -6 16 -16z" />
    <glyph glyph-name="ugrave" unicode="&#xf9;" horiz-adv-x="577" 
d="M185 760h51c9 0 15 -3 19 -11l70 -117c6 -11 1 -19 -11 -19h-22c-8 0 -14 3 -20 9l-96 118c-9 11 -4 20 9 20zM499 515l3 -499c0 -10 -6 -16 -16 -16h-59c-10 0 -16 6 -16 16l1 63h-7c-39 -57 -94 -92 -164 -92c-101 0 -167 69 -167 202l2 326c0 10 6 16 16 16h53
c10 0 16 -6 16 -16l2 -305c1 -97 40 -139 106 -139c75 0 130 53 143 162l2 282c0 10 6 16 16 16h53c10 0 16 -6 16 -16z" />
    <glyph glyph-name="uhungarumlaut" unicode="&#x171;" horiz-adv-x="577" 
d="M344 736l-96 -118c-6 -6 -12 -9 -20 -9h-22c-13 0 -17 8 -11 19l70 117c4 8 10 11 19 11h51c13 0 18 -9 9 -20zM493 736l-96 -118c-6 -6 -12 -9 -20 -9h-22c-13 0 -17 8 -11 19l70 117c4 8 10 11 19 11h51c13 0 18 -9 9 -20zM499 515l3 -499c0 -10 -6 -16 -16 -16h-59
c-10 0 -16 6 -16 16l1 63h-7c-39 -57 -94 -92 -164 -92c-101 0 -167 69 -167 202l2 326c0 10 6 16 16 16h53c10 0 16 -6 16 -16l2 -305c1 -97 40 -139 106 -139c75 0 130 53 143 162l2 282c0 10 6 16 16 16h53c10 0 16 -6 16 -16z" />
    <glyph glyph-name="umacron" unicode="&#x16b;" horiz-adv-x="577" 
d="M402 708v-34c0 -10 -6 -16 -16 -16h-196c-10 0 -16 6 -16 16v34c0 10 6 16 16 16h196c10 0 16 -6 16 -16zM499 515l3 -499c0 -10 -6 -16 -16 -16h-59c-10 0 -16 6 -16 16l1 63h-7c-39 -57 -94 -92 -164 -92c-101 0 -167 69 -167 202l2 326c0 10 6 16 16 16h53
c10 0 16 -6 16 -16l2 -305c1 -97 40 -139 106 -139c75 0 130 53 143 162l2 282c0 10 6 16 16 16h53c10 0 16 -6 16 -16z" />
    <glyph glyph-name="uogonek" unicode="&#x173;" horiz-adv-x="577" 
d="M384 -121c0 -25 18 -40 56 -40c12 0 27 1 43 4c11 1 17 -4 17 -15v-30c0 -9 -4 -15 -14 -18c-16 -3 -34 -5 -50 -5c-73 0 -115 40 -115 101c0 51 32 99 90 143l1 60h-7c-39 -57 -94 -92 -164 -92c-101 0 -167 69 -167 202l2 326c0 10 6 16 16 16h53c10 0 16 -6 16 -16
l2 -305c1 -97 40 -139 106 -139c75 0 130 53 143 162l2 282c0 10 6 16 16 16h53c10 0 16 -6 16 -16l3 -513c1 -1 -10 -7 -28 -19c-58 -36 -90 -72 -90 -104z" />
    <glyph glyph-name="uring" unicode="&#x16f;" horiz-adv-x="577" 
d="M287 769c51 0 91 -36 91 -91c0 -54 -40 -90 -91 -90c-50 0 -90 36 -90 90c0 55 40 91 90 91zM287 723c-24 0 -44 -17 -44 -45c0 -26 20 -44 44 -44c25 0 45 18 45 44c0 28 -20 45 -45 45zM499 515l3 -499c0 -10 -6 -16 -16 -16h-59c-10 0 -16 6 -16 16l1 63h-7
c-39 -57 -94 -92 -164 -92c-101 0 -167 69 -167 202l2 326c0 10 6 16 16 16h53c10 0 16 -6 16 -16l2 -305c1 -97 40 -139 106 -139c75 0 130 53 143 162l2 282c0 10 6 16 16 16h53c10 0 16 -6 16 -16z" />
    <glyph glyph-name="utilde" unicode="&#x169;" horiz-adv-x="577" 
d="M237 738c63 0 81 -66 115 -66c18 0 24 15 26 34c1 11 6 16 17 16h21c10 0 16 -6 15 -16c-3 -47 -24 -92 -79 -92c-59 0 -74 66 -114 66c-19 0 -27 -16 -29 -34c-1 -11 -6 -16 -17 -16h-22c-10 0 -16 6 -15 16c3 50 25 92 82 92zM499 515l3 -499c0 -10 -6 -16 -16 -16h-59
c-10 0 -16 6 -16 16l1 63h-7c-39 -57 -94 -92 -164 -92c-101 0 -167 69 -167 202l2 326c0 10 6 16 16 16h53c10 0 16 -6 16 -16l2 -305c1 -97 40 -139 106 -139c75 0 130 53 143 162l2 282c0 10 6 16 16 16h53c10 0 16 -6 16 -16z" />
    <glyph glyph-name="v" unicode="v" horiz-adv-x="521" 
d="M494 513l-172 -500c-3 -9 -8 -13 -18 -13h-88c-10 0 -15 4 -18 13l-171 500c-4 11 2 18 13 18h52c10 0 15 -4 18 -13l145 -423h10l146 423c3 9 8 13 18 13h52c11 0 17 -7 13 -18z" />
    <glyph glyph-name="w" unicode="w" horiz-adv-x="773" 
d="M682 531h51c12 0 17 -7 14 -18l-139 -499c-3 -10 -9 -14 -18 -14h-84c-9 0 -15 4 -18 13l-101 352h-8l-94 -351c-3 -10 -9 -14 -18 -14h-85c-9 0 -15 4 -18 14l-138 499c-3 11 2 18 14 18h52c9 0 15 -4 18 -14l112 -421h11l113 421c3 10 9 14 18 14h46c9 0 15 -4 18 -14
l114 -421h10l112 421c3 10 9 14 18 14z" />
    <glyph glyph-name="wacute" unicode="&#x1e83;" horiz-adv-x="773" 
d="M506 740l-96 -118c-6 -6 -12 -9 -20 -9h-22c-13 0 -17 8 -11 19l70 117c4 8 10 11 19 11h51c13 0 18 -9 9 -20zM682 531h51c12 0 17 -7 14 -18l-139 -499c-3 -10 -9 -14 -18 -14h-84c-9 0 -15 4 -18 13l-101 352h-8l-94 -351c-3 -10 -9 -14 -18 -14h-85
c-9 0 -15 4 -18 14l-138 499c-3 11 2 18 14 18h52c9 0 15 -4 18 -14l112 -421h11l113 421c3 10 9 14 18 14h46c9 0 15 -4 18 -14l114 -421h10l112 421c3 10 9 14 18 14z" />
    <glyph glyph-name="wcircumflex" unicode="&#x175;" horiz-adv-x="773" 
d="M381 706l-59 -83c-5 -7 -11 -10 -19 -10h-42c-14 0 -18 9 -10 20l97 116c6 6 12 9 20 9h36c8 0 14 -3 20 -9l98 -116c8 -11 4 -20 -10 -20h-43c-8 0 -14 3 -19 10l-61 83h-8zM682 531h51c12 0 17 -7 14 -18l-139 -499c-3 -10 -9 -14 -18 -14h-84c-9 0 -15 4 -18 13
l-101 352h-8l-94 -351c-3 -10 -9 -14 -18 -14h-85c-9 0 -15 4 -18 14l-138 499c-3 11 2 18 14 18h52c9 0 15 -4 18 -14l112 -421h11l113 421c3 10 9 14 18 14h46c9 0 15 -4 18 -14l114 -421h10l112 421c3 10 9 14 18 14z" />
    <glyph glyph-name="wdieresis" unicode="&#x1e85;" horiz-adv-x="773" 
d="M357 731v-68c0 -10 -6 -16 -16 -16h-46c-10 0 -16 6 -16 16v68c0 10 6 16 16 16h46c10 0 16 -6 16 -16zM502 731v-68c0 -10 -6 -16 -16 -16h-46c-10 0 -16 6 -16 16v68c0 10 6 16 16 16h46c10 0 16 -6 16 -16zM682 531h51c12 0 17 -7 14 -18l-139 -499
c-3 -10 -9 -14 -18 -14h-84c-9 0 -15 4 -18 13l-101 352h-8l-94 -351c-3 -10 -9 -14 -18 -14h-85c-9 0 -15 4 -18 14l-138 499c-3 11 2 18 14 18h52c9 0 15 -4 18 -14l112 -421h11l113 421c3 10 9 14 18 14h46c9 0 15 -4 18 -14l114 -421h10l112 421c3 10 9 14 18 14z" />
    <glyph glyph-name="wgrave" unicode="&#x1e81;" horiz-adv-x="773" 
d="M412 613h-22c-8 0 -14 3 -20 9l-96 118c-9 11 -4 20 9 20h51c9 0 15 -3 19 -11l70 -117c6 -11 1 -19 -11 -19zM682 531h51c12 0 17 -7 14 -18l-139 -499c-3 -10 -9 -14 -18 -14h-84c-9 0 -15 4 -18 13l-101 352h-8l-94 -351c-3 -10 -9 -14 -18 -14h-85c-9 0 -15 4 -18 14
l-138 499c-3 11 2 18 14 18h52c9 0 15 -4 18 -14l112 -421h11l113 421c3 10 9 14 18 14h46c9 0 15 -4 18 -14l114 -421h10l112 421c3 10 9 14 18 14z" />
    <glyph glyph-name="x" unicode="x" horiz-adv-x="545" 
d="M329 263l168 -244c7 -10 3 -19 -11 -19h-64c-8 0 -14 3 -19 10l-134 198l-135 -198c-5 -7 -11 -10 -19 -10h-63c-13 0 -18 9 -10 19l182 256l-161 237c-7 11 -3 19 10 19h60c8 0 14 -3 19 -10l132 -192l133 192c5 7 11 10 19 10h55c14 0 18 -9 11 -19z" />
    <glyph glyph-name="y" unicode="y" horiz-adv-x="525" 
d="M433 531h51c11 0 16 -7 13 -18l-252 -720c-4 -9 -9 -13 -19 -13h-60c-12 0 -17 7 -13 18l64 179l-190 536c-3 11 2 18 13 18h52c10 0 15 -4 18 -13l145 -420h7l152 420c4 9 9 13 19 13z" />
    <glyph glyph-name="yacute" unicode="&#xfd;" horiz-adv-x="525" 
d="M384 740l-96 -118c-6 -6 -12 -9 -20 -9h-22c-13 0 -17 8 -11 19l70 117c4 8 10 11 19 11h51c13 0 18 -9 9 -20zM433 531h51c11 0 16 -7 13 -18l-252 -720c-4 -9 -9 -13 -19 -13h-60c-12 0 -17 7 -13 18l64 179l-190 536c-3 11 2 18 13 18h52c10 0 15 -4 18 -13l145 -420
h7l152 420c4 9 9 13 19 13z" />
    <glyph glyph-name="ycircumflex" unicode="&#x177;" horiz-adv-x="525" 
d="M259 706l-59 -83c-5 -7 -11 -10 -19 -10h-42c-14 0 -18 9 -10 20l97 116c6 6 12 9 20 9h36c8 0 14 -3 20 -9l98 -116c8 -11 4 -20 -10 -20h-43c-8 0 -14 3 -19 10l-61 83h-8zM433 531h51c11 0 16 -7 13 -18l-252 -720c-4 -9 -9 -13 -19 -13h-60c-12 0 -17 7 -13 18
l64 179l-190 536c-3 11 2 18 13 18h52c10 0 15 -4 18 -13l145 -420h7l152 420c4 9 9 13 19 13z" />
    <glyph glyph-name="ydieresis" unicode="&#xff;" horiz-adv-x="525" 
d="M235 731v-68c0 -10 -6 -16 -16 -16h-46c-10 0 -16 6 -16 16v68c0 10 6 16 16 16h46c10 0 16 -6 16 -16zM380 731v-68c0 -10 -6 -16 -16 -16h-46c-10 0 -16 6 -16 16v68c0 10 6 16 16 16h46c10 0 16 -6 16 -16zM433 531h51c11 0 16 -7 13 -18l-252 -720
c-4 -9 -9 -13 -19 -13h-60c-12 0 -17 7 -13 18l64 179l-190 536c-3 11 2 18 13 18h52c10 0 15 -4 18 -13l145 -420h7l152 420c4 9 9 13 19 13z" />
    <glyph glyph-name="ydotbelow" unicode="&#x1ef5;" horiz-adv-x="525" 
d="M433 531h51c11 0 16 -7 13 -18l-252 -720c-4 -9 -9 -13 -19 -13h-60c-12 0 -17 7 -13 18l64 179l-190 536c-3 11 2 18 13 18h52c10 0 15 -4 18 -13l145 -420h7l152 420c4 9 9 13 19 13zM379 -170v72c0 10 6 16 16 16h57c10 0 16 -6 16 -16v-72c0 -10 -6 -16 -16 -16h-57
c-10 0 -16 6 -16 16z" />
    <glyph glyph-name="ygrave" unicode="&#x1ef3;" horiz-adv-x="525" 
d="M291 613h-22c-8 0 -14 3 -20 9l-96 118c-9 11 -4 20 9 20h51c9 0 15 -3 19 -11l70 -117c6 -11 1 -19 -11 -19zM433 531h51c11 0 16 -7 13 -18l-252 -720c-4 -9 -9 -13 -19 -13h-60c-12 0 -17 7 -13 18l64 179l-190 536c-3 11 2 18 13 18h52c10 0 15 -4 18 -13l145 -420h7
l152 420c4 9 9 13 19 13z" />
    <glyph glyph-name="ytilde" unicode="&#x1ef9;" horiz-adv-x="525" 
d="M215 680c-19 0 -27 -16 -29 -34c-1 -11 -6 -16 -17 -16h-22c-10 0 -16 6 -15 16c3 50 25 92 82 92c63 0 81 -66 115 -66c18 0 24 15 26 34c1 11 6 16 17 16h21c10 0 16 -6 15 -16c-3 -47 -24 -92 -79 -92c-59 0 -74 66 -114 66zM433 531h51c11 0 16 -7 13 -18l-252 -720
c-4 -9 -9 -13 -19 -13h-60c-12 0 -17 7 -13 18l64 179l-190 536c-3 11 2 18 13 18h52c10 0 15 -4 18 -13l145 -420h7l152 420c4 9 9 13 19 13z" />
    <glyph glyph-name="z" unicode="z" horiz-adv-x="492" 
d="M442 515v-45v-1c0 -3 -4 -11 -9 -16l-283 -375v-4h281c10 0 16 -6 16 -16v-42c0 -10 -6 -16 -16 -16h-371c-10 0 -16 6 -16 16v44c0 4 1 7 3 9l296 383v5h-272c-10 0 -16 6 -16 16v42c0 10 6 16 16 16h355c10 0 16 -6 16 -16z" />
    <glyph glyph-name="zacute" unicode="&#x17a;" horiz-adv-x="492" 
d="M360 740l-96 -118c-6 -6 -12 -9 -20 -9h-22c-13 0 -17 8 -11 19l70 117c4 8 10 11 19 11h51c13 0 18 -9 9 -20zM442 515v-45v-1c0 -3 -4 -11 -9 -16l-283 -375v-4h281c10 0 16 -6 16 -16v-42c0 -10 -6 -16 -16 -16h-371c-10 0 -16 6 -16 16v44c0 4 1 7 3 9l296 383v5
h-272c-10 0 -16 6 -16 16v42c0 10 6 16 16 16h355c10 0 16 -6 16 -16z" />
    <glyph glyph-name="zacute.loclPLK" horiz-adv-x="492" 
d="M318 758l-46 -124c-3 -9 -9 -13 -19 -13h-22c-11 0 -17 7 -14 18l28 123c2 9 8 14 17 14h43c12 0 17 -7 13 -18zM442 515v-45v-1c0 -3 -4 -11 -9 -16l-283 -375v-4h281c10 0 16 -6 16 -16v-42c0 -10 -6 -16 -16 -16h-371c-10 0 -16 6 -16 16v44c0 4 1 7 3 9l296 383v5
h-272c-10 0 -16 6 -16 16v42c0 10 6 16 16 16h355c10 0 16 -6 16 -16z" />
    <glyph glyph-name="zcaron" unicode="&#x17e;" horiz-adv-x="492" 
d="M113 758h43c8 0 14 -3 19 -10l61 -83h8l59 83c5 7 11 10 19 10h42c14 0 18 -9 10 -20l-97 -116c-6 -6 -12 -9 -20 -9h-36c-8 0 -14 3 -20 9l-98 116c-8 11 -4 20 10 20zM442 515v-45v-1c0 -3 -4 -11 -9 -16l-283 -375v-4h281c10 0 16 -6 16 -16v-42c0 -10 -6 -16 -16 -16
h-371c-10 0 -16 6 -16 16v44c0 4 1 7 3 9l296 383v5h-272c-10 0 -16 6 -16 16v42c0 10 6 16 16 16h355c10 0 16 -6 16 -16z" />
    <glyph glyph-name="zdotaccent" unicode="&#x17c;" horiz-adv-x="492" 
d="M283 730v-68c0 -10 -6 -16 -16 -16h-53c-10 0 -16 6 -16 16v68c0 10 6 16 16 16h53c10 0 16 -6 16 -16zM442 515v-45v-1c0 -3 -4 -11 -9 -16l-283 -375v-4h281c10 0 16 -6 16 -16v-42c0 -10 -6 -16 -16 -16h-371c-10 0 -16 6 -16 16v44c0 4 1 7 3 9l296 383v5h-272
c-10 0 -16 6 -16 16v42c0 10 6 16 16 16h355c10 0 16 -6 16 -16z" />
    <glyph glyph-name="zdotbelow" unicode="&#x1e93;" horiz-adv-x="492" 
d="M442 515v-45v-1c0 -3 -4 -11 -9 -16l-283 -375v-4h281c10 0 16 -6 16 -16v-42c0 -10 -6 -16 -16 -16h-371c-10 0 -16 6 -16 16v44c0 4 1 7 3 9l296 383v5h-272c-10 0 -16 6 -16 16v42c0 10 6 16 16 16h355c10 0 16 -6 16 -16zM291 -98v-72c0 -10 -6 -16 -16 -16h-57
c-10 0 -16 6 -16 16v72c0 10 6 16 16 16h57c10 0 16 -6 16 -16z" />
    <glyph glyph-name="Acy" unicode="&#x410;" horiz-adv-x="666" 
d="M478 225h-289l-76 -212c-4 -9 -9 -13 -19 -13h-58c-12 0 -17 7 -13 18l257 696c4 9 9 13 19 13h69c10 0 16 -4 19 -13l257 -696c4 -11 -1 -18 -13 -18h-58c-10 0 -15 4 -19 13zM449 305l-113 314h-5l-113 -314h231z" />
    <glyph glyph-name="Becy" unicode="&#x411;" horiz-adv-x="633" 
d="M165 414h191c139 0 231 -82 231 -207c0 -123 -92 -207 -231 -207h-268c-10 0 -16 6 -16 16l4 695c0 10 6 16 16 16h414c10 0 16 -6 16 -16v-48c0 -10 -6 -16 -16 -16h-343zM166 78h185c96 0 149 50 149 129c0 80 -57 128 -161 128h-174z" />
    <glyph glyph-name="Vecy" unicode="&#x412;" horiz-adv-x="671" 
d="M516 385c71 -34 109 -96 109 -172c0 -120 -90 -213 -230 -213h-307c-10 0 -16 6 -16 16l4 695c0 10 6 16 16 16h273c135 0 219 -81 219 -191c0 -60 -24 -114 -68 -151zM163 649l1 -235h205c80 0 127 44 127 116s-53 119 -141 119h-192zM166 78h223c95 0 148 50 148 127
c0 78 -58 130 -160 130h-212z" />
    <glyph glyph-name="Gecy" unicode="&#x413;" horiz-adv-x="542" 
d="M528 711v-48c0 -10 -6 -16 -16 -16h-349l4 -631c0 -10 -6 -16 -16 -16h-62c-10 0 -16 6 -16 16l3 695c0 10 6 16 16 16h420c10 0 16 -6 16 -16z" />
    <glyph glyph-name="Gjecy" unicode="&#x403;" horiz-adv-x="542" 
d="M417 936l-96 -118c-6 -6 -12 -9 -20 -9h-22c-13 0 -17 8 -11 19l70 117c4 8 10 11 19 11h51c13 0 18 -9 9 -20zM528 711v-48c0 -10 -6 -16 -16 -16h-349l4 -631c0 -10 -6 -16 -16 -16h-62c-10 0 -16 6 -16 16l3 695c0 10 6 16 16 16h420c10 0 16 -6 16 -16z" />
    <glyph glyph-name="Gheupturncy" unicode="&#x490;" horiz-adv-x="547" 
d="M523 862l9 -199c1 -10 -5 -16 -15 -16h-354l4 -631c0 -10 -6 -16 -16 -16h-62c-10 0 -16 6 -16 16l3 695c0 10 6 16 16 16h355l3 135c0 10 6 16 16 16h40c11 0 16 -5 17 -16z" />
    <glyph glyph-name="Decy" unicode="&#x414;" horiz-adv-x="817" 
d="M680 80h75c10 0 16 -6 15 -16l-10 -228c-1 -11 -6 -16 -17 -16h-40c-10 0 -16 6 -16 16l-3 164h-552l-2 -164c0 -10 -6 -16 -16 -16h-40c-11 0 -16 5 -17 16l-10 228c-1 10 5 16 15 16h73c47 28 81 86 94 186l60 446c1 10 7 15 17 15h355c10 0 16 -6 16 -16zM587 80
l1 567h-228l-47 -371c-13 -93 -33 -154 -66 -196h340z" />
    <glyph glyph-name="Iecy" unicode="&#x415;" 
d="M167 80h361c10 0 16 -6 16 -16v-48c0 -10 -6 -16 -16 -16h-440c-10 0 -16 6 -16 16l4 695c0 10 6 16 16 16h435c10 0 16 -6 16 -16v-48c0 -10 -6 -16 -16 -16h-364l2 -226h311c10 0 16 -6 16 -16v-49c0 -10 -6 -16 -16 -16h-311z" />
    <glyph glyph-name="Iocy" unicode="&#x401;" 
d="M272 928v-68c0 -10 -6 -16 -16 -16h-46c-10 0 -16 6 -16 16v68c0 10 6 16 16 16h46c10 0 16 -6 16 -16zM417 928v-68c0 -10 -6 -16 -16 -16h-46c-10 0 -16 6 -16 16v68c0 10 6 16 16 16h46c10 0 16 -6 16 -16zM167 80h361c10 0 16 -6 16 -16v-48c0 -10 -6 -16 -16 -16
h-440c-10 0 -16 6 -16 16l4 695c0 10 6 16 16 16h435c10 0 16 -6 16 -16v-48c0 -10 -6 -16 -16 -16h-364l2 -226h311c10 0 16 -6 16 -16v-49c0 -10 -6 -16 -16 -16h-311z" />
    <glyph glyph-name="Zhecy" unicode="&#x416;" horiz-adv-x="1038" 
d="M665 379l300 -359c8 -11 4 -20 -10 -20h-76c-8 0 -14 3 -20 9l-270 323h-25l2 -316c0 -10 -6 -16 -16 -16h-62c-10 0 -16 6 -16 16l1 316h-24l-270 -323c-6 -6 -12 -9 -20 -9h-76c-14 0 -18 9 -10 20l300 359l-293 328c-10 11 -6 20 8 20h70c9 0 14 -3 20 -9l271 -305h24
l1 298c0 10 6 16 16 16h56c10 0 16 -6 16 -16l2 -298h25l271 305c6 6 11 9 20 9h70c14 0 18 -9 8 -20z" />
    <glyph glyph-name="Zecy" unicode="&#x417;" horiz-adv-x="621" 
d="M439 387c92 -30 136 -96 136 -182c0 -117 -86 -215 -265 -215c-157 0 -245 86 -262 180c-2 11 4 17 15 17h57c10 0 16 -5 18 -14c17 -68 79 -105 175 -105c113 0 177 55 177 142s-60 136 -189 136h-72c-10 0 -16 6 -16 16v42c0 10 6 16 16 16h72c116 0 168 48 168 118
c0 72 -56 124 -157 124c-87 0 -141 -37 -165 -105c-3 -9 -8 -13 -18 -13h-51c-11 0 -17 7 -14 18c26 92 103 178 253 178c154 0 235 -92 235 -194c0 -69 -36 -129 -113 -159z" />
    <glyph glyph-name="Iicy" unicode="&#x418;" horiz-adv-x="721" 
d="M549 727h84c10 0 16 -6 16 -16l-3 -695c0 -10 -6 -16 -16 -16h-54c-10 0 -16 6 -16 16l-3 593l-359 -598c-4 -8 -10 -11 -19 -11h-87c-10 0 -16 6 -16 16l-4 695c0 10 6 16 16 16h61c10 0 16 -6 16 -16l-3 -611l368 616c4 8 10 11 19 11z" />
    <glyph glyph-name="Iishortcy" unicode="&#x419;" horiz-adv-x="721" 
d="M364 792c-75 0 -130 40 -130 127c0 10 6 15 16 15h32c10 0 16 -5 16 -15c0 -49 29 -70 66 -70c38 0 67 21 67 70c0 10 6 15 16 15h33c10 0 16 -5 16 -15c0 -87 -56 -127 -132 -127zM549 727h84c10 0 16 -6 16 -16l-3 -695c0 -10 -6 -16 -16 -16h-54c-10 0 -16 6 -16 16
l-3 593l-359 -598c-4 -8 -10 -11 -19 -11h-87c-10 0 -16 6 -16 16l-4 695c0 10 6 16 16 16h61c10 0 16 -6 16 -16l-3 -611l368 616c4 8 10 11 19 11z" />
    <glyph glyph-name="Kacy" unicode="&#x41a;" horiz-adv-x="685" 
d="M268 379l376 -359c11 -10 7 -20 -8 -20h-82c-8 0 -13 2 -19 8l-343 324h-27l2 -316c0 -10 -6 -16 -16 -16h-62c-10 0 -16 6 -16 16l3 695c0 10 6 16 16 16h55c10 0 16 -6 16 -16l2 -298h27l338 306c6 6 11 8 19 8h75c14 0 18 -10 7 -20z" />
    <glyph glyph-name="Kjecy" unicode="&#x40c;" horiz-adv-x="685" 
d="M239 937l-96 -118c-6 -6 -12 -9 -20 -9h-22c-13 0 -17 8 -11 19l70 117c4 8 10 11 19 11h51c13 0 18 -9 9 -20zM268 379l376 -359c11 -10 7 -20 -8 -20h-82c-8 0 -13 2 -19 8l-343 324h-27l2 -316c0 -10 -6 -16 -16 -16h-62c-10 0 -16 6 -16 16l3 695c0 10 6 16 16 16h55
c10 0 16 -6 16 -16l2 -298h27l338 306c6 6 11 8 19 8h75c14 0 18 -10 7 -20z" />
    <glyph glyph-name="Elcy" unicode="&#x41b;" horiz-adv-x="723" 
d="M635 0h-61c-10 0 -16 6 -16 16l2 631h-252l-29 -370c-16 -194 -78 -271 -250 -276c-10 0 -16 6 -16 16v46c0 11 6 16 16 16c121 6 155 69 166 187l38 446c1 10 6 15 16 15h383c10 0 16 -6 16 -16l3 -695c0 -10 -6 -16 -16 -16z" />
    <glyph glyph-name="Emcy" unicode="&#x41c;" horiz-adv-x="872" 
d="M783 0h-58c-10 0 -16 6 -16 16l-10 612l-214 -615c-4 -9 -9 -13 -19 -13h-58c-10 0 -15 4 -18 13l-218 628l-9 -625c0 -10 -6 -16 -16 -16h-59c-10 0 -16 6 -16 16l22 695c0 11 5 16 16 16h96c10 0 15 -4 19 -13l212 -604l212 604c4 9 9 13 19 13h94c11 0 16 -5 16 -16
l21 -695c0 -10 -6 -16 -16 -16z" />
    <glyph glyph-name="Ency" unicode="&#x41d;" horiz-adv-x="727" 
d="M638 0h-62c-10 0 -16 6 -16 16l1 324h-396l1 -324c0 -10 -6 -16 -16 -16h-62c-10 0 -16 6 -16 16l4 695c0 10 6 16 16 16h55c10 0 16 -6 16 -16l1 -290h398l1 290c0 10 6 16 16 16h56c10 0 16 -6 16 -16l3 -695c0 -10 -6 -16 -16 -16z" />
    <glyph glyph-name="Ocy" unicode="&#x41e;" horiz-adv-x="774" 
d="M393 739c194 0 335 -146 335 -364c0 -224 -148 -388 -346 -388c-194 0 -336 156 -336 376c0 222 148 376 347 376zM387 661c-145 0 -253 -107 -253 -292s107 -303 254 -303c144 0 253 115 253 301c0 184 -108 294 -254 294z" />
    <glyph glyph-name="Pecy" unicode="&#x41f;" horiz-adv-x="706" 
d="M618 0h-62c-10 0 -16 6 -16 16l3 630h-380l4 -630c0 -10 -6 -16 -16 -16h-62c-10 0 -16 6 -16 16l3 695c0 10 6 16 16 16h522c10 0 16 -6 16 -16l4 -695c0 -10 -6 -16 -16 -16z" />
    <glyph glyph-name="Ercy" unicode="&#x420;" horiz-adv-x="656" 
d="M92 727h276c145 0 242 -88 242 -217s-97 -226 -242 -226h-203l2 -268c0 -10 -6 -16 -16 -16h-63c-10 0 -16 6 -16 16l4 695c0 10 6 16 16 16zM165 361h196c103 0 161 55 161 140c0 90 -65 148 -161 148h-198z" />
    <glyph glyph-name="Escy" unicode="&#x421;" horiz-adv-x="742" 
d="M388 739c137 0 248 -74 296 -200c4 -11 -2 -18 -13 -18l-54 -1c-9 0 -15 4 -19 12c-46 82 -122 129 -215 129c-143 0 -249 -107 -249 -292s105 -303 258 -303c106 0 175 55 213 142c4 8 9 12 18 12l53 -1c12 0 17 -7 13 -18c-39 -111 -141 -214 -305 -214
c-202 0 -338 156 -338 375c0 224 146 377 342 377z" />
    <glyph glyph-name="Tecy" unicode="&#x422;" horiz-adv-x="585" 
d="M571 711v-48c0 -10 -6 -16 -16 -16h-218l3 -631c0 -10 -6 -16 -16 -16h-62c-10 0 -16 6 -16 16l3 631h-219c-10 0 -16 6 -16 16v48c0 10 6 16 16 16h525c10 0 16 -6 16 -16z" />
    <glyph glyph-name="Ucy" unicode="&#x423;" horiz-adv-x="604" 
d="M513 727h57c13 0 18 -8 13 -19l-241 -539c-55 -125 -137 -169 -253 -169h-34c-10 0 -16 6 -16 16v46c0 10 6 16 16 16h18c87 0 147 30 186 116l1 2l-237 512c-5 11 -1 19 12 19h57c9 0 15 -4 18 -12l191 -416h5l189 416c3 8 9 12 18 12z" />
    <glyph glyph-name="Ushortcy" unicode="&#x40e;" horiz-adv-x="604" 
d="M297 792c-75 0 -130 40 -130 127c0 10 6 15 16 15h32c10 0 16 -5 16 -15c0 -49 29 -70 66 -70c38 0 67 21 67 70c0 10 6 15 16 15h33c10 0 16 -5 16 -15c0 -87 -56 -127 -132 -127zM513 727h57c13 0 18 -8 13 -19l-241 -539c-55 -125 -137 -169 -253 -169h-34
c-10 0 -16 6 -16 16v46c0 10 6 16 16 16h18c87 0 147 30 186 116l1 2l-237 512c-5 11 -1 19 12 19h57c9 0 15 -4 18 -12l191 -416h5l189 416c3 8 9 12 18 12z" />
    <glyph glyph-name="Efcy" unicode="&#x424;" horiz-adv-x="802" 
d="M756 374c0 -173 -126 -288 -311 -303v-67c0 -10 -6 -16 -16 -16h-62c-10 0 -16 6 -16 16v67c-184 17 -305 128 -305 294s125 274 308 290v66c0 10 6 16 16 16h56c10 0 16 -6 16 -16v-65c189 -13 314 -118 314 -282zM443 577l2 -426c139 13 223 90 223 217
c0 124 -86 197 -225 209zM134 368c0 -125 83 -202 218 -216l1 425c-136 -14 -219 -87 -219 -209z" />
    <glyph glyph-name="Hacy" unicode="&#x425;" horiz-adv-x="714" 
d="M643 0h-71c-8 0 -14 3 -19 10l-198 297l-198 -297c-5 -7 -11 -10 -19 -10h-68c-14 0 -18 9 -11 19l248 358l-221 331c-7 11 -3 19 10 19h61c8 0 14 -3 19 -10l191 -279l191 279c5 7 11 10 19 10h57c13 0 17 -9 10 -19l-230 -338l240 -351c7 -10 3 -19 -11 -19z" />
    <glyph glyph-name="Checy" unicode="&#x427;" horiz-adv-x="672" 
d="M584 0h-62c-10 0 -16 6 -16 16l1 300c-54 -47 -129 -81 -224 -81c-141 0 -238 88 -237 249l2 227c0 10 6 16 16 16h55c10 0 16 -6 16 -16v-221c0 -113 59 -171 166 -171c81 1 148 32 207 90l1 302c0 10 6 16 16 16h55c10 0 16 -6 16 -16l4 -695c0 -10 -6 -16 -16 -16z
" />
    <glyph glyph-name="Tsecy" unicode="&#x426;" horiz-adv-x="739" 
d="M634 80h76c10 0 16 -6 15 -16l-10 -228c-1 -11 -6 -16 -17 -16h-40c-10 0 -16 6 -16 16l-3 164h-550c-10 0 -16 6 -16 16l3 695c0 10 6 16 16 16h55c10 0 16 -6 16 -16l4 -631h373l3 631c0 10 6 16 16 16h55c10 0 16 -6 16 -16z" />
    <glyph glyph-name="Shacy" unicode="&#x428;" horiz-adv-x="962" 
d="M887 711l3 -695c0 -10 -6 -16 -16 -16h-786c-10 0 -16 6 -16 16l3 695c0 10 6 16 16 16h56c10 0 16 -6 16 -16l3 -631h268l3 631c0 10 6 16 16 16h56c10 0 16 -6 16 -16l3 -631h268l3 631c0 10 6 16 16 16h56c10 0 16 -6 16 -16z" />
    <glyph glyph-name="Shchacy" unicode="&#x429;" horiz-adv-x="993" 
d="M890 80h74c10 0 16 -6 15 -16l-9 -228c-1 -11 -6 -16 -17 -16h-41c-10 0 -16 6 -16 16l-3 164h-805c-10 0 -16 6 -16 16l3 695c0 10 6 16 16 16h56c10 0 16 -6 16 -16l3 -631h268l3 631c0 10 6 16 16 16h56c10 0 16 -6 16 -16l3 -631h268l3 631c0 10 6 16 16 16h56
c10 0 16 -6 16 -16z" />
    <glyph glyph-name="Iacy" unicode="&#x42f;" horiz-adv-x="657" 
d="M569 0h-63c-10 0 -16 6 -16 16l2 305h-147l-210 -311c-5 -7 -11 -10 -19 -10h-76c-13 0 -18 9 -10 19l215 305c-119 18 -190 101 -190 204c0 115 90 199 233 199h277c10 0 16 -6 16 -16l4 -695c0 -10 -6 -16 -16 -16zM492 399l2 250h-196c-97 0 -155 -50 -155 -128
c0 -74 52 -122 155 -122h194z" />
    <glyph glyph-name="Softsigncy" unicode="&#x42c;" horiz-adv-x="633" 
d="M165 414h191c139 0 231 -82 231 -207c0 -123 -92 -207 -231 -207h-268c-10 0 -16 6 -16 16l4 695c0 10 6 16 16 16h55c10 0 16 -6 16 -16zM166 78h185c96 0 149 50 149 129c0 80 -57 128 -161 128h-174z" />
    <glyph glyph-name="Hardsigncy" unicode="&#x42a;" horiz-adv-x="716" 
d="M247 414h191c140 0 232 -82 232 -207c0 -123 -92 -207 -232 -207h-267c-10 0 -16 6 -16 16l3 631h-129c-10 0 -16 6 -16 16v48c0 10 6 16 16 16h201c10 0 16 -6 16 -16zM249 78h184c97 0 149 50 149 129c0 80 -56 128 -160 128h-174z" />
    <glyph glyph-name="Yerucy" unicode="&#x42b;" horiz-adv-x="839" 
d="M165 414h191c139 0 231 -82 231 -207c0 -123 -92 -207 -231 -207h-268c-10 0 -16 6 -16 16l4 695c0 10 6 16 16 16h55c10 0 16 -6 16 -16zM763 711l3 -695c0 -10 -6 -16 -16 -16h-61c-10 0 -16 6 -16 16l2 695c0 10 6 16 16 16h56c10 0 16 -6 16 -16zM166 78h185
c96 0 149 50 149 129c0 80 -57 128 -161 128h-174z" />
    <glyph glyph-name="Dzecy" unicode="&#x405;" horiz-adv-x="655" 
d="M329 739c143 0 230 -83 262 -172c4 -11 -1 -18 -13 -18h-54c-9 0 -15 3 -19 11c-31 54 -90 100 -183 100c-101 0 -154 -44 -154 -105c0 -66 54 -96 176 -133l39 -12c162 -50 226 -122 226 -221c0 -127 -103 -202 -261 -202c-187 0 -276 108 -298 196c-3 10 3 17 14 17h57
c9 0 14 -4 18 -12c29 -65 91 -121 212 -121c107 0 167 39 167 110c0 67 -54 110 -181 152l-41 13c-136 44 -215 97 -218 200c-3 123 109 197 251 197z" />
    <glyph glyph-name="Ecy" unicode="&#x404;" horiz-adv-x="742" 
d="M623 220l53 -1c12 0 17 -7 13 -18c-39 -111 -141 -214 -305 -214c-202 0 -338 156 -338 375c0 224 146 377 342 377c137 0 248 -74 296 -200c4 -11 -2 -18 -13 -18l-54 -1c-9 0 -15 4 -19 12c-46 82 -122 129 -215 129c-133 0 -234 -92 -247 -254h331c10 0 16 -6 16 -16
v-41c0 -10 -6 -16 -16 -16h-332c13 -165 114 -268 257 -268c106 0 175 55 213 142c4 8 9 12 18 12z" />
    <glyph glyph-name="Ereversedcy" unicode="&#x42d;" horiz-adv-x="742" 
d="M354 739c196 0 342 -153 342 -377c0 -219 -136 -375 -338 -375c-164 0 -266 103 -305 214c-4 11 1 18 13 18l53 1c9 0 14 -4 18 -12c38 -87 107 -142 213 -142c143 0 244 103 257 268h-332c-10 0 -16 6 -16 16v41c0 10 6 16 16 16h331c-13 162 -114 254 -247 254
c-93 0 -169 -47 -215 -129c-4 -8 -10 -12 -19 -12l-54 1c-11 0 -17 7 -13 18c49 126 160 200 296 200z" />
    <glyph glyph-name="Icy" unicode="&#x406;" horiz-adv-x="359" 
d="M223 711l4 -695c0 -10 -6 -16 -16 -16h-62c-10 0 -16 6 -16 16l3 695c0 10 6 16 16 16h55c10 0 16 -6 16 -16z" />
    <glyph glyph-name="Yicy" unicode="&#x407;" horiz-adv-x="359" 
d="M151 928v-68c0 -10 -6 -16 -16 -16h-46c-10 0 -16 6 -16 16v68c0 10 6 16 16 16h46c10 0 16 -6 16 -16zM296 928v-68c0 -10 -6 -16 -16 -16h-46c-10 0 -16 6 -16 16v68c0 10 6 16 16 16h46c10 0 16 -6 16 -16zM223 711l4 -695c0 -10 -6 -16 -16 -16h-62
c-10 0 -16 6 -16 16l3 695c0 10 6 16 16 16h55c10 0 16 -6 16 -16z" />
    <glyph glyph-name="Jecy" unicode="&#x408;" horiz-adv-x="488" 
d="M354 711l2 -386c1 -243 -94 -320 -294 -324c-10 0 -16 6 -16 16v47c0 10 6 16 16 16c149 4 202 67 203 238l1 393c0 10 6 16 16 16h56c10 0 16 -6 16 -16z" />
    <glyph glyph-name="Iucy" unicode="&#x42e;" horiz-adv-x="969" 
d="M615 739c180 0 308 -139 308 -364c0 -232 -135 -388 -318 -388c-169 0 -294 131 -308 337h-132l2 -308c0 -10 -6 -16 -16 -16h-62c-10 0 -16 6 -16 16l3 695c0 10 6 16 16 16h55c10 0 16 -6 16 -16l2 -307h132c16 206 145 335 318 335zM610 66c138 0 225 122 225 301
c0 176 -88 294 -226 294c-137 0 -225 -117 -225 -292c0 -180 88 -303 226 -303z" />
    <glyph glyph-name="Yatcy" unicode="&#x462;" horiz-adv-x="633" 
d="M165 414h191c139 0 231 -82 231 -207c0 -123 -92 -207 -231 -207h-268c-10 0 -16 6 -16 16l3 529h-92c-10 0 -16 6 -16 16v37c0 10 6 16 16 16h92l1 97c0 10 6 16 16 16h55c10 0 16 -6 16 -16l1 -97h136c10 0 16 -6 16 -16v-37c0 -10 -6 -16 -16 -16h-136zM166 78h185
c96 0 149 50 149 129c0 80 -57 128 -161 128h-174z" />
    <glyph glyph-name="Zedescendercy" unicode="&#x498;" horiz-adv-x="621" 
d="M575 205c0 -111 -77 -205 -238 -214l-16 -52c44 -8 78 -36 78 -85c0 -50 -35 -90 -102 -90c-22 0 -42 4 -64 15c-9 4 -12 12 -9 21l5 16c3 10 10 13 21 9c17 -7 33 -11 47 -11c26 0 46 17 46 37c0 24 -19 44 -67 45h-3c-12 0 -17 7 -14 18l23 77c-139 9 -218 90 -234 179
c-2 11 4 17 15 17h57c10 0 16 -5 18 -14c17 -68 79 -105 175 -105c113 0 177 55 177 142s-60 136 -189 136h-72c-10 0 -16 6 -16 16v42c0 10 6 16 16 16h72c116 0 168 48 168 118c0 72 -56 124 -157 124c-87 0 -141 -37 -165 -105c-3 -9 -8 -13 -18 -13h-51
c-11 0 -17 7 -14 18c26 92 103 178 253 178c154 0 235 -92 235 -194c0 -69 -36 -129 -113 -159c92 -30 136 -96 136 -182z" />
    <glyph glyph-name="Palochkacy" unicode="&#x4c0;" horiz-adv-x="359" 
d="M223 711l4 -695c0 -10 -6 -16 -16 -16h-62c-10 0 -16 6 -16 16l3 695c0 10 6 16 16 16h55c10 0 16 -6 16 -16z" />
    <glyph glyph-name="Adieresiscy.001" horiz-adv-x="666" 
d="M304 928v-68c0 -10 -6 -16 -16 -16h-46c-10 0 -16 6 -16 16v68c0 10 6 16 16 16h46c10 0 16 -6 16 -16zM449 928v-68c0 -10 -6 -16 -16 -16h-46c-10 0 -16 6 -16 16v68c0 10 6 16 16 16h46c10 0 16 -6 16 -16zM478 225h-289l-76 -212c-4 -9 -9 -13 -19 -13h-58
c-12 0 -17 7 -13 18l257 696c4 9 9 13 19 13h69c10 0 16 -4 19 -13l257 -696c4 -11 -1 -18 -13 -18h-58c-10 0 -15 4 -19 13zM449 305l-113 314h-5l-113 -314h231z" />
    <glyph glyph-name="Zhedieresiscy" unicode="&#x4dc;" horiz-adv-x="1038" 
d="M490 928v-68c0 -10 -6 -16 -16 -16h-46c-10 0 -16 6 -16 16v68c0 10 6 16 16 16h46c10 0 16 -6 16 -16zM635 928v-68c0 -10 -6 -16 -16 -16h-46c-10 0 -16 6 -16 16v68c0 10 6 16 16 16h46c10 0 16 -6 16 -16zM665 379l300 -359c8 -11 4 -20 -10 -20h-76
c-8 0 -14 3 -20 9l-270 323h-25l2 -316c0 -10 -6 -16 -16 -16h-62c-10 0 -16 6 -16 16l1 316h-24l-270 -323c-6 -6 -12 -9 -20 -9h-76c-14 0 -18 9 -10 20l300 359l-293 328c-10 11 -6 20 8 20h70c9 0 14 -3 20 -9l271 -305h24l1 298c0 10 6 16 16 16h56c10 0 16 -6 16 -16
l2 -298h25l271 305c6 6 11 9 20 9h70c14 0 18 -9 8 -20z" />
    <glyph glyph-name="Zedieresiscy" unicode="&#x4de;" horiz-adv-x="621" 
d="M282 927v-68c0 -10 -6 -16 -16 -16h-46c-10 0 -16 6 -16 16v68c0 10 6 16 16 16h46c10 0 16 -6 16 -16zM427 927v-68c0 -10 -6 -16 -16 -16h-46c-10 0 -16 6 -16 16v68c0 10 6 16 16 16h46c10 0 16 -6 16 -16zM439 387c92 -30 136 -96 136 -182
c0 -117 -86 -215 -265 -215c-157 0 -245 86 -262 180c-2 11 4 17 15 17h57c10 0 16 -5 18 -14c17 -68 79 -105 175 -105c113 0 177 55 177 142s-60 136 -189 136h-72c-10 0 -16 6 -16 16v42c0 10 6 16 16 16h72c116 0 168 48 168 118c0 72 -56 124 -157 124
c-87 0 -141 -37 -165 -105c-3 -9 -8 -13 -18 -13h-51c-11 0 -17 7 -14 18c26 92 103 178 253 178c154 0 235 -92 235 -194c0 -69 -36 -129 -113 -159z" />
    <glyph glyph-name="Imacroncy" unicode="&#x4e2;" horiz-adv-x="721" 
d="M479 904v-34c0 -10 -6 -16 -16 -16h-196c-10 0 -16 6 -16 16v34c0 10 6 16 16 16h196c10 0 16 -6 16 -16zM549 727h84c10 0 16 -6 16 -16l-3 -695c0 -10 -6 -16 -16 -16h-54c-10 0 -16 6 -16 16l-3 593l-359 -598c-4 -8 -10 -11 -19 -11h-87c-10 0 -16 6 -16 16l-4 695
c0 10 6 16 16 16h61c10 0 16 -6 16 -16l-3 -611l368 616c4 8 10 11 19 11z" />
    <glyph glyph-name="Idieresiscy" unicode="&#x4e4;" horiz-adv-x="721" 
d="M336 927v-68c0 -10 -6 -16 -16 -16h-46c-10 0 -16 6 -16 16v68c0 10 6 16 16 16h46c10 0 16 -6 16 -16zM481 927v-68c0 -10 -6 -16 -16 -16h-46c-10 0 -16 6 -16 16v68c0 10 6 16 16 16h46c10 0 16 -6 16 -16zM549 727h84c10 0 16 -6 16 -16l-3 -695
c0 -10 -6 -16 -16 -16h-54c-10 0 -16 6 -16 16l-3 593l-359 -598c-4 -8 -10 -11 -19 -11h-87c-10 0 -16 6 -16 16l-4 695c0 10 6 16 16 16h61c10 0 16 -6 16 -16l-3 -611l368 616c4 8 10 11 19 11z" />
    <glyph glyph-name="Odieresiscy" unicode="&#x4e6;" horiz-adv-x="774" 
d="M358 932v-68c0 -10 -6 -16 -16 -16h-46c-10 0 -16 6 -16 16v68c0 10 6 16 16 16h46c10 0 16 -6 16 -16zM503 932v-68c0 -10 -6 -16 -16 -16h-46c-10 0 -16 6 -16 16v68c0 10 6 16 16 16h46c10 0 16 -6 16 -16zM393 739c194 0 335 -146 335 -364
c0 -224 -148 -388 -346 -388c-194 0 -336 156 -336 376c0 222 148 376 347 376zM387 661c-145 0 -253 -107 -253 -292s107 -303 254 -303c144 0 253 115 253 301c0 184 -108 294 -254 294z" />
    <glyph glyph-name="Umacroncy" unicode="&#x4ee;" horiz-adv-x="604" 
d="M413 904v-34c0 -10 -6 -16 -16 -16h-196c-10 0 -16 6 -16 16v34c0 10 6 16 16 16h196c10 0 16 -6 16 -16zM513 727h57c13 0 18 -8 13 -19l-241 -539c-55 -125 -137 -169 -253 -169h-34c-10 0 -16 6 -16 16v46c0 10 6 16 16 16h18c87 0 147 30 186 116l1 2l-237 512
c-5 11 -1 19 12 19h57c9 0 15 -4 18 -12l191 -416h5l189 416c3 8 9 12 18 12z" />
    <glyph glyph-name="Udieresiscy" unicode="&#x4f0;" horiz-adv-x="604" 
d="M269 927v-68c0 -10 -6 -16 -16 -16h-46c-10 0 -16 6 -16 16v68c0 10 6 16 16 16h46c10 0 16 -6 16 -16zM414 927v-68c0 -10 -6 -16 -16 -16h-46c-10 0 -16 6 -16 16v68c0 10 6 16 16 16h46c10 0 16 -6 16 -16zM513 727h57c13 0 18 -8 13 -19l-241 -539
c-55 -125 -137 -169 -253 -169h-34c-10 0 -16 6 -16 16v46c0 10 6 16 16 16h18c87 0 147 30 186 116l1 2l-237 512c-5 11 -1 19 12 19h57c9 0 15 -4 18 -12l191 -416h5l189 416c3 8 9 12 18 12z" />
    <glyph glyph-name="Chedieresiscy" unicode="&#x4f4;" horiz-adv-x="672" 
d="M287 931v-68c0 -10 -6 -16 -16 -16h-46c-10 0 -16 6 -16 16v68c0 10 6 16 16 16h46c10 0 16 -6 16 -16zM432 931v-68c0 -10 -6 -16 -16 -16h-46c-10 0 -16 6 -16 16v68c0 10 6 16 16 16h46c10 0 16 -6 16 -16zM584 0h-62c-10 0 -16 6 -16 16l1 300
c-54 -47 -129 -81 -224 -81c-141 0 -238 88 -237 249l2 227c0 10 6 16 16 16h55c10 0 16 -6 16 -16v-221c0 -113 59 -171 166 -171c81 1 148 32 207 90l1 302c0 10 6 16 16 16h55c10 0 16 -6 16 -16l4 -695c0 -10 -6 -16 -16 -16z" />
    <glyph glyph-name="acy" unicode="&#x430;" horiz-adv-x="561" 
d="M283 543c125 0 200 -68 200 -181l3 -346c0 -10 -6 -16 -16 -16h-57c-10 0 -16 6 -16 16l1 68h-7c-36 -55 -101 -93 -184 -93c-95 0 -162 51 -162 147c0 109 83 159 279 178c50 5 74 20 74 59c0 54 -43 93 -121 93c-63 0 -105 -28 -121 -75c-3 -9 -9 -13 -18 -13h-52
c-11 0 -17 6 -15 15c23 89 96 148 212 148zM397 265l-4 2c-17 -8 -42 -15 -77 -18c-123 -14 -185 -43 -185 -105c0 -50 36 -77 95 -77c99 0 166 70 172 128z" />
    <glyph glyph-name="becy" unicode="&#x431;" horiz-adv-x="608" 
d="M326 520c138 0 238 -114 238 -272c0 -147 -90 -261 -247 -261c-155 0 -243 111 -242 269l2 192c2 199 99 298 286 298c49 0 79 2 117 10c11 2 18 -3 18 -14v-46c0 -9 -4 -15 -14 -18c-35 -8 -65 -10 -117 -10c-138 0 -205 -65 -205 -201v-12l6 -1c41 40 100 66 158 66z
M319 442c-83 0 -148 -60 -158 -157v-39c0 -116 68 -181 158 -181c100 0 157 77 157 185c0 113 -65 192 -157 192z" />
    <glyph glyph-name="vecy" unicode="&#x432;" horiz-adv-x="560" 
d="M425 275c59 -21 91 -66 91 -128c0 -88 -71 -147 -175 -147h-251c-10 0 -16 6 -16 16l4 499c0 10 6 16 16 16h218c107 0 171 -67 171 -147c0 -45 -22 -84 -58 -109zM163 453l1 -154h146c54 0 89 32 89 78c0 42 -31 76 -90 76h-146zM166 78h149c82 0 113 34 113 77
c0 48 -35 80 -113 80h-150z" />
    <glyph glyph-name="gecy" unicode="&#x433;" horiz-adv-x="482" 
d="M454 515v-49c0 -10 -6 -16 -16 -16h-275l3 -434c0 -10 -6 -16 -16 -16h-60c-10 0 -16 6 -16 16l4 499c0 10 6 16 16 16h344c10 0 16 -6 16 -16z" />
    <glyph glyph-name="gjecy" unicode="&#x453;" horiz-adv-x="482" 
d="M361 740l-96 -118c-6 -6 -12 -9 -20 -9h-22c-13 0 -17 8 -11 19l70 117c4 8 10 11 19 11h51c13 0 18 -9 9 -20zM454 515v-49c0 -10 -6 -16 -16 -16h-275l3 -434c0 -10 -6 -16 -16 -16h-60c-10 0 -16 6 -16 16l4 499c0 10 6 16 16 16h344c10 0 16 -6 16 -16z" />
    <glyph glyph-name="gheupturncy" unicode="&#x491;" horiz-adv-x="488" 
d="M449 651l10 -185c1 -10 -5 -16 -15 -16h-281l3 -434c0 -10 -6 -16 -16 -16h-60c-10 0 -16 6 -16 16l4 499c0 10 6 16 16 16h283l3 120c0 10 6 16 16 16h36c11 0 16 -5 17 -16z" />
    <glyph glyph-name="decy" unicode="&#x434;" horiz-adv-x="675" 
d="M544 80h75c10 0 16 -6 15 -16l-9 -228c-1 -11 -6 -16 -17 -16h-37c-10 0 -16 6 -16 16l-2 164h-431l-2 -164c0 -10 -6 -16 -16 -16h-36c-11 0 -16 5 -17 16l-10 228c-1 10 5 16 15 16h57c30 24 46 60 51 108l38 328c1 10 7 15 17 15h306c10 0 16 -6 16 -16zM453 80l2 370
h-183l-27 -251c-5 -51 -16 -90 -32 -119h240z" />
    <glyph glyph-name="iecy" unicode="&#x435;" horiz-adv-x="568" 
d="M296 542c154 0 232 -121 227 -273c-1 -11 -6 -16 -17 -16h-374c1 -117 65 -188 165 -188c59 0 99 23 128 71c4 8 10 11 19 11h51c12 0 17 -8 13 -19c-40 -91 -119 -141 -218 -141c-145 0 -246 111 -246 275c0 167 103 280 252 280zM289 465c-89 0 -138 -63 -152 -143h297
c-3 78 -54 143 -145 143z" />
    <glyph glyph-name="iocy" unicode="&#x451;" horiz-adv-x="568" 
d="M256 731v-68c0 -10 -6 -16 -16 -16h-46c-10 0 -16 6 -16 16v68c0 10 6 16 16 16h46c10 0 16 -6 16 -16zM401 731v-68c0 -10 -6 -16 -16 -16h-46c-10 0 -16 6 -16 16v68c0 10 6 16 16 16h46c10 0 16 -6 16 -16zM296 542c154 0 232 -121 227 -273c-1 -11 -6 -16 -17 -16
h-374c1 -117 65 -188 165 -188c59 0 99 23 128 71c4 8 10 11 19 11h51c12 0 17 -8 13 -19c-40 -91 -119 -141 -218 -141c-145 0 -246 111 -246 275c0 167 103 280 252 280zM289 465c-89 0 -138 -63 -152 -143h297c-3 78 -54 143 -145 143z" />
    <glyph glyph-name="zhecy" unicode="&#x436;" horiz-adv-x="831" 
d="M560 274l225 -254c9 -11 5 -20 -9 -20h-80c-8 0 -14 3 -20 9l-194 232h-23l1 -225c0 -10 -6 -16 -16 -16h-58c-10 0 -16 6 -16 16l1 225h-22l-195 -232c-6 -6 -12 -9 -20 -9h-80c-14 0 -18 9 -9 20l226 254l-220 237c-9 11 -5 20 9 20h75c9 0 14 -3 20 -9l194 -219h23
l1 212c0 10 6 16 16 16h52c10 0 16 -6 16 -16l1 -212h24l194 219c6 6 11 9 20 9h75c14 0 18 -9 9 -20z" />
    <glyph glyph-name="zecy" unicode="&#x437;" horiz-adv-x="527" 
d="M366 278c80 -21 117 -70 117 -133c0 -87 -78 -158 -222 -158c-124 0 -198 61 -214 129c-3 11 3 17 14 17h55c10 0 15 -4 18 -13c17 -39 62 -60 129 -60c86 0 133 34 133 88c0 59 -45 91 -142 91h-52c-10 0 -16 6 -16 16v38c0 10 6 16 16 16h52c84 0 123 35 123 85
c0 48 -43 78 -118 78c-56 0 -98 -21 -118 -59c-4 -8 -9 -12 -18 -12h-50c-12 0 -17 7 -14 18c24 65 88 124 209 124c115 0 192 -66 192 -142c0 -53 -30 -100 -94 -123z" />
    <glyph glyph-name="iicy" unicode="&#x438;" horiz-adv-x="609" 
d="M519 0h-56c-10 0 -16 6 -16 16l2 408l-260 -413c-5 -8 -11 -11 -20 -11h-79c-10 0 -16 6 -16 16l3 499c0 10 6 16 16 16h50c10 0 16 -6 16 -16l2 -406l258 411c5 8 11 11 20 11h77c10 0 16 -6 16 -16l3 -499c0 -10 -6 -16 -16 -16z" />
    <glyph glyph-name="iishortcy" unicode="&#x439;" horiz-adv-x="609" 
d="M307 600c-75 0 -130 40 -130 127c0 10 6 15 16 15h32c10 0 16 -5 16 -15c0 -49 29 -70 66 -70c38 0 67 21 67 70c0 10 6 15 16 15h33c10 0 16 -5 16 -15c0 -87 -56 -127 -132 -127zM519 0h-56c-10 0 -16 6 -16 16l2 408l-260 -413c-5 -8 -11 -11 -20 -11h-79
c-10 0 -16 6 -16 16l3 499c0 10 6 16 16 16h50c10 0 16 -6 16 -16l2 -406l258 411c5 8 11 11 20 11h77c10 0 16 -6 16 -16l3 -499c0 -10 -6 -16 -16 -16z" />
    <glyph glyph-name="kacy" unicode="&#x43a;" horiz-adv-x="568" 
d="M273 274l247 -254c10 -11 6 -20 -8 -20h-79c-9 0 -14 2 -20 8l-223 233h-25l1 -225c0 -10 -6 -16 -16 -16h-60c-10 0 -16 6 -16 16l4 499c0 10 6 16 16 16h53c10 0 16 -6 16 -16l1 -212h26l223 220c6 6 11 8 20 8h74c14 0 18 -10 8 -20z" />
    <glyph glyph-name="kjecy" unicode="&#x45c;" horiz-adv-x="568" 
d="M404 740l-96 -118c-6 -6 -12 -9 -20 -9h-22c-13 0 -17 8 -11 19l70 117c4 8 10 11 19 11h51c13 0 18 -9 9 -20zM273 274l247 -254c10 -11 6 -20 -8 -20h-79c-9 0 -14 2 -20 8l-223 233h-25l1 -225c0 -10 -6 -16 -16 -16h-60c-10 0 -16 6 -16 16l4 499c0 10 6 16 16 16h53
c10 0 16 -6 16 -16l1 -212h26l223 220c6 6 11 8 20 8h74c14 0 18 -10 8 -20z" />
    <glyph glyph-name="elcy" unicode="&#x43b;" horiz-adv-x="607" 
d="M516 0h-59c-10 0 -16 6 -16 16l3 434h-202l-18 -251c-10 -138 -70 -194 -180 -199c-10 0 -16 6 -16 16v47c0 11 5 16 16 17c59 5 90 42 96 108l28 328c1 10 6 15 16 15h329c10 0 16 -6 16 -16l3 -499c0 -10 -6 -16 -16 -16z" />
    <glyph glyph-name="emcy" unicode="&#x43c;" horiz-adv-x="741" 
d="M672 0h-54c-10 0 -16 6 -16 16l-9 435l-172 -438c-3 -9 -9 -13 -18 -13h-62c-10 0 -16 4 -19 13l-174 450l-10 -447c0 -10 -6 -16 -16 -16h-52c-10 0 -16 6 -15 16l18 497c1 11 6 16 17 16h93c9 0 15 -4 18 -13l171 -433l170 433c3 9 9 13 18 13h91c11 0 16 -5 17 -16
l19 -497c1 -10 -5 -16 -15 -16z" />
    <glyph glyph-name="ency" unicode="&#x43d;" horiz-adv-x="605" 
d="M515 0h-60c-10 0 -16 6 -16 16l1 222h-275l1 -222c0 -10 -6 -16 -16 -16h-60c-10 0 -16 6 -16 16l4 499c0 10 6 16 16 16h53c10 0 16 -6 16 -16l1 -197h277l1 197c0 10 6 16 16 16h54c10 0 16 -6 16 -16l3 -499c0 -10 -6 -16 -16 -16z" />
    <glyph glyph-name="ocy" unicode="&#x43e;" 
d="M299 543c142 0 246 -109 246 -271c0 -165 -108 -285 -254 -285c-142 0 -247 115 -247 276c0 166 108 280 255 280zM290 466c-93 0 -159 -75 -159 -195c0 -124 74 -205 168 -205c93 0 159 78 159 196c0 126 -73 204 -168 204z" />
    <glyph glyph-name="pecy" unicode="&#x43f;" horiz-adv-x="595" 
d="M505 0h-60c-10 0 -16 6 -16 16l3 434h-269l3 -434c0 -10 -6 -16 -16 -16h-60c-10 0 -16 6 -16 16l4 499c0 10 6 16 16 16h407c10 0 16 -6 16 -16l4 -499c0 -10 -6 -16 -16 -16z" />
    <glyph glyph-name="ercy" unicode="&#x440;" horiz-adv-x="608" 
d="M341 543c133 0 223 -114 223 -273c0 -168 -100 -283 -239 -283c-66 0 -114 22 -155 64h-5l1 -255c0 -10 -6 -16 -16 -16h-60c-10 0 -16 6 -16 16l4 719c0 10 6 16 16 16h53c10 0 16 -6 16 -16l1 -61h6c39 60 104 89 171 89zM318 466c-82 0 -150 -61 -159 -171v-67
c10 -109 77 -163 160 -163c99 0 157 76 157 198c0 126 -64 203 -158 203z" />
    <glyph glyph-name="escy" unicode="&#x441;" horiz-adv-x="532" 
d="M288 543c117 0 194 -73 218 -153c3 -11 -3 -18 -14 -18h-52c-9 0 -14 4 -19 12c-25 52 -67 81 -132 81c-98 0 -158 -68 -158 -203c0 -130 60 -196 161 -196c68 0 105 29 126 72c5 8 10 12 19 12h52c11 0 17 -7 13 -18c-28 -75 -101 -145 -217 -145
c-147 0 -241 110 -241 272c0 173 98 284 244 284z" />
    <glyph glyph-name="tecy" unicode="&#x442;" horiz-adv-x="525" 
d="M496 515v-49c0 -10 -6 -16 -16 -16h-175l3 -434c0 -10 -6 -16 -16 -16h-60c-10 0 -16 6 -16 16l3 434h-175c-10 0 -16 6 -16 16v49c0 10 6 16 16 16h436c10 0 16 -6 16 -16z" />
    <glyph glyph-name="ucy" unicode="&#x443;" horiz-adv-x="525" 
d="M433 531h51c11 0 16 -7 13 -18l-200 -573c-42 -120 -106 -160 -224 -160h-21c-10 0 -16 6 -16 16v46c0 10 6 16 16 16h1c90 0 132 27 158 100l7 18l-191 537c-3 11 2 18 13 18h52c10 0 15 -4 18 -13l145 -420h7l152 420c4 9 9 13 19 13z" />
    <glyph glyph-name="ushortcy" unicode="&#x45e;" horiz-adv-x="525" 
d="M263 596c-75 0 -130 40 -130 127c0 10 6 15 16 15h32c10 0 16 -5 16 -15c0 -49 29 -70 66 -70c38 0 67 21 67 70c0 10 6 15 16 15h33c10 0 16 -5 16 -15c0 -87 -56 -127 -132 -127zM433 531h51c11 0 16 -7 13 -18l-200 -573c-42 -120 -106 -160 -224 -160h-21
c-10 0 -16 6 -16 16v46c0 10 6 16 16 16h1c90 0 132 27 158 100l7 18l-191 537c-3 11 2 18 13 18h52c10 0 15 -4 18 -13l145 -420h7l152 420c4 9 9 13 19 13z" />
    <glyph glyph-name="efcy" unicode="&#x444;" horiz-adv-x="752" 
d="M707 272c0 -156 -103 -269 -285 -287l1 -189c0 -10 -6 -16 -16 -16h-60c-10 0 -16 6 -16 16l1 189c-184 14 -288 125 -288 278c0 155 104 266 289 282l1 185c0 10 6 16 16 16h54c10 0 16 -6 16 -16l1 -184c183 -14 286 -122 286 -274zM127 271c0 -111 72 -193 205 -209
l1 409c-133 -12 -206 -92 -206 -200zM421 470l1 -409c131 14 202 93 202 201c0 111 -72 192 -203 208z" />
    <glyph glyph-name="hacy" unicode="&#x445;" horiz-adv-x="545" 
d="M329 263l168 -244c7 -10 3 -19 -11 -19h-64c-8 0 -14 3 -19 10l-134 198l-135 -198c-5 -7 -11 -10 -19 -10h-63c-13 0 -18 9 -10 19l182 256l-161 237c-7 11 -3 19 10 19h60c8 0 14 -3 19 -10l132 -192l133 192c5 7 11 10 19 10h55c14 0 18 -9 11 -19z" />
    <glyph glyph-name="checy" unicode="&#x447;" horiz-adv-x="549" 
d="M458 0h-59c-10 0 -16 6 -16 16l1 196c-42 -36 -98 -57 -160 -57c-113 0 -180 69 -180 191l2 169c0 10 6 16 16 16h54c10 0 16 -6 16 -16l-1 -147c-1 -86 38 -129 114 -129c58 0 104 23 140 62l1 214c0 10 6 16 16 16h53c10 0 16 -6 16 -16l3 -499c0 -10 -6 -16 -16 -16z
" />
    <glyph glyph-name="tsecy" unicode="&#x446;" horiz-adv-x="621" 
d="M517 80h60c10 0 16 -6 15 -16l-10 -228c-1 -11 -6 -16 -17 -16h-36c-10 0 -16 6 -16 16l-3 164h-420c-10 0 -16 6 -16 16l4 499c0 10 6 16 16 16h53c10 0 16 -6 16 -16l3 -435h259l3 435c0 10 6 16 16 16h54c10 0 16 -6 16 -16z" />
    <glyph glyph-name="shacy" unicode="&#x448;" horiz-adv-x="907" 
d="M829 515l3 -499c0 -10 -6 -16 -16 -16h-726c-10 0 -16 6 -16 16l4 499c0 10 6 16 16 16h53c10 0 16 -6 16 -16l3 -435h242l3 435c0 10 6 16 16 16h53c10 0 16 -6 16 -16l3 -435h242l3 435c0 10 6 16 16 16h53c10 0 16 -6 16 -16z" />
    <glyph glyph-name="shchacy" unicode="&#x449;" horiz-adv-x="907" 
d="M832 80h50c10 0 16 -6 15 -16l-10 -228c-1 -11 -6 -16 -17 -16h-36c-10 0 -16 6 -16 16l-3 164h-725c-10 0 -16 6 -16 16l4 499c0 10 6 16 16 16h53c10 0 16 -6 16 -16l3 -435h242l3 435c0 10 6 16 16 16h53c10 0 16 -6 16 -16l3 -435h242l3 435c0 10 6 16 16 16h53
c10 0 16 -6 16 -16z" />
    <glyph glyph-name="iacy" unicode="&#x44f;" horiz-adv-x="582" 
d="M492 0h-60c-10 0 -16 6 -16 16l1 188h-132l-126 -194c-5 -7 -11 -10 -19 -10h-72c-14 0 -18 9 -10 19l136 194c-74 22 -120 80 -120 154c0 93 78 164 186 164h228c10 0 16 -6 16 -16l4 -499c0 -10 -6 -16 -16 -16zM418 282l1 171h-154c-65 0 -103 -38 -103 -86
c0 -49 42 -85 115 -85h141z" />
    <glyph glyph-name="softsigncy" unicode="&#x44c;" horiz-adv-x="566" 
d="M164 336h166c116 0 192 -73 192 -167s-79 -169 -192 -169h-240c-10 0 -16 6 -16 16l4 499c0 10 6 16 16 16h53c10 0 16 -6 16 -16zM166 78h159c70 0 109 41 109 91c0 49 -43 89 -121 89h-148z" />
    <glyph glyph-name="hardsigncy" unicode="&#x44a;" horiz-adv-x="638" 
d="M235 336h166c116 0 192 -73 192 -167s-79 -169 -192 -169h-239c-10 0 -16 6 -16 16l3 434h-105c-10 0 -16 6 -16 16v49c0 10 6 16 16 16h174c10 0 16 -6 16 -16zM237 78h159c70 0 109 41 109 91c0 49 -42 89 -121 89h-148z" />
    <glyph glyph-name="yerucy" unicode="&#x44b;" horiz-adv-x="775" 
d="M164 336h166c116 0 192 -73 192 -167s-79 -169 -192 -169h-240c-10 0 -16 6 -16 16l4 499c0 10 6 16 16 16h53c10 0 16 -6 16 -16zM697 515l4 -499c0 -10 -6 -16 -16 -16h-60c-10 0 -16 6 -16 16l3 499c0 10 6 16 16 16h53c10 0 16 -6 16 -16zM166 78h159
c70 0 109 41 109 91c0 49 -43 89 -121 89h-148z" />
    <glyph glyph-name="dzecy" unicode="&#x455;" horiz-adv-x="519" 
d="M260 543c120 0 184 -69 204 -132c4 -11 -2 -18 -13 -18h-52c-9 0 -15 3 -20 11c-25 39 -63 62 -124 62c-62 0 -104 -29 -104 -72c0 -41 40 -58 116 -80l41 -12c120 -35 168 -82 168 -155c0 -98 -80 -160 -204 -160c-123 0 -196 63 -224 145c-4 11 1 18 13 18h59
c9 0 14 -4 19 -12c26 -51 74 -73 138 -73c65 0 110 22 110 74c0 43 -36 67 -121 92l-40 12c-95 27 -161 64 -161 145c0 92 84 155 195 155z" />
    <glyph glyph-name="ecy" unicode="&#x454;" horiz-adv-x="554" 
d="M292 66c68 0 105 29 126 72c5 8 10 12 19 12h52c11 0 17 -7 13 -18c-28 -75 -101 -145 -217 -145c-147 0 -241 110 -241 272c0 173 98 284 244 284c117 0 194 -73 218 -153c3 -11 -3 -18 -14 -18h-52c-9 0 -14 4 -19 12c-25 52 -67 81 -132 81c-88 0 -145 -55 -156 -164
h208c10 0 16 -6 16 -16v-40c0 -10 -6 -16 -16 -16h-209c10 -108 68 -163 160 -163z" />
    <glyph glyph-name="ereversedcy" unicode="&#x44d;" horiz-adv-x="554" 
d="M266 543c146 0 244 -111 244 -284c0 -162 -94 -272 -241 -272c-116 0 -189 70 -217 145c-4 11 2 18 13 18h52c9 0 14 -4 19 -12c21 -43 58 -72 126 -72c92 0 150 55 160 163h-209c-10 0 -16 6 -16 16v40c0 10 6 16 16 16h208c-11 109 -68 164 -156 164
c-65 0 -107 -29 -132 -81c-5 -8 -10 -12 -19 -12h-52c-11 0 -17 5 -15 13c22 82 99 158 219 158z" />
    <glyph glyph-name="icy" unicode="&#x456;" horiz-adv-x="261" 
d="M174 730v-68c0 -10 -6 -16 -16 -16h-53c-10 0 -16 6 -16 16v68c0 10 6 16 16 16h53c10 0 16 -6 16 -16zM173 515l3 -499c0 -10 -6 -16 -16 -16h-60c-10 0 -16 6 -16 16l4 499c0 10 6 16 16 16h53c10 0 16 -6 16 -16z" />
    <glyph glyph-name="yicy" unicode="&#x457;" horiz-adv-x="261" 
d="M102 731v-68c0 -10 -6 -16 -16 -16h-46c-10 0 -16 6 -16 16v68c0 10 6 16 16 16h46c10 0 16 -6 16 -16zM247 731v-68c0 -10 -6 -16 -16 -16h-46c-10 0 -16 6 -16 16v68c0 10 6 16 16 16h46c10 0 16 -6 16 -16zM173 515l3 -499c0 -10 -6 -16 -16 -16h-60
c-10 0 -16 6 -16 16l4 499c0 10 6 16 16 16h53c10 0 16 -6 16 -16z" />
    <glyph glyph-name="jecy" unicode="&#x458;" horiz-adv-x="291" 
d="M191 730v-68c0 -10 -6 -16 -16 -16h-53c-10 0 -16 6 -16 16v68c0 10 6 16 16 16h53c10 0 16 -6 16 -16zM191 515l4 -533c0 -135 -60 -197 -201 -202c-10 0 -16 6 -16 16v46c0 11 6 16 16 17c81 4 108 37 109 118l3 538c0 10 6 16 16 16h53c10 0 16 -6 16 -16z" />
    <glyph glyph-name="iucy" unicode="&#x44e;" horiz-adv-x="790" 
d="M509 543c136 0 236 -109 236 -271c0 -165 -105 -285 -244 -285c-125 0 -220 97 -235 238h-101l1 -209c0 -10 -6 -16 -16 -16h-60c-10 0 -16 6 -16 16l4 499c0 10 6 16 16 16h53c10 0 16 -6 16 -16l1 -210h102c16 143 114 238 243 238zM509 66c86 0 148 78 148 196
c0 126 -68 204 -157 204c-87 0 -149 -75 -149 -195c0 -124 69 -205 158 -205z" />
    <glyph glyph-name="yatcy" unicode="&#x463;" horiz-adv-x="617" 
d="M216 336h164c117 0 192 -73 192 -167s-79 -169 -192 -169h-239c-10 0 -16 6 -16 16l2 444h-83c-10 0 -16 6 -16 16v39c0 10 6 16 16 16h83l1 199c0 10 6 16 16 16h54c10 0 16 -6 16 -16l1 -199h146c10 0 16 -6 16 -16v-39c0 -10 -6 -16 -16 -16h-146zM217 78h158
c71 0 110 41 110 91c0 49 -43 89 -122 89h-147z" />
    <glyph glyph-name="zedescendercy" unicode="&#x499;" horiz-adv-x="527" 
d="M483 145c0 -81 -68 -148 -194 -157l-15 -49c44 -8 78 -36 78 -85c0 -50 -35 -90 -102 -90c-22 0 -42 4 -64 15c-9 4 -12 12 -9 21l5 16c3 10 10 13 21 9c17 -7 33 -11 47 -11c26 0 46 17 46 37c0 24 -19 44 -67 45h-3c-12 0 -17 7 -14 18l22 74c-107 8 -172 65 -187 128
c-3 11 3 17 14 17h55c10 0 15 -4 18 -13c17 -39 62 -60 129 -60c86 0 133 34 133 88c0 59 -45 91 -142 91h-52c-10 0 -16 6 -16 16v38c0 10 6 16 16 16h52c84 0 123 35 123 85c0 48 -43 78 -118 78c-56 0 -98 -21 -118 -59c-4 -8 -9 -12 -18 -12h-50c-12 0 -17 7 -14 18
c24 65 88 124 209 124c115 0 192 -66 192 -142c0 -53 -30 -100 -94 -123c80 -21 117 -70 117 -133z" />
    <glyph glyph-name="shhacy" unicode="&#x4bb;" horiz-adv-x="578" 
d="M165 452l7 -1c39 54 93 88 164 88c100 0 165 -68 166 -189l2 -334c0 -10 -6 -16 -16 -16h-60c-10 0 -16 6 -16 16l2 312c0 85 -40 127 -107 127c-74 0 -131 -53 -142 -157l1 -282c0 -10 -6 -16 -16 -16h-60c-10 0 -16 6 -16 16l4 714c0 10 6 16 16 16h53
c10 0 16 -6 16 -16z" />
    <glyph glyph-name="adieresiscy" unicode="&#x4d3;" horiz-adv-x="561" 
d="M249 731v-68c0 -10 -6 -16 -16 -16h-46c-10 0 -16 6 -16 16v68c0 10 6 16 16 16h46c10 0 16 -6 16 -16zM394 731v-68c0 -10 -6 -16 -16 -16h-46c-10 0 -16 6 -16 16v68c0 10 6 16 16 16h46c10 0 16 -6 16 -16zM283 543c125 0 200 -68 200 -181l3 -346
c0 -10 -6 -16 -16 -16h-57c-10 0 -16 6 -16 16l1 68h-7c-36 -55 -101 -93 -184 -93c-95 0 -162 51 -162 147c0 109 83 159 279 178c50 5 74 20 74 59c0 54 -43 93 -121 93c-63 0 -105 -28 -121 -75c-3 -9 -9 -13 -18 -13h-52c-11 0 -17 6 -15 15c23 89 96 148 212 148z
M397 265l-4 2c-17 -8 -42 -15 -77 -18c-123 -14 -185 -43 -185 -105c0 -50 36 -77 95 -77c99 0 166 70 172 128z" />
    <glyph glyph-name="zhedieresiscy" unicode="&#x4dd;" horiz-adv-x="831" 
d="M386 731v-68c0 -10 -6 -16 -16 -16h-46c-10 0 -16 6 -16 16v68c0 10 6 16 16 16h46c10 0 16 -6 16 -16zM531 731v-68c0 -10 -6 -16 -16 -16h-46c-10 0 -16 6 -16 16v68c0 10 6 16 16 16h46c10 0 16 -6 16 -16zM560 274l225 -254c9 -11 5 -20 -9 -20h-80c-8 0 -14 3 -20 9
l-194 232h-23l1 -225c0 -10 -6 -16 -16 -16h-58c-10 0 -16 6 -16 16l1 225h-22l-195 -232c-6 -6 -12 -9 -20 -9h-80c-14 0 -18 9 -9 20l226 254l-220 237c-9 11 -5 20 9 20h75c9 0 14 -3 20 -9l194 -219h23l1 212c0 10 6 16 16 16h52c10 0 16 -6 16 -16l1 -212h24l194 219
c6 6 11 9 20 9h75c14 0 18 -9 9 -20z" />
    <glyph glyph-name="zedieresiscy" unicode="&#x4df;" horiz-adv-x="527" 
d="M235 731v-68c0 -10 -6 -16 -16 -16h-46c-10 0 -16 6 -16 16v68c0 10 6 16 16 16h46c10 0 16 -6 16 -16zM380 731v-68c0 -10 -6 -16 -16 -16h-46c-10 0 -16 6 -16 16v68c0 10 6 16 16 16h46c10 0 16 -6 16 -16zM366 278c80 -21 117 -70 117 -133c0 -87 -78 -158 -222 -158
c-124 0 -198 61 -214 129c-3 11 3 17 14 17h55c10 0 15 -4 18 -13c17 -39 62 -60 129 -60c86 0 133 34 133 88c0 59 -45 91 -142 91h-52c-10 0 -16 6 -16 16v38c0 10 6 16 16 16h52c84 0 123 35 123 85c0 48 -43 78 -118 78c-56 0 -98 -21 -118 -59c-4 -8 -9 -12 -18 -12
h-50c-12 0 -17 7 -14 18c24 65 88 124 209 124c115 0 192 -66 192 -142c0 -53 -30 -100 -94 -123z" />
    <glyph glyph-name="imacroncy" unicode="&#x4e3;" horiz-adv-x="609" 
d="M422 712v-34c0 -10 -6 -16 -16 -16h-196c-10 0 -16 6 -16 16v34c0 10 6 16 16 16h196c10 0 16 -6 16 -16zM519 0h-56c-10 0 -16 6 -16 16l2 408l-260 -413c-5 -8 -11 -11 -20 -11h-79c-10 0 -16 6 -16 16l3 499c0 10 6 16 16 16h50c10 0 16 -6 16 -16l2 -406l258 411
c5 8 11 11 20 11h77c10 0 16 -6 16 -16l3 -499c0 -10 -6 -16 -16 -16z" />
    <glyph glyph-name="idieresiscy" unicode="&#x4e5;" horiz-adv-x="609" 
d="M279 735v-68c0 -10 -6 -16 -16 -16h-46c-10 0 -16 6 -16 16v68c0 10 6 16 16 16h46c10 0 16 -6 16 -16zM424 735v-68c0 -10 -6 -16 -16 -16h-46c-10 0 -16 6 -16 16v68c0 10 6 16 16 16h46c10 0 16 -6 16 -16zM519 0h-56c-10 0 -16 6 -16 16l2 408l-260 -413
c-5 -8 -11 -11 -20 -11h-79c-10 0 -16 6 -16 16l3 499c0 10 6 16 16 16h50c10 0 16 -6 16 -16l2 -406l258 411c5 8 11 11 20 11h77c10 0 16 -6 16 -16l3 -499c0 -10 -6 -16 -16 -16z" />
    <glyph glyph-name="odieresiscy" unicode="&#x4e7;" 
d="M266 731v-68c0 -10 -6 -16 -16 -16h-46c-10 0 -16 6 -16 16v68c0 10 6 16 16 16h46c10 0 16 -6 16 -16zM411 731v-68c0 -10 -6 -16 -16 -16h-46c-10 0 -16 6 -16 16v68c0 10 6 16 16 16h46c10 0 16 -6 16 -16zM299 543c142 0 246 -109 246 -271
c0 -165 -108 -285 -254 -285c-142 0 -247 115 -247 276c0 166 108 280 255 280zM290 466c-93 0 -159 -75 -159 -195c0 -124 74 -205 168 -205c93 0 159 78 159 196c0 126 -73 204 -168 204z" />
    <glyph glyph-name="umacroncy" unicode="&#x4ef;" horiz-adv-x="525" 
d="M379 708v-34c0 -10 -6 -16 -16 -16h-196c-10 0 -16 6 -16 16v34c0 10 6 16 16 16h196c10 0 16 -6 16 -16zM433 531h51c11 0 16 -7 13 -18l-200 -573c-42 -120 -106 -160 -224 -160h-21c-10 0 -16 6 -16 16v46c0 10 6 16 16 16h1c90 0 132 27 158 100l7 18l-191 537
c-3 11 2 18 13 18h52c10 0 15 -4 18 -13l145 -420h7l152 420c4 9 9 13 19 13z" />
    <glyph glyph-name="udieresiscy" unicode="&#x4f1;" horiz-adv-x="525" 
d="M235 731v-68c0 -10 -6 -16 -16 -16h-46c-10 0 -16 6 -16 16v68c0 10 6 16 16 16h46c10 0 16 -6 16 -16zM380 731v-68c0 -10 -6 -16 -16 -16h-46c-10 0 -16 6 -16 16v68c0 10 6 16 16 16h46c10 0 16 -6 16 -16zM433 531h51c11 0 16 -7 13 -18l-200 -573
c-42 -120 -106 -160 -224 -160h-21c-10 0 -16 6 -16 16v46c0 10 6 16 16 16h1c90 0 132 27 158 100l7 18l-191 537c-3 11 2 18 13 18h52c10 0 15 -4 18 -13l145 -420h7l152 420c4 9 9 13 19 13z" />
    <glyph glyph-name="chedieresiscy" unicode="&#x4f5;" horiz-adv-x="549" 
d="M229 731v-68c0 -10 -6 -16 -16 -16h-46c-10 0 -16 6 -16 16v68c0 10 6 16 16 16h46c10 0 16 -6 16 -16zM374 731v-68c0 -10 -6 -16 -16 -16h-46c-10 0 -16 6 -16 16v68c0 10 6 16 16 16h46c10 0 16 -6 16 -16zM458 0h-59c-10 0 -16 6 -16 16l1 196
c-42 -36 -98 -57 -160 -57c-113 0 -180 69 -180 191l2 169c0 10 6 16 16 16h54c10 0 16 -6 16 -16l-1 -147c-1 -86 38 -129 114 -129c58 0 104 23 140 62l1 214c0 10 6 16 16 16h53c10 0 16 -6 16 -16l3 -499c0 -10 -6 -16 -16 -16z" />
    <glyph glyph-name="Aiecy" unicode="&#x4d4;" horiz-adv-x="943" 
d="M567 80h314c10 0 16 -6 16 -16v-48c0 -10 -6 -16 -16 -16h-386c-10 0 -16 6 -16 16v209h-243l-122 -214c-4 -8 -10 -11 -19 -11h-60c-13 0 -17 8 -11 19l399 698c4 8 10 11 19 11h438c10 0 16 -6 16 -16v-48c0 -10 -6 -16 -16 -16h-313v-227h263c10 0 16 -6 16 -16v-49
c0 -10 -6 -16 -16 -16h-263v-260zM479 305v349l-198 -349h198z" />
    <glyph glyph-name="aiecy" unicode="&#x4d5;" horiz-adv-x="917" 
d="M641 542c141 0 222 -110 221 -253c0 -7 0 -14 -1 -21c0 -10 -6 -15 -16 -15h-359c1 -117 66 -188 157 -188c59 0 93 23 122 71c4 8 10 11 19 11h51c12 0 17 -8 13 -19c-40 -91 -114 -141 -212 -141c-90 0 -164 48 -204 128h-5c-37 -75 -121 -123 -220 -123
c-95 0 -162 50 -163 146c0 125 114 171 327 184l26 2v51c0 54 -42 93 -120 93c-63 0 -105 -28 -122 -75c-3 -9 -9 -13 -18 -13h-51c-11 0 -17 7 -14 18c23 87 96 145 210 145c85 0 148 -32 179 -87c43 54 106 86 180 86zM491 322h281c0 78 -53 143 -138 143
c-80 0 -129 -63 -143 -143zM398 258l-24 -2c-169 -10 -243 -42 -243 -112c0 -49 35 -76 95 -76c98 0 171 81 171 169z" />
    <glyph glyph-name="zero" unicode="0" horiz-adv-x="612" 
d="M310 737c156 0 256 -135 256 -364c0 -235 -105 -382 -264 -382c-155 0 -256 142 -256 372c0 234 105 374 264 374zM303 659c-107 0 -169 -101 -169 -285c0 -197 68 -305 176 -305c107 0 169 106 169 291c0 196 -69 299 -176 299z" />
    <glyph glyph-name="one" unicode="1" horiz-adv-x="514" 
d="M376 0h-63c-10 0 -16 6 -16 16l4 640h-7l-183 -158c-8 -6 -16 -6 -23 2l-31 35c-7 8 -7 16 1 22l194 164c7 5 12 7 20 7h100c10 0 16 -6 16 -16l4 -696c0 -10 -6 -16 -16 -16z" />
    <glyph glyph-name="two" unicode="2" horiz-adv-x="602" 
d="M211 81h329c10 0 16 -6 16 -16v-49c0 -10 -6 -16 -16 -16h-439c-10 0 -16 6 -16 16v40c0 8 1 16 10 26l224 239c81 86 131 152 131 219c0 71 -50 122 -135 122c-71 0 -127 -37 -153 -105c-3 -9 -8 -13 -18 -13h-51c-11 0 -17 7 -13 18c27 94 107 178 240 178
c138 0 213 -92 213 -198c0 -90 -63 -169 -154 -271l-168 -186v-4z" />
    <glyph glyph-name="three" unicode="3" horiz-adv-x="589" 
d="M404 387c95 -30 139 -95 139 -179c0 -120 -83 -218 -242 -218c-146 0 -236 86 -253 180c-2 11 4 17 15 17h57c10 0 15 -5 18 -14c17 -68 79 -105 159 -105c100 0 161 55 161 144c0 85 -60 134 -199 134h-31c-10 0 -16 6 -16 16v42c0 10 6 16 16 16h31
c127 0 179 49 179 120s-52 122 -137 122c-73 0 -129 -37 -154 -105c-3 -9 -8 -13 -18 -13h-51c-11 0 -17 7 -14 18c27 92 106 178 241 178c139 0 216 -91 216 -192c0 -70 -37 -131 -117 -161z" />
    <glyph glyph-name="four" unicode="4" horiz-adv-x="640" 
d="M594 227v-44c0 -10 -6 -16 -16 -16h-102l1 -151c0 -10 -6 -16 -16 -16h-58c-10 0 -16 6 -16 16l1 151h-326c-10 0 -16 6 -16 16v42c0 20 2 28 9 39l321 449c8 11 13 15 25 15h56c10 0 16 -6 16 -16l3 -469h102c10 0 16 -6 16 -16zM388 243l2 358h-5l-251 -355v-3h254z
" />
    <glyph glyph-name="five" unicode="5" horiz-adv-x="591" 
d="M515 712v-49c0 -10 -6 -16 -16 -16h-309l-20 -219h7c42 24 86 36 135 36c145 0 233 -104 233 -239c0 -129 -82 -235 -243 -235c-145 0 -237 86 -254 180c-2 11 4 17 15 17h57c9 0 15 -5 17 -14c18 -65 75 -105 162 -105c102 0 161 55 161 157c0 100 -56 161 -159 161
c-54 0 -97 -17 -131 -41c-7 -5 -12 -7 -20 -6l-52 2c-10 1 -15 7 -14 17l33 355c1 10 6 15 16 15h366c10 0 16 -6 16 -16z" />
    <glyph glyph-name="six" unicode="6" horiz-adv-x="615" 
d="M325 447c146 0 244 -97 244 -230c0 -150 -108 -230 -242 -230c-160 0 -274 107 -274 351c0 250 107 403 277 403c119 0 195 -72 217 -167c3 -10 -3 -17 -14 -17h-50c-10 0 -15 4 -18 13c-21 59 -73 93 -138 93c-110 0 -176 -99 -188 -271h9c49 32 108 55 177 55zM323 66
c96 0 164 54 164 147c0 83 -56 156 -174 156c-69 0 -130 -24 -176 -60c6 -175 78 -243 186 -243z" />
    <glyph glyph-name="seven" unicode="7" horiz-adv-x="575" 
d="M62 728h451c10 0 16 -6 16 -16v-38c0 -9 -3 -19 -10 -31c-103 -189 -197 -398 -281 -630c-4 -9 -9 -13 -19 -13h-70c-12 0 -17 7 -13 19c90 228 189 436 295 622v7h-369c-10 0 -16 6 -16 16v48c0 10 6 16 16 16z" />
    <glyph glyph-name="eight" unicode="8" horiz-adv-x="616" 
d="M308 745c133 0 221 -87 221 -199c0 -77 -40 -128 -96 -156v-3c76 -28 130 -95 130 -190c0 -130 -101 -214 -255 -214c-152 0 -255 84 -255 214c0 98 59 162 125 190v4c-54 28 -91 78 -91 153c0 115 87 201 221 201zM308 670c-84 0 -138 -54 -138 -128
c0 -72 51 -128 138 -128c86 0 138 56 138 128c0 74 -55 128 -138 128zM308 349c-101 0 -168 -62 -168 -148c0 -84 63 -140 168 -140s168 56 168 140c0 86 -67 148 -168 148z" />
    <glyph glyph-name="nine" unicode="9" horiz-adv-x="628" 
d="M306 741c141 0 269 -92 269 -351c0 -260 -107 -403 -279 -403c-123 0 -202 74 -225 167c-3 11 3 17 14 17l53 2c9 0 15 -5 18 -14c20 -60 76 -93 143 -93c114 0 181 99 191 277h-10c-48 -32 -108 -55 -177 -55c-140 0 -234 92 -234 223c0 134 94 230 237 230zM317 366
c67 0 127 24 173 58c-9 187 -91 240 -183 240c-93 0 -156 -56 -156 -156c0 -76 52 -142 166 -142z" />
    <glyph glyph-name="zerosuperior" unicode="&#x2070;" horiz-adv-x="313" 
d="M158 731c64 0 109 -47 109 -132c0 -87 -47 -137 -112 -137c-63 0 -109 48 -109 134s47 135 112 135zM155 680c-31 0 -52 -28 -52 -81c0 -61 27 -86 55 -86c31 0 52 28 52 83c0 60 -26 84 -55 84z" />
    <glyph glyph-name="onesuperior" unicode="&#xb9;" horiz-adv-x="280" 
d="M206 710l2 -228c0 -10 -6 -16 -16 -16h-30c-10 0 -16 6 -16 16v197h-3l-50 -43c-8 -6 -16 -6 -23 2l-13 15c-7 8 -7 16 2 22l52 44c7 5 12 7 20 7h59c10 0 16 -6 16 -16z" />
    <glyph glyph-name="twosuperior" unicode="&#xb2;" horiz-adv-x="330" 
d="M183 731c64 0 95 -39 95 -79c0 -26 -13 -56 -53 -89l-53 -46v-4h96c10 0 16 -6 16 -16v-15c0 -10 -6 -16 -16 -16h-171c-10 0 -16 6 -16 16v15c0 5 0 10 6 15l97 84c25 20 37 34 37 51c0 19 -15 33 -41 33c-18 0 -36 -7 -46 -22c-5 -8 -10 -12 -19 -12h-24
c-11 0 -18 4 -16 11c10 35 45 74 108 74z" />
    <glyph glyph-name="threesuperior" unicode="&#xb3;" horiz-adv-x="309" 
d="M206 601c31 -9 57 -28 57 -62c0 -44 -38 -77 -106 -77c-65 0 -99 31 -108 64c-3 11 3 17 14 17h26c10 0 14 -4 19 -13c8 -14 24 -21 49 -21c29 0 49 10 49 33c0 22 -21 36 -73 36h-2c-10 0 -16 6 -16 16v9c0 10 6 16 16 16h2c51 0 65 15 65 33c0 19 -18 32 -44 32
c-17 0 -33 -6 -42 -18c-5 -8 -10 -12 -19 -12h-23c-12 0 -18 7 -14 18c12 29 43 59 103 59c66 0 95 -35 95 -70c0 -21 -11 -46 -48 -60z" />
    <glyph glyph-name="foursuperior" unicode="&#x2074;" horiz-adv-x="331" 
d="M285 540v-12c0 -10 -6 -16 -16 -16h-35v-30c0 -10 -6 -16 -16 -16h-23c-10 0 -16 6 -16 16v30h-117c-10 0 -16 6 -16 16v17c0 14 1 20 6 27l120 146c5 6 9 9 15 9h30c10 0 16 -6 16 -16l1 -155h35c10 0 16 -6 16 -16zM180 556l1 99h-3l-79 -97v-2h81z" />
    <glyph glyph-name="fivesuperior" unicode="&#x2075;" horiz-adv-x="308" 
d="M176 640c49 0 85 -32 85 -84c0 -54 -37 -94 -107 -94c-59 0 -94 28 -104 60c-4 10 3 17 14 17h26c9 0 14 -4 19 -11c11 -13 28 -19 48 -19c31 0 47 17 47 41c0 25 -17 43 -48 43c-14 0 -27 -3 -38 -7c-7 -2 -12 -4 -19 -4h-27c-11 0 -16 6 -15 17l13 113c1 10 7 15 17 15
h148c10 0 16 -6 16 -16v-15c0 -10 -6 -16 -16 -16h-115l-7 -55h4c16 10 37 15 59 15z" />
    <glyph glyph-name="sixsuperior" unicode="&#x2076;" horiz-adv-x="321" 
d="M182 629c56 0 93 -34 93 -81c0 -54 -50 -86 -106 -86c-62 0 -116 39 -116 128c0 87 46 141 118 141c47 0 82 -24 94 -54c4 -11 -3 -18 -14 -18h-23c-9 0 -14 4 -19 11c-8 9 -22 15 -38 15c-36 0 -57 -29 -61 -73h4c17 9 42 17 68 17zM174 508c23 0 44 10 44 37
c0 19 -14 40 -49 40c-19 0 -41 -5 -58 -15c7 -46 34 -62 63 -62z" />
    <glyph glyph-name="sevensuperior" unicode="&#x2077;" horiz-adv-x="300" 
d="M62 727h175c10 0 16 -6 16 -16v-14c0 -6 -2 -12 -6 -20c-35 -60 -69 -130 -96 -198c-3 -9 -9 -13 -18 -13h-35c-13 0 -17 8 -12 19c30 65 64 130 100 187v4h-124c-10 0 -16 6 -16 16v19c0 10 6 16 16 16z" />
    <glyph glyph-name="eightsuperior" unicode="&#x2078;" horiz-adv-x="318" 
d="M159 731c58 0 96 -31 96 -72c0 -22 -12 -44 -41 -55v-3c28 -8 51 -31 51 -65c0 -43 -38 -74 -105 -74c-66 0 -107 30 -107 74c0 35 26 56 52 65v4c-30 9 -41 30 -41 52c0 43 38 74 95 74zM159 689c-27 0 -43 -13 -43 -32c0 -18 15 -32 43 -32c29 0 43 14 43 32
c0 20 -16 32 -43 32zM159 577c-33 0 -51 -17 -51 -38s18 -37 51 -37c34 0 51 16 51 37s-17 38 -51 38z" />
    <glyph glyph-name="ninesuperior" unicode="&#x2079;" horiz-adv-x="342" 
d="M175 731c61 0 114 -38 114 -128c0 -87 -46 -141 -121 -141c-51 0 -84 25 -97 54c-4 11 2 18 14 18h22c9 0 14 -4 20 -11c9 -9 24 -15 41 -15c40 0 61 31 64 74h-4c-17 -10 -40 -17 -67 -17c-55 0 -91 32 -91 81c0 54 49 85 105 85zM175 609c19 0 39 5 56 15
c-8 48 -36 62 -61 62c-26 0 -44 -14 -44 -37c0 -19 14 -40 49 -40z" />
    <glyph glyph-name="asterisk" unicode="*" horiz-adv-x="446" 
d="M264 570l96 -43c10 -5 13 -12 7 -22l-16 -28c-6 -10 -14 -11 -23 -5l-83 61l9 -103c1 -11 -4 -17 -15 -17h-33c-11 0 -16 6 -15 17l11 104l-85 -61c-9 -6 -17 -5 -22 5l-16 28c-6 10 -3 17 7 22l96 42l-97 43c-9 4 -12 12 -6 22l16 28c6 10 14 11 23 5l85 -62l-10 105
c-1 11 4 17 15 17l32 -1c11 0 16 -6 15 -17l-10 -104l85 61c9 6 17 5 22 -5l16 -28c5 -10 2 -17 -7 -22z" />
    <glyph glyph-name="backslash" unicode="\" horiz-adv-x="403" 
d="M44 731h60c10 0 15 -4 19 -13l248 -700c4 -11 -1 -18 -12 -18h-60c-10 0 -15 4 -19 13l-248 700c-4 11 1 18 12 18z" />
    <glyph glyph-name="periodcentered" unicode="&#xb7;" horiz-adv-x="360" 
d="M229 316v-73c0 -10 -6 -16 -16 -16h-66c-10 0 -16 6 -16 16v73c0 10 6 16 16 16h66c10 0 16 -6 16 -16z" />
    <glyph glyph-name="bullet" unicode="&#x2022;" horiz-adv-x="528" 
d="M264 423c74 0 133 -59 133 -133s-59 -133 -133 -133s-133 59 -133 133s59 133 133 133z" />
    <glyph glyph-name="colon" unicode=":" horiz-adv-x="294" 
d="M204 531v-77c0 -10 -6 -16 -16 -16h-70c-10 0 -16 6 -16 16v77c0 10 6 16 16 16h70c10 0 16 -6 16 -16zM203 105v-77c0 -10 -6 -16 -16 -16h-70c-10 0 -16 6 -16 16v77c0 10 6 16 16 16h70c10 0 16 -6 16 -16z" />
    <glyph glyph-name="comma" unicode="," horiz-adv-x="338" 
d="M222 89v-62c0 -90 -20 -137 -64 -182c-7 -7 -14 -8 -22 -4l-5 3c-9 5 -11 13 -4 22c34 50 42 99 4 126c-7 6 -11 11 -11 20v77c0 10 6 16 16 16h70c10 0 16 -6 16 -16z" />
    <glyph glyph-name="ellipsis" unicode="&#x2026;" horiz-adv-x="871" 
d="M203 113v-77c0 -10 -6 -16 -16 -16h-70c-10 0 -16 6 -16 16v77c0 10 6 16 16 16h70c10 0 16 -6 16 -16zM492 113v-77c0 -10 -6 -16 -16 -16h-70c-10 0 -16 6 -16 16v77c0 10 6 16 16 16h70c10 0 16 -6 16 -16zM781 113v-77c0 -10 -6 -16 -16 -16h-70c-10 0 -16 6 -16 16
v77c0 10 6 16 16 16h70c10 0 16 -6 16 -16z" />
    <glyph glyph-name="exclam" unicode="!" horiz-adv-x="334" 
d="M213 716l3 -478c0 -10 -6 -16 -16 -16h-59c-10 0 -16 6 -16 16l3 478c0 10 6 16 16 16h53c10 0 16 -6 16 -16zM218 93v-77c0 -10 -6 -16 -16 -16h-70c-10 0 -16 6 -16 16v77c0 10 6 16 16 16h70c10 0 16 -6 16 -16z" />
    <glyph glyph-name="exclamdown" unicode="&#xa1;" horiz-adv-x="303" 
d="M100 445v77c0 10 6 16 16 16h71c10 0 16 -6 16 -16v-77c0 -10 -6 -16 -16 -16h-71c-10 0 -16 6 -16 16zM105 -178l-3 478c0 10 6 16 16 16h60c10 0 16 -6 16 -16l-3 -478c0 -10 -6 -16 -16 -16h-54c-10 0 -16 6 -16 16z" />
    <glyph glyph-name="numbersign" unicode="#" horiz-adv-x="751" 
d="M543 458l-29 -141h127c11 0 17 -7 14 -17l-7 -38c-2 -9 -8 -14 -18 -14h-130l-48 -234c-2 -9 -8 -14 -18 -14h-42c-11 0 -17 7 -14 18l48 230h-161l-48 -234c-2 -9 -8 -14 -18 -14h-41c-11 0 -17 7 -14 18l48 230h-124c-11 0 -17 7 -14 18l8 37c2 9 8 14 17 14h127
l29 141h-124c-11 0 -17 7 -14 17l7 38c2 9 8 14 18 14h128l39 190c2 9 8 14 18 14h39c11 0 17 -7 14 -18l-38 -186h162l40 190c2 9 8 14 17 14h40c11 0 17 -7 14 -18l-38 -186h126c11 0 17 -7 14 -17l-7 -38c-2 -9 -8 -14 -18 -14h-129zM470 458h-162l-29 -141h161z" />
    <glyph glyph-name="period" unicode="." horiz-adv-x="299" 
d="M199 89v-72c0 -10 -6 -16 -16 -16h-67c-10 0 -16 6 -16 16v72c0 10 6 16 16 16h67c10 0 16 -6 16 -16z" />
    <glyph glyph-name="question" unicode="?" horiz-adv-x="573" 
d="M299 740c145 0 224 -91 224 -204c0 -107 -72 -186 -202 -253v-70c0 -10 -6 -16 -16 -16h-62c-10 0 -16 6 -16 16l1 92c0 9 4 15 12 19c141 68 195 129 195 208c0 78 -53 127 -140 127c-73 0 -132 -35 -155 -102c-3 -9 -9 -13 -18 -13h-54c-11 0 -17 5 -15 12
c22 95 104 184 246 184zM308 81v-73c0 -10 -6 -16 -16 -16h-67c-10 0 -16 6 -16 16v73c0 10 6 16 16 16h67c10 0 16 -6 16 -16z" />
    <glyph glyph-name="questiondown" unicode="&#xbf;" horiz-adv-x="573" 
d="M265 450v72c0 10 6 16 16 16h66c10 0 16 -6 16 -16v-72c0 -10 -6 -16 -16 -16h-66c-10 0 -16 6 -16 16zM273 -210c-144 0 -223 91 -223 205c0 107 72 185 202 253v70c0 10 6 16 16 16h61c10 0 16 -6 16 -16v-93c0 -9 -4 -15 -12 -19c-142 -67 -196 -128 -196 -207
c0 -78 53 -127 141 -127c73 0 132 35 154 100c3 10 9 14 18 14h55c11 0 17 -5 15 -12c-22 -95 -104 -184 -247 -184z" />
    <glyph glyph-name="quotedbl" unicode="&#x22;" horiz-adv-x="455" 
d="M217 723l-34 -215c-1 -10 -7 -15 -17 -15h-38c-11 0 -16 6 -15 17l28 215c1 10 7 15 17 15h45c11 0 16 -6 14 -17zM381 723l-35 -215c-1 -10 -7 -15 -17 -15h-37c-11 0 -16 6 -15 17l27 215c1 10 7 15 17 15h46c11 0 16 -6 14 -17z" />
    <glyph glyph-name="quotesingle" unicode="'" horiz-adv-x="292" 
d="M217 723l-34 -215c-1 -10 -7 -15 -17 -15h-38c-11 0 -16 6 -15 17l28 215c1 10 7 15 17 15h45c11 0 16 -6 14 -17z" />
    <glyph glyph-name="semicolon" unicode=";" horiz-adv-x="307" 
d="M207 531v-77c0 -10 -6 -16 -16 -16h-71c-10 0 -16 6 -16 16v77c0 10 6 16 16 16h71c10 0 16 -6 16 -16zM207 89v-62c0 -89 -21 -137 -64 -182c-7 -7 -14 -8 -22 -3l-4 2c-10 5 -12 13 -5 22c34 50 41 99 3 126c-7 6 -11 11 -11 20v77c0 10 6 16 16 16h71
c10 0 16 -6 16 -16z" />
    <glyph glyph-name="slash" unicode="/" horiz-adv-x="403" 
d="M371 713l-248 -700c-4 -9 -9 -13 -19 -13h-60c-11 0 -16 7 -12 18l249 700c4 9 9 13 19 13h59c11 0 16 -7 12 -18z" />
    <glyph glyph-name="underscore" unicode="_" horiz-adv-x="612" 
d="M568 -92v-30c0 -10 -6 -16 -16 -16h-492c-10 0 -16 6 -16 16v30c0 10 6 16 16 16h492c10 0 16 -6 16 -16z" />
    <glyph glyph-name="braceleft" unicode="{" horiz-adv-x="439" 
d="M369 734v-42c0 -10 -6 -16 -16 -16h-4c-70 0 -102 -26 -102 -112v-171c0 -84 -23 -112 -58 -130v-7c35 -16 58 -54 58 -136v-165c0 -87 32 -113 102 -113h4c10 0 16 -6 16 -16v-42c0 -10 -6 -16 -16 -16h-16c-115 0 -171 48 -171 182v153c0 74 -8 109 -54 117
c-10 2 -15 7 -15 17v45c0 10 5 15 15 17c46 9 54 43 54 117v155c0 134 56 179 171 179h16c10 0 16 -6 16 -16z" />
    <glyph glyph-name="braceright" unicode="}" horiz-adv-x="439" 
d="M70 -216v42c0 10 6 16 16 16h4c70 0 102 26 102 113v170c0 84 23 112 58 130v7c-35 16 -58 54 -58 136v166c0 86 -32 112 -102 112h-4c-10 0 -16 6 -16 16v42c0 10 6 16 16 16h16c115 0 171 -47 171 -182v-153c0 -74 8 -108 54 -117c10 -2 15 -7 15 -17v-45
c0 -10 -5 -15 -15 -17c-46 -8 -54 -43 -54 -117v-155c0 -134 -56 -179 -171 -179h-16c-10 0 -16 6 -16 16z" />
    <glyph glyph-name="bracketleft" unicode="[" horiz-adv-x="413" 
d="M176 661l3 -812h148c10 0 16 -6 16 -16v-37c0 -10 -6 -16 -16 -16h-214c-10 0 -16 6 -16 16l3 918c0 10 6 16 16 16h211c10 0 16 -6 16 -16v-37c0 -10 -6 -16 -16 -16h-151z" />
    <glyph glyph-name="bracketright" unicode="]" horiz-adv-x="413" 
d="M86 730h214c10 0 16 -6 16 -16l-3 -918c0 -10 -6 -16 -16 -16h-211c-10 0 -16 6 -16 16v37c0 10 6 16 16 16h151l-3 812h-148c-10 0 -16 6 -16 16v37c0 10 6 16 16 16z" />
    <glyph glyph-name="braceleft.case" horiz-adv-x="439" 
d="M369 834v-42c0 -10 -6 -16 -16 -16h-4c-70 0 -102 -26 -102 -112v-171c0 -84 -23 -112 -58 -130v-7c35 -16 58 -54 58 -136v-165c0 -87 32 -113 102 -113h4c10 0 16 -6 16 -16v-42c0 -10 -6 -16 -16 -16h-16c-115 0 -171 48 -171 182v153c0 74 -8 109 -54 117
c-10 2 -15 7 -15 17v45c0 10 5 15 15 17c46 9 54 43 54 117v155c0 134 56 179 171 179h16c10 0 16 -6 16 -16z" />
    <glyph glyph-name="braceright.case" horiz-adv-x="439" 
d="M70 -116v42c0 10 6 16 16 16h4c70 0 102 26 102 113v170c0 84 23 112 58 130v7c-35 16 -58 54 -58 136v166c0 86 -32 112 -102 112h-4c-10 0 -16 6 -16 16v42c0 10 6 16 16 16h16c115 0 171 -47 171 -182v-153c0 -74 8 -108 54 -117c10 -2 15 -7 15 -17v-45
c0 -10 -5 -15 -15 -17c-46 -8 -54 -43 -54 -117v-155c0 -134 -56 -179 -171 -179h-16c-10 0 -16 6 -16 16z" />
    <glyph glyph-name="bracketleft.case" horiz-adv-x="413" 
d="M176 761l3 -812h148c10 0 16 -6 16 -16v-37c0 -10 -6 -16 -16 -16h-214c-10 0 -16 6 -16 16l3 918c0 10 6 16 16 16h211c10 0 16 -6 16 -16v-37c0 -10 -6 -16 -16 -16h-151z" />
    <glyph glyph-name="bracketright.case" horiz-adv-x="413" 
d="M86 830h214c10 0 16 -6 16 -16l-3 -918c0 -10 -6 -16 -16 -16h-211c-10 0 -16 6 -16 16v37c0 10 6 16 16 16h151l-3 812h-148c-10 0 -16 6 -16 16v37c0 10 6 16 16 16z" />
    <glyph glyph-name="parenleft.case" horiz-adv-x="428" 
d="M319 839l16 -12c8 -6 9 -13 3 -22c-89 -116 -139 -269 -139 -447c0 -176 50 -330 139 -447c6 -9 5 -16 -4 -22l-15 -11c-8 -5 -16 -5 -23 2c-117 112 -192 289 -192 478c0 190 75 367 192 479c7 7 15 7 23 2z" />
    <glyph glyph-name="parenright.case" horiz-adv-x="428" 
d="M109 -122l-15 11c-9 6 -10 13 -4 22c89 116 139 270 139 447s-50 331 -139 447c-6 9 -5 16 3 22l16 12c8 5 16 5 23 -2c117 -112 192 -290 192 -479c0 -190 -75 -366 -192 -478c-7 -7 -15 -7 -23 -2z" />
    <glyph glyph-name="parenleft" unicode="(" horiz-adv-x="428" 
d="M319 739l16 -12c8 -6 9 -13 3 -22c-89 -116 -139 -269 -139 -447c0 -176 50 -330 139 -447c6 -9 5 -16 -4 -22l-15 -11c-8 -5 -16 -5 -23 2c-117 112 -192 289 -192 478c0 190 75 367 192 479c7 7 15 7 23 2z" />
    <glyph glyph-name="parenright" unicode=")" horiz-adv-x="428" 
d="M109 -222l-15 11c-9 6 -10 13 -4 22c89 116 139 270 139 447s-50 331 -139 447c-6 9 -5 16 3 22l16 12c8 5 16 5 23 -2c117 -112 192 -290 192 -479c0 -190 -75 -366 -192 -478c-7 -7 -15 -7 -23 -2z" />
    <glyph glyph-name="emdash" unicode="&#x2014;" horiz-adv-x="891" 
d="M794 303v-45c0 -10 -6 -16 -16 -16h-665c-10 0 -16 6 -16 16v45c0 10 6 16 16 16h665c10 0 16 -6 16 -16z" />
    <glyph glyph-name="endash" unicode="&#x2013;" horiz-adv-x="717" 
d="M620 303v-45c0 -10 -6 -16 -16 -16h-491c-10 0 -16 6 -16 16v45c0 10 6 16 16 16h491c10 0 16 -6 16 -16z" />
    <glyph glyph-name="hyphen" unicode="-" horiz-adv-x="589" 
d="M469 305v-45c0 -10 -6 -16 -16 -16h-317c-10 0 -16 6 -16 16v45c0 10 6 16 16 16h317c10 0 16 -6 16 -16z" />
    <glyph glyph-name="guillemetleft.case" horiz-adv-x="617" 
d="M96 334v66c0 8 3 14 10 19l171 111c11 8 19 3 19 -10v-47c0 -8 -3 -14 -10 -19l-133 -87l133 -86c7 -5 10 -11 10 -19v-47c0 -13 -8 -18 -19 -10l-171 110c-7 5 -10 11 -10 19zM521 520v-47c0 -8 -3 -14 -10 -19l-133 -87l133 -86c7 -5 10 -11 10 -19v-47
c0 -13 -8 -18 -19 -10l-171 110c-7 5 -10 11 -10 19v66c0 8 3 14 10 19l171 111c11 8 19 3 19 -10z" />
    <glyph glyph-name="guillemetright.case" horiz-adv-x="617" 
d="M96 473v47c0 13 8 18 19 10l171 -110c7 -5 10 -11 10 -19v-66c0 -8 -3 -14 -10 -19l-171 -111c-11 -8 -19 -3 -19 10v48c0 8 3 14 10 19l133 86l-133 86c-7 5 -10 11 -10 19zM340 530l171 -110c7 -5 10 -11 10 -19v-66c0 -8 -3 -14 -10 -19l-171 -111
c-11 -8 -19 -3 -19 10v48c0 8 3 14 10 19l133 86l-133 86c-7 5 -10 11 -10 19v47c0 13 8 18 19 10z" />
    <glyph glyph-name="guilsinglleft.case" horiz-adv-x="391" 
d="M296 512v-40c0 -8 -3 -14 -10 -19l-133 -86l133 -86c7 -5 10 -11 10 -19v-39c0 -13 -8 -18 -19 -10l-171 110c-7 5 -10 11 -10 19v50c0 8 3 14 10 19l171 111c11 8 19 3 19 -10z" />
    <glyph glyph-name="guilsinglright.case" horiz-adv-x="391" 
d="M115 522l171 -110c7 -5 10 -11 10 -19v-50c0 -8 -3 -14 -10 -19l-171 -111c-11 -8 -19 -3 -19 10v40c0 8 3 14 10 19l133 86l-133 86c-7 5 -10 11 -10 19v39c0 13 8 18 19 10z" />
    <glyph glyph-name="guillemetleft" unicode="&#xab;" horiz-adv-x="617" 
d="M96 234v66c0 8 3 14 10 19l171 111c11 8 19 3 19 -10v-47c0 -8 -3 -14 -10 -19l-133 -87l133 -86c7 -5 10 -11 10 -19v-47c0 -13 -8 -18 -19 -10l-171 110c-7 5 -10 11 -10 19zM521 420v-47c0 -8 -3 -14 -10 -19l-133 -87l133 -86c7 -5 10 -11 10 -19v-47
c0 -13 -8 -18 -19 -10l-171 110c-7 5 -10 11 -10 19v66c0 8 3 14 10 19l171 111c11 8 19 3 19 -10z" />
    <glyph glyph-name="guillemetright" unicode="&#xbb;" horiz-adv-x="617" 
d="M96 373v47c0 13 8 18 19 10l171 -110c7 -5 10 -11 10 -19v-66c0 -8 -3 -14 -10 -19l-171 -111c-11 -8 -19 -3 -19 10v48c0 8 3 14 10 19l133 86l-133 86c-7 5 -10 11 -10 19zM340 430l171 -110c7 -5 10 -11 10 -19v-66c0 -8 -3 -14 -10 -19l-171 -111
c-11 -8 -19 -3 -19 10v48c0 8 3 14 10 19l133 86l-133 86c-7 5 -10 11 -10 19v47c0 13 8 18 19 10z" />
    <glyph glyph-name="guilsinglleft" unicode="&#x2039;" horiz-adv-x="391" 
d="M296 420v-47c0 -8 -3 -14 -10 -19l-133 -87l133 -86c7 -5 10 -11 10 -19v-47c0 -13 -8 -18 -19 -10l-171 110c-7 5 -10 11 -10 19v66c0 8 3 14 10 19l171 111c11 8 19 3 19 -10z" />
    <glyph glyph-name="guilsinglright" unicode="&#x203a;" horiz-adv-x="391" 
d="M115 430l171 -110c7 -5 10 -11 10 -19v-66c0 -8 -3 -14 -10 -19l-171 -111c-11 -8 -19 -3 -19 10v48c0 8 3 14 10 19l133 86l-133 86c-7 5 -10 11 -10 19v47c0 13 8 18 19 10z" />
    <glyph glyph-name="quotedblbase" unicode="&#x201e;" horiz-adv-x="300" 
d="M136 105h70c10 0 16 -6 16 -16v-62c0 -90 -20 -137 -64 -182c-7 -7 -14 -8 -22 -4l-5 3c-9 5 -11 13 -4 22c34 50 42 99 4 126c-7 6 -11 11 -11 20v77c0 10 6 16 16 16z" />
    <glyph glyph-name="quotedblleft" unicode="&#x201c;" horiz-adv-x="479" 
d="M107 486v62c0 90 20 137 64 182c7 7 14 8 22 4l5 -3c9 -5 11 -13 4 -22c-34 -50 -42 -99 -4 -126c7 -6 11 -11 11 -20v-77c0 -10 -6 -16 -16 -16h-70c-10 0 -16 6 -16 16zM297 486v62c0 90 20 137 64 182c7 7 14 8 22 4l5 -3c9 -5 11 -13 4 -22c-34 -50 -42 -99 -4 -126
c7 -6 11 -11 11 -20v-77c0 -10 -6 -16 -16 -16h-70c-10 0 -16 6 -16 16z" />
    <glyph glyph-name="quotedblright" unicode="&#x201d;" horiz-adv-x="420" 
d="M182 711v-63c0 -89 -21 -137 -64 -181c-7 -7 -14 -8 -22 -4l-5 3c-9 5 -11 13 -4 22c34 50 41 99 3 126c-7 6 -11 11 -11 20v77c0 10 6 16 16 16h71c10 0 16 -6 16 -16zM372 711v-63c0 -89 -21 -137 -64 -181c-7 -7 -14 -8 -22 -4l-5 3c-9 5 -11 13 -4 22
c34 50 41 99 3 126c-7 6 -11 11 -11 20v77c0 10 6 16 16 16h71c10 0 16 -6 16 -16z" />
    <glyph glyph-name="quoteleft" unicode="&#x2018;" horiz-adv-x="289" 
d="M107 486v62c0 89 21 137 64 182c7 7 14 8 22 3l4 -2c10 -5 12 -13 5 -22c-34 -50 -41 -99 -3 -126c7 -6 11 -11 11 -20v-77c0 -10 -6 -16 -16 -16h-71c-10 0 -16 6 -16 16z" />
    <glyph glyph-name="quoteright" unicode="&#x2019;" horiz-adv-x="231" 
d="M182 715v-62c0 -90 -20 -138 -64 -182c-7 -7 -14 -8 -22 -4l-5 3c-9 5 -11 13 -4 22c34 50 42 99 4 126c-7 6 -11 11 -11 20v77c0 10 6 16 16 16h70c10 0 16 -6 16 -16z" />
    <glyph glyph-name="quotesinglbase" unicode="&#x201a;" horiz-adv-x="300" 
d="M222 89v-62c0 -90 -20 -137 -64 -182c-7 -7 -14 -8 -22 -4l-5 3c-9 5 -11 13 -4 22c34 50 42 99 4 126c-7 6 -11 11 -11 20v77c0 10 6 16 16 16h70c10 0 16 -6 16 -16z" />
    <glyph glyph-name="space" unicode=" " horiz-adv-x="207" 
 />
    <glyph glyph-name="cent" unicode="&#xa2;" horiz-adv-x="532" 
d="M292 155c68 0 105 29 126 72c5 8 10 12 19 12h52c11 0 17 -7 13 -18c-25 -67 -86 -130 -181 -143l3 -119c0 -10 -6 -16 -16 -16h-40c-10 0 -16 6 -16 16l3 119c-130 14 -211 119 -211 270c0 160 84 267 211 282l-3 120c0 10 6 16 16 16h40c10 0 16 -6 16 -16l-3 -120
c99 -12 163 -79 185 -151c3 -11 -3 -18 -14 -18h-52c-9 0 -14 4 -19 12c-25 52 -67 81 -132 81c-98 0 -158 -68 -158 -203c0 -130 60 -196 161 -196z" />
    <glyph glyph-name="currency" unicode="&#xa4;" horiz-adv-x="701" 
d="M518 264c0 -34 -10 -65 -28 -91l50 -50c7 -7 7 -15 0 -22l-27 -27c-7 -8 -15 -8 -22 -1l-50 50c-26 -16 -57 -26 -90 -26s-64 10 -91 26l-49 -50c-7 -7 -15 -7 -22 1l-27 27c-7 7 -7 15 0 22l49 48c-18 27 -28 59 -28 93c0 33 10 65 27 91l-49 48c-7 7 -7 15 0 22l28 28
c7 7 15 7 22 0l49 -49c26 17 57 27 91 27c33 0 65 -10 91 -28l49 50c7 7 15 7 22 -1l27 -27c7 -7 7 -15 0 -22l-48 -49c16 -26 26 -57 26 -90zM245 264c0 -57 48 -105 106 -105c57 0 104 48 104 105c0 58 -47 105 -104 105c-58 0 -106 -47 -106 -105z" />
    <glyph glyph-name="dollar" unicode="$" horiz-adv-x="627" 
d="M581 204c0 -110 -92 -176 -233 -181l3 -116c0 -10 -6 -16 -16 -16h-44c-10 0 -16 6 -16 16l3 119c-140 17 -208 101 -228 171c-3 10 3 17 14 17h52c9 0 14 -4 18 -12c29 -58 87 -108 202 -108c101 0 158 36 158 99c0 60 -51 99 -172 137l-39 12c-129 39 -204 87 -207 180
c-3 100 85 164 202 175l-3 117c0 10 6 16 16 16h44c10 0 16 -6 16 -16l-3 -117c115 -10 186 -78 215 -151c4 -11 -2 -18 -13 -18h-50c-9 0 -15 3 -19 11c-29 48 -85 89 -174 89c-95 0 -145 -39 -145 -95c0 -59 51 -86 167 -119l37 -11c154 -45 215 -110 215 -199z" />
    <glyph glyph-name="euro" unicode="&#x20ac;" horiz-adv-x="699" 
d="M470 66c45 0 85 9 124 24c10 4 17 1 20 -10l9 -40c2 -10 -1 -16 -9 -21c-47 -23 -99 -32 -151 -32c-173 0 -295 108 -331 270h-70c-10 0 -16 6 -16 16v38c0 10 6 16 16 16h60c-1 11 -1 23 -1 34c0 14 1 27 2 40h-61c-10 0 -16 6 -16 16v38c0 10 6 16 16 16h71
c39 165 167 270 335 270c47 0 97 -8 146 -31c9 -4 12 -11 9 -20l-12 -45c-3 -10 -11 -13 -21 -9c-38 15 -83 27 -129 27c-117 0 -208 -69 -240 -192l227 1c10 0 16 -6 16 -16v-38c0 -10 -6 -16 -16 -16l-238 -1c-1 -10 -1 -21 -1 -32c0 -14 1 -28 2 -42l237 1
c10 0 16 -6 16 -16v-38c0 -10 -6 -16 -16 -16l-225 -1c34 -119 124 -191 247 -191z" />
    <glyph glyph-name="ruble" unicode="&#x20bd;" horiz-adv-x="656" 
d="M92 727h276c145 0 242 -88 242 -217s-97 -226 -242 -226h-203l1 -75h170c10 0 16 -6 16 -16v-45c0 -10 -6 -16 -16 -16h-170l1 -116c0 -10 -6 -16 -16 -16h-63c-10 0 -16 6 -16 16l1 116h-61c-10 0 -16 6 -16 16v45c0 10 6 16 16 16h61l3 502c0 10 6 16 16 16zM165 361
h196c103 0 161 55 161 140c0 90 -65 148 -161 148h-198z" />
    <glyph glyph-name="sterling" unicode="&#xa3;" horiz-adv-x="664" 
d="M195 81h381c10 0 16 -6 16 -16v-49c0 -10 -6 -16 -16 -16h-488c-10 0 -16 6 -16 16v44c0 8 3 14 11 19c70 49 75 87 75 179v49h-35c-10 0 -16 6 -16 16v45c0 10 6 16 16 16h35v132c0 133 86 224 218 224c130 0 193 -85 213 -179c2 -11 -4 -17 -15 -17h-51
c-9 0 -15 5 -17 14c-18 66 -64 104 -133 104c-79 0 -131 -50 -131 -154v-124h198c10 0 16 -6 16 -16v-45c0 -10 -6 -16 -16 -16h-198v-63c0 -75 -15 -124 -47 -158v-5z" />
    <glyph glyph-name="yen" unicode="&#xa5;" horiz-adv-x="598" 
d="M378 364h87c10 0 16 -6 16 -16v-33c0 -10 -6 -16 -16 -16h-120v-67h120c10 0 16 -6 16 -16v-33c0 -10 -6 -16 -16 -16h-119l1 -151c0 -10 -6 -16 -16 -16h-61c-10 0 -16 6 -16 16l1 151h-107c-10 0 -16 6 -16 16v33c0 10 6 16 16 16h107v67h-107c-10 0 -16 6 -16 16v33
c0 10 6 16 16 16h74l-198 344c-6 11 -2 19 11 19h62c9 0 15 -3 19 -11l182 -316h6l183 316c4 8 10 11 19 11h57c13 0 17 -8 11 -19z" />
    <glyph glyph-name="asciitilde" unicode="~" horiz-adv-x="608" 
d="M226 370c84 0 109 -80 155 -80c24 0 32 20 34 45c1 10 6 16 17 16h40c10 0 16 -6 15 -16c-4 -58 -32 -116 -106 -116c-80 0 -100 81 -154 81c-27 0 -37 -21 -40 -45c-1 -11 -6 -16 -17 -16h-39c-10 0 -16 5 -16 14c4 64 32 117 111 117z" />
    <glyph glyph-name="divide" unicode="&#xf7;" horiz-adv-x="763" 
d="M420 492v-73c0 -10 -6 -16 -16 -16h-67c-10 0 -16 6 -16 16v73c0 10 6 16 16 16h67c10 0 16 -6 16 -16zM643 291v-46c0 -10 -6 -16 -16 -16h-491c-10 0 -16 6 -16 16v46c0 10 6 16 16 16h491c10 0 16 -6 16 -16zM420 107v-72c0 -10 -6 -16 -16 -16h-67
c-10 0 -16 6 -16 16v72c0 10 6 16 16 16h67c10 0 16 -6 16 -16z" />
    <glyph glyph-name="equal" unicode="=" horiz-adv-x="735" 
d="M616 389v-42c0 -10 -6 -16 -16 -16h-464c-10 0 -16 6 -16 16v42c0 10 6 16 16 16h464c10 0 16 -6 16 -16zM616 169v-42c0 -10 -6 -16 -16 -16h-464c-10 0 -16 6 -16 16v42c0 10 6 16 16 16h464c10 0 16 -6 16 -16z" />
    <glyph glyph-name="greater" unicode="&#x3e;" horiz-adv-x="715" 
d="M139 501l444 -192c8 -3 12 -9 12 -18v-48c0 -9 -4 -15 -12 -18l-444 -196c-11 -5 -19 0 -19 12v45c0 9 4 15 12 18l377 163l-377 160c-8 3 -12 9 -12 18v44c0 12 8 17 19 12z" />
    <glyph glyph-name="greaterequal" unicode="&#x2265;" horiz-adv-x="660" 
d="M138 496l389 -136c9 -4 13 -9 13 -19v-37c0 -10 -4 -15 -13 -18l-389 -130c-11 -4 -18 1 -18 13v34c0 10 4 15 13 18l311 103l-311 106c-9 3 -13 8 -13 18v35c0 11 7 16 18 13zM120 45v34c0 10 6 16 16 16h388c10 0 16 -6 16 -16v-34c0 -10 -6 -16 -16 -16h-388
c-10 0 -16 6 -16 16z" />
    <glyph glyph-name="infinity" unicode="&#x221e;" horiz-adv-x="1078" 
d="M764 510c116 0 194 -94 194 -214c0 -119 -76 -210 -202 -210c-87 0 -146 45 -223 142c-68 -88 -132 -142 -220 -142c-116 0 -193 94 -193 213s77 211 203 211c88 0 146 -46 222 -144c67 89 130 144 219 144zM322 172c64 0 116 50 167 127c-59 88 -106 129 -167 129
c-69 0 -115 -51 -115 -123c0 -79 45 -133 115 -133zM756 168c70 0 115 51 115 123c0 79 -46 133 -115 133c-64 0 -115 -51 -167 -127c58 -89 105 -129 167 -129z" />
    <glyph glyph-name="less" unicode="&#x3c;" horiz-adv-x="715" 
d="M595 489v-44c0 -9 -4 -15 -12 -18l-377 -164l377 -159c8 -3 12 -9 12 -18v-45c0 -12 -8 -17 -19 -12l-444 192c-8 3 -12 9 -12 18v48c0 9 4 15 12 18l444 196c11 5 19 0 19 -12z" />
    <glyph glyph-name="lessequal" unicode="&#x2264;" horiz-adv-x="660" 
d="M540 483v-35c0 -10 -4 -15 -13 -18l-311 -106l311 -103c9 -3 13 -8 13 -18v-34c0 -12 -7 -17 -18 -13l-389 130c-9 3 -13 8 -13 18v37c0 10 4 15 13 19l389 136c11 3 18 -2 18 -13zM120 45v34c0 10 6 16 16 16h388c10 0 16 -6 16 -16v-34c0 -10 -6 -16 -16 -16h-388
c-10 0 -16 6 -16 16z" />
    <glyph glyph-name="micro" unicode="&#xb5;" horiz-adv-x="578" 
d="M488 0h-60c-10 0 -16 6 -16 16l2 63h-7c-40 -57 -94 -92 -165 -92c-38 0 -71 10 -98 30c14 -73 22 -148 23 -221c0 -10 -6 -16 -16 -16h-61c-10 0 -16 6 -16 16l2 380v13l2 326c0 10 6 16 16 16h53c10 0 16 -6 16 -16l2 -305c0 -97 39 -139 106 -139c74 0 130 53 143 162
l1 282c0 10 6 16 16 16h54c10 0 16 -6 16 -16l3 -499c0 -10 -6 -16 -16 -16z" />
    <glyph glyph-name="minus" unicode="&#x2212;" horiz-adv-x="763" 
d="M678 290v-45c0 -10 -6 -16 -16 -16h-491c-10 0 -16 6 -16 16v45c0 10 6 16 16 16h491c10 0 16 -6 16 -16z" />
    <glyph glyph-name="multiply" unicode="&#xd7;" horiz-adv-x="641" 
d="M370 240l140 -140c7 -7 7 -15 0 -22l-27 -27c-7 -8 -15 -8 -22 -1l-140 141l-141 -141c-7 -7 -15 -7 -22 0l-27 28c-7 7 -7 15 0 22l141 140l-141 141c-7 7 -7 15 0 22l27 26c7 7 15 7 22 0l141 -140l140 140c7 7 15 7 22 0l26 -26c8 -7 8 -15 1 -22z" />
    <glyph glyph-name="notequal" unicode="&#x2260;" horiz-adv-x="735" 
d="M451 331l-68 -146h217c10 0 16 -6 16 -16v-42c0 -10 -6 -16 -16 -16h-251l-67 -144c-4 -8 -10 -12 -19 -12h-46c-13 0 -17 8 -12 19l64 137h-133c-10 0 -16 6 -16 16v42c0 10 6 16 16 16h168l68 146h-236c-10 0 -16 6 -16 16v42c0 10 6 16 16 16h270l65 139
c4 8 10 12 19 12h45c13 0 17 -8 12 -19l-61 -132h114c10 0 16 -6 16 -16v-42c0 -10 -6 -16 -16 -16h-149z" />
    <glyph glyph-name="percent" unicode="%" horiz-adv-x="785" 
d="M186 739c77 0 139 -62 139 -139c0 -78 -62 -140 -139 -140c-78 0 -140 62 -140 140c0 77 62 139 140 139zM669 711l-483 -701c-5 -7 -11 -10 -19 -10h-48c-14 0 -18 9 -11 19l484 701c5 7 11 10 19 10h47c14 0 18 -9 11 -19zM186 673c-41 0 -74 -32 -74 -73
s33 -74 74 -74c40 0 73 33 73 74s-33 73 -73 73zM595 270c77 0 139 -62 139 -139c0 -78 -62 -140 -139 -140c-78 0 -140 62 -140 140c0 77 62 139 140 139zM595 204c-41 0 -74 -32 -74 -73s33 -74 74 -74c40 0 73 33 73 74s-33 73 -73 73z" />
    <glyph glyph-name="perthousand" unicode="&#x2030;" horiz-adv-x="1102" 
d="M186 739c77 0 139 -62 139 -139c0 -78 -62 -140 -139 -140c-78 0 -140 62 -140 140c0 77 62 139 140 139zM669 711l-483 -701c-5 -7 -11 -10 -19 -10h-48c-14 0 -18 9 -11 19l484 701c5 7 11 10 19 10h47c14 0 18 -9 11 -19zM186 673c-41 0 -74 -32 -74 -73
s33 -74 74 -74c40 0 73 33 73 74s-33 73 -73 73zM595 270c77 0 139 -62 139 -139c0 -78 -62 -140 -139 -140c-78 0 -140 62 -140 140c0 77 62 139 140 139zM908 270c77 0 139 -62 139 -139c0 -78 -62 -140 -139 -140s-140 62 -140 140c0 77 63 139 140 139zM595 204
c-41 0 -74 -32 -74 -73s33 -74 74 -74c40 0 73 33 73 74s-33 73 -73 73zM908 204c-41 0 -74 -32 -74 -73s33 -74 74 -74c40 0 74 33 74 74s-34 73 -74 73z" />
    <glyph glyph-name="plus" unicode="+" horiz-adv-x="741" 
d="M621 286v-42c0 -10 -6 -16 -16 -16h-196v-198c0 -10 -6 -16 -16 -16h-45c-10 0 -16 6 -16 16v198h-196c-10 0 -16 6 -16 16v42c0 10 6 16 16 16h196v197c0 10 6 16 16 16h45c10 0 16 -6 16 -16v-197h196c10 0 16 -6 16 -16z" />
    <glyph glyph-name="lozenge" unicode="&#x25ca;" horiz-adv-x="600" 
d="M326 0h-53c-9 0 -15 3 -19 11l-201 336c-5 8 -5 14 0 22l204 336c5 8 11 11 20 11h45c9 0 15 -3 20 -11l205 -336c5 -8 5 -14 0 -22l-202 -336c-4 -8 -10 -11 -19 -11zM456 358l-154 251h-5l-153 -251l153 -251h5z" />
    <glyph glyph-name="apple" unicode="&#xf8ff;" horiz-adv-x="581" 
d="M382 533c11 2 18 -4 16 -15c-2 -25 -13 -49 -29 -67c-15 -20 -39 -36 -63 -39c-10 -1 -16 5 -16 15c0 26 15 51 28 68c16 19 41 33 64 38zM396 405c17 0 59 -4 89 -40c7 -8 5 -16 -3 -22c-18 -14 -46 -45 -46 -94c2 -57 39 -88 60 -101c8 -5 11 -12 8 -21
c-5 -14 -16 -37 -33 -61c-21 -33 -45 -67 -82 -67c-34 0 -47 22 -87 22c-43 0 -56 -22 -88 -22c-37 0 -63 35 -86 68c-30 43 -55 111 -56 175c0 84 49 161 134 163c35 1 66 -24 88 -24c20 0 59 24 102 24z" />
    <glyph glyph-name="bar" unicode="|" horiz-adv-x="376" 
d="M226 759l3 -988c0 -10 -6 -16 -16 -16h-50c-10 0 -16 6 -16 16l3 988c0 10 6 16 16 16h44c10 0 16 -6 16 -16z" />
    <glyph glyph-name="brokenbar" unicode="&#xa6;" horiz-adv-x="376" 
d="M226 759l3 -308c0 -10 -6 -16 -16 -16h-50c-10 0 -16 6 -16 16l3 308c0 10 6 16 16 16h44c10 0 16 -6 16 -16zM226 79l3 -308c0 -10 -6 -16 -16 -16h-50c-10 0 -16 6 -16 16l3 308c0 10 6 16 16 16h44c10 0 16 -6 16 -16z" />
    <glyph glyph-name="at" unicode="@" horiz-adv-x="900" 
d="M460 640c217 0 368 -147 368 -356c0 -125 -55 -197 -144 -197c-57 0 -101 31 -122 79h-4c-25 -54 -71 -88 -134 -88c-92 0 -156 70 -156 181c0 116 71 190 158 190c46 0 87 -21 106 -53h3v27c0 10 6 16 16 16h41c10 0 16 -6 16 -16v-154c0 -69 25 -108 70 -108
c48 0 73 44 73 124c0 170 -116 278 -287 278c-176 0 -312 -114 -312 -303c0 -169 110 -290 316 -290c36 0 76 3 122 11c11 2 17 -4 17 -15v-42c0 -9 -5 -15 -14 -17c-46 -11 -92 -14 -126 -14c-243 0 -395 146 -395 366c0 231 167 381 388 381zM439 375
c-59 0 -94 -45 -94 -111c0 -70 41 -112 95 -112c56 0 91 45 91 110v9c0 63 -36 104 -92 104z" />
    <glyph glyph-name="ampersand" unicode="&#x26;" horiz-adv-x="737" 
d="M665 0h-74c-9 0 -14 3 -20 9l-38 44c-54 -45 -127 -70 -212 -70c-147 0 -249 74 -249 190c0 92 63 155 167 217c-54 64 -85 115 -85 180c0 99 71 175 187 175s180 -76 180 -169c0 -82 -48 -142 -156 -210l160 -180c8 24 12 51 12 80c0 12 -1 26 -3 43c-1 11 4 17 15 17
h51c10 0 16 -5 18 -14c3 -18 4 -35 4 -53c0 -54 -13 -102 -36 -141l88 -98c9 -11 5 -20 -9 -20zM340 670c-65 0 -103 -46 -103 -97c0 -45 30 -93 79 -150c74 48 122 89 122 150c0 51 -34 97 -98 97zM326 61c66 0 118 18 154 52l-191 219c-91 -55 -130 -102 -130 -155
c0 -68 62 -116 167 -116z" />
    <glyph glyph-name="paragraph" unicode="&#xb6;" horiz-adv-x="698" 
d="M250 616h128c10 0 16 -6 16 -16v-684c0 -10 -6 -16 -16 -16h-50c-10 0 -16 6 -16 16v315h-62c-127 0 -206 81 -206 194c0 112 79 191 206 191zM532 616h53c10 0 16 -6 16 -16v-684c0 -10 -6 -16 -16 -16h-54c-10 0 -16 6 -16 16l1 684c0 10 6 16 16 16z" />
    <glyph glyph-name="copyright" unicode="&#xa9;" horiz-adv-x="872" 
d="M436 728c201 0 364 -145 364 -365s-163 -364 -364 -364c-200 0 -364 144 -364 364s164 365 364 365zM436 669c-168 0 -305 -121 -305 -306c0 -184 137 -306 305 -306s306 122 306 306c0 185 -138 306 -306 306zM441 571c88 0 147 -52 166 -113c4 -11 -2 -18 -13 -18h-32
c-9 0 -14 4 -19 12c-19 39 -51 61 -102 61c-76 0 -122 -52 -122 -152c0 -98 47 -149 126 -149c51 0 81 22 98 55c5 8 10 12 19 12h29c12 0 18 -7 14 -18c-24 -57 -79 -109 -166 -109c-113 0 -185 84 -185 207c0 129 75 212 187 212z" />
    <glyph glyph-name="registered" unicode="&#xae;" horiz-adv-x="539" 
d="M269 758c98 0 179 -80 179 -178s-81 -179 -179 -179s-178 81 -178 179s80 178 178 178zM269 446c74 0 135 61 135 134c0 74 -61 134 -135 134s-134 -60 -134 -134c0 -73 60 -134 134 -134zM336 609c0 -20 -12 -37 -33 -44l27 -42c7 -11 3 -19 -10 -19h-8
c-9 0 -15 3 -20 11l-28 46h-17v-41c0 -10 -6 -16 -16 -16h-6c-10 0 -16 6 -16 16v118c0 10 6 16 16 16h55c37 0 56 -19 56 -45zM247 593h32c13 0 20 4 20 14c0 9 -9 15 -20 15h-32v-29z" />
    <glyph glyph-name="section" unicode="&#xa7;" horiz-adv-x="569" 
d="M425 234c52 -30 72 -66 72 -115c0 -97 -79 -161 -199 -161c-121 0 -192 64 -221 147c-3 11 2 18 14 18h56c9 0 14 -4 19 -12c27 -52 74 -75 136 -75s106 23 106 73c0 45 -35 66 -129 97l-18 7c-100 34 -166 67 -166 148c0 53 31 96 80 125c-50 26 -80 59 -80 113
c0 91 81 155 192 155c115 0 179 -70 198 -133c3 -11 -3 -18 -14 -18h-52c-9 0 -15 3 -19 11c-24 38 -60 63 -118 63c-62 0 -101 -30 -101 -72s38 -57 121 -83l19 -6c131 -42 176 -86 176 -159c0 -53 -27 -95 -72 -123zM181 367c0 -42 39 -57 121 -83l19 -7l16 -5
c43 13 71 36 71 75c0 45 -37 66 -129 98l-10 3c-54 -13 -88 -42 -88 -81z" />
    </font>
</defs>
</svg>
